%TF.GenerationSoftware,Altium Limited,Altium Designer,22.0.2 (36)*%
G04 Layer_Color=0*
%FSLAX45Y45*%
%MOMM*%
%TF.SameCoordinates,4516B017-0455-433D-A7DA-D7F2A7B68D13*%
%TF.FilePolarity,Positive*%
%TF.FileFunction,Plated,1,2,PTH,Drill*%
%TF.Part,Single*%
G01*
G75*
%TA.AperFunction,ComponentDrill*%
%ADD48O,0.50000X3.00000*%
%ADD49C,2.00000*%
%ADD50C,0.99060*%
%ADD51O,7.00000X1.20000*%
%ADD52C,1.70000*%
%ADD53C,0.90000*%
%TA.AperFunction,ViaDrill,NotFilled*%
%ADD54C,0.30000*%
%ADD55C,0.71120*%
D48*
X2276700Y-5700000D02*
D03*
X1768700D02*
D03*
Y-7600000D02*
D03*
X2276700D02*
D03*
D49*
X900000Y-6500000D02*
D03*
X3200000D02*
D03*
D50*
X530000Y-9705000D02*
D03*
Y-9451000D02*
D03*
Y-9197000D02*
D03*
Y-8943000D02*
D03*
Y-8689000D02*
D03*
Y-8435000D02*
D03*
D51*
X2022700Y-3762000D02*
D03*
X2022660Y-2800000D02*
D03*
X2022700Y-1838000D02*
D03*
D52*
X2697698Y313000D02*
D03*
X1347698Y313000D02*
D03*
D53*
X2340198Y-881000D02*
D03*
X2086198Y-881000D02*
D03*
X1832198Y-881000D02*
D03*
X2213198Y-627000D02*
D03*
X1959199D02*
D03*
X1705198D02*
D03*
D54*
X2120000Y-9630000D02*
D03*
X1920000D02*
D03*
X2120000Y-9430000D02*
D03*
X1920000D02*
D03*
X2860000Y-9560000D02*
D03*
X3270000Y-9590000D02*
D03*
X3655754Y-6531918D02*
D03*
Y-7331918D02*
D03*
Y-8131918D02*
D03*
Y-8931918D02*
D03*
Y-9731918D02*
D03*
X3455754Y-6931918D02*
D03*
Y-7731918D02*
D03*
Y-8531918D02*
D03*
X3255754Y-8931918D02*
D03*
X2855754Y-6531918D02*
D03*
X3055754Y-6931918D02*
D03*
X2855754Y-7331918D02*
D03*
X3055754Y-7731918D02*
D03*
X2855754Y-8131918D02*
D03*
Y-8931918D02*
D03*
X2455754Y-6531918D02*
D03*
X2655754Y-6931918D02*
D03*
X2455754Y-7331918D02*
D03*
X2655754Y-7731918D02*
D03*
X2455754Y-8131918D02*
D03*
X2655754Y-8531918D02*
D03*
X2455754Y-9731918D02*
D03*
X2255754Y-6931918D02*
D03*
Y-8531918D02*
D03*
X1655754Y-6531918D02*
D03*
X1855754Y-6931918D02*
D03*
X1655754Y-7331918D02*
D03*
Y-8131918D02*
D03*
Y-9731918D02*
D03*
X1255754Y-6531918D02*
D03*
X1455754Y-6931918D02*
D03*
X1255754Y-7331918D02*
D03*
X1455754Y-7731918D02*
D03*
X1255754Y-8131918D02*
D03*
X1455754Y-8531918D02*
D03*
X1255754Y-8931918D02*
D03*
Y-9731918D02*
D03*
X1055754Y-6931918D02*
D03*
X855754Y-7331918D02*
D03*
X1055754Y-7731918D02*
D03*
X855754Y-8131918D02*
D03*
X1055754Y-8531918D02*
D03*
X455754Y-6531918D02*
D03*
X655754Y-6931918D02*
D03*
X455754Y-7331918D02*
D03*
X655754Y-7731918D02*
D03*
X455754Y-8131918D02*
D03*
X655754Y-9331918D02*
D03*
X2500000Y-8830000D02*
D03*
X2850000Y-9370000D02*
D03*
D55*
X3200000Y-8430000D02*
D03*
%TF.MD5,8d567a6a94358c064dabbd813fb4cca9*%
M02*
