%TF.GenerationSoftware,Altium Limited,Altium Designer,22.0.2 (36)*%
G04 Layer_Color=128*
%FSLAX45Y45*%
%MOMM*%
%TF.SameCoordinates,235A8577-C031-4008-B0C2-8E77F4E3A316*%
%TF.FilePolarity,Positive*%
%TF.FileFunction,Drillmap*%
%TF.Part,Single*%
G01*
G75*
%TA.AperFunction,NonConductor*%
%ADD49C,0.12700*%
D49*
X2659360Y-11377000D02*
X2740640D01*
X2700000Y-11417640D02*
Y-11336360D01*
X2659360Y-11123000D02*
X2740640D01*
X2700000Y-11163640D02*
Y-11082360D01*
X1984360Y-11377000D02*
X2065640D01*
X2025000Y-11417640D02*
Y-11336360D01*
X1984360Y-11123000D02*
X2065640D01*
X2025000Y-11163640D02*
Y-11082360D01*
X1309360Y-11377000D02*
X1390640D01*
X1350000Y-11417640D02*
Y-11336360D01*
X1309360Y-11123000D02*
X1390640D01*
X1350000Y-11163640D02*
Y-11082360D01*
X2251700Y-5700000D02*
X2301700D01*
X2276700Y-5725000D02*
Y-5675000D01*
X1743700Y-5700000D02*
X1793700D01*
X1768700Y-5725000D02*
Y-5675000D01*
X1743700Y-7600000D02*
X1793700D01*
X1768700Y-7625000D02*
Y-7575000D01*
X2251700Y-7600000D02*
X2301700D01*
X2276700Y-7625000D02*
Y-7575000D01*
X800000Y-6500000D02*
X1000000D01*
X900000Y-6600000D02*
Y-6400000D01*
X480470Y-9705000D02*
X579530D01*
X530000Y-9754530D02*
Y-9655470D01*
X480470Y-9451000D02*
X579530D01*
X530000Y-9500530D02*
Y-9401470D01*
X480470Y-9197000D02*
X579530D01*
X530000Y-9246530D02*
Y-9147470D01*
X480470Y-8943000D02*
X579530D01*
X530000Y-8992530D02*
Y-8893470D01*
X480470Y-8689000D02*
X579530D01*
X530000Y-8738530D02*
Y-8639470D01*
X480470Y-8435000D02*
X579530D01*
X530000Y-8484530D02*
Y-8385470D01*
X1962700Y-3762000D02*
X2082700D01*
X2022700Y-3822000D02*
Y-3702000D01*
X1962660Y-2800000D02*
X2082660D01*
X2022660Y-2860000D02*
Y-2740000D01*
X1962700Y-1838000D02*
X2082700D01*
X2022700Y-1898000D02*
Y-1778000D01*
X2612698Y313000D02*
X2782698D01*
X2697698Y228000D02*
Y398000D01*
X1262698Y313000D02*
X1432698D01*
X1347698Y228000D02*
Y397999D01*
X2295198Y-881000D02*
X2385198D01*
X2340198Y-926000D02*
Y-836000D01*
X2041198Y-881000D02*
X2131198D01*
X2086198Y-926000D02*
Y-836000D01*
X1787198Y-881000D02*
X1877198D01*
X1832198Y-926000D02*
Y-836000D01*
X2168198Y-627000D02*
X2258198D01*
X2213198Y-672000D02*
Y-582000D01*
X1914199Y-627000D02*
X2004198D01*
X1959199Y-672000D02*
Y-582000D01*
X1660198Y-627000D02*
X1750198D01*
X1705198Y-672000D02*
Y-582000D01*
X2368198Y8000D02*
X2693198D01*
X2530698Y-154500D02*
Y170500D01*
X1352198Y8000D02*
X1677198D01*
X1514698Y-154500D02*
Y170500D01*
X3100000Y-6500000D02*
X3300000D01*
X3200000Y-6600000D02*
Y-6400000D01*
X3055000Y-10690000D02*
X3085000D01*
X3070000Y-10705000D02*
Y-10675000D01*
X3055000Y-10770000D02*
X3085000D01*
X3070000Y-10785000D02*
Y-10755000D01*
X2875000Y-10890000D02*
X2905000D01*
X2890000Y-10905000D02*
Y-10875000D01*
X1675000Y-8760000D02*
X1705000D01*
X1690000Y-8775000D02*
Y-8745000D01*
X1760000Y-8760000D02*
X1790000D01*
X1775000Y-8775000D02*
Y-8745000D01*
X1845000Y-8760000D02*
X1875000D01*
X1860000Y-8775000D02*
Y-8745000D01*
X2105000Y-9630000D02*
X2135000D01*
X2120000Y-9645000D02*
Y-9615000D01*
X1905000Y-9630000D02*
X1935000D01*
X1920000Y-9645000D02*
Y-9615000D01*
X2105000Y-9430000D02*
X2135000D01*
X2120000Y-9445000D02*
Y-9415000D01*
X1905000Y-9430000D02*
X1935000D01*
X1920000Y-9445000D02*
Y-9415000D01*
X2845000Y-9560000D02*
X2875000D01*
X2860000Y-9575000D02*
Y-9545000D01*
X3255000Y-9590000D02*
X3285000D01*
X3270000Y-9605000D02*
Y-9575000D01*
X3640754Y-6531918D02*
X3670754D01*
X3655754Y-6546918D02*
Y-6516918D01*
X3640754Y-7331918D02*
X3670754D01*
X3655754Y-7346918D02*
Y-7316918D01*
X3640754Y-8131918D02*
X3670754D01*
X3655754Y-8146918D02*
Y-8116918D01*
X3640754Y-8931918D02*
X3670754D01*
X3655754Y-8946918D02*
Y-8916918D01*
X3640754Y-9731918D02*
X3670754D01*
X3655754Y-9746918D02*
Y-9716918D01*
X3440754Y-6931918D02*
X3470754D01*
X3455754Y-6946918D02*
Y-6916918D01*
X3440754Y-7731918D02*
X3470754D01*
X3455754Y-7746918D02*
Y-7716918D01*
X3440754Y-8531918D02*
X3470754D01*
X3455754Y-8546918D02*
Y-8516918D01*
X3240754Y-8931918D02*
X3270754D01*
X3255754Y-8946918D02*
Y-8916918D01*
X2840754Y-6531918D02*
X2870754D01*
X2855754Y-6546918D02*
Y-6516918D01*
X3040754Y-6931918D02*
X3070754D01*
X3055754Y-6946918D02*
Y-6916918D01*
X2840754Y-7331918D02*
X2870754D01*
X2855754Y-7346918D02*
Y-7316918D01*
X3040754Y-7731918D02*
X3070754D01*
X3055754Y-7746918D02*
Y-7716918D01*
X2840754Y-8131918D02*
X2870754D01*
X2855754Y-8146918D02*
Y-8116918D01*
X2840754Y-8931918D02*
X2870754D01*
X2855754Y-8946918D02*
Y-8916918D01*
X2440754Y-6531918D02*
X2470754D01*
X2455754Y-6546918D02*
Y-6516918D01*
X2640754Y-6931918D02*
X2670754D01*
X2655754Y-6946918D02*
Y-6916918D01*
X2440754Y-7331918D02*
X2470754D01*
X2455754Y-7346918D02*
Y-7316918D01*
X2640754Y-7731918D02*
X2670754D01*
X2655754Y-7746918D02*
Y-7716918D01*
X2440754Y-8131918D02*
X2470754D01*
X2455754Y-8146918D02*
Y-8116918D01*
X2640754Y-8531918D02*
X2670754D01*
X2655754Y-8546918D02*
Y-8516918D01*
X2440754Y-9731918D02*
X2470754D01*
X2455754Y-9746918D02*
Y-9716918D01*
X2240754Y-6931918D02*
X2270754D01*
X2255754Y-6946918D02*
Y-6916918D01*
X2240754Y-8531918D02*
X2270754D01*
X2255754Y-8546918D02*
Y-8516918D01*
X1640754Y-6531918D02*
X1670754D01*
X1655754Y-6546918D02*
Y-6516918D01*
X1840754Y-6931918D02*
X1870754D01*
X1855754Y-6946918D02*
Y-6916918D01*
X1640754Y-7331918D02*
X1670754D01*
X1655754Y-7346918D02*
Y-7316918D01*
X1640754Y-8131918D02*
X1670754D01*
X1655754Y-8146918D02*
Y-8116918D01*
X1640754Y-9731918D02*
X1670754D01*
X1655754Y-9746918D02*
Y-9716918D01*
X1240754Y-6531918D02*
X1270754D01*
X1255754Y-6546918D02*
Y-6516918D01*
X1440754Y-6931918D02*
X1470754D01*
X1455754Y-6946918D02*
Y-6916918D01*
X1240754Y-7331918D02*
X1270754D01*
X1255754Y-7346918D02*
Y-7316918D01*
X1440754Y-7731918D02*
X1470754D01*
X1455754Y-7746918D02*
Y-7716918D01*
X1240754Y-8131918D02*
X1270754D01*
X1255754Y-8146918D02*
Y-8116918D01*
X1440754Y-8531918D02*
X1470754D01*
X1455754Y-8546918D02*
Y-8516918D01*
X1240754Y-8931918D02*
X1270754D01*
X1255754Y-8946918D02*
Y-8916918D01*
X1240754Y-9731918D02*
X1270754D01*
X1255754Y-9746918D02*
Y-9716918D01*
X1040754Y-6931918D02*
X1070754D01*
X1055754Y-6946918D02*
Y-6916918D01*
X840754Y-7331918D02*
X870754D01*
X855754Y-7346918D02*
Y-7316918D01*
X1040754Y-7731918D02*
X1070754D01*
X1055754Y-7746918D02*
Y-7716918D01*
X840754Y-8131918D02*
X870754D01*
X855754Y-8146918D02*
Y-8116918D01*
X1040754Y-8531918D02*
X1070754D01*
X1055754Y-8546918D02*
Y-8516918D01*
X440754Y-6531918D02*
X470754D01*
X455754Y-6546918D02*
Y-6516918D01*
X640754Y-6931918D02*
X670754D01*
X655754Y-6946918D02*
Y-6916918D01*
X440754Y-7331918D02*
X470754D01*
X455754Y-7346918D02*
Y-7316918D01*
X640754Y-7731918D02*
X670754D01*
X655754Y-7746918D02*
Y-7716918D01*
X440754Y-8131918D02*
X470754D01*
X455754Y-8146918D02*
Y-8116918D01*
X640754Y-9331918D02*
X670754D01*
X655754Y-9346918D02*
Y-9316918D01*
X3164440Y-8430000D02*
X3235560D01*
X3200000Y-8465560D02*
Y-8394440D01*
X2485000Y-8830000D02*
X2515000D01*
X2500000Y-8845000D02*
Y-8815000D01*
X2835000Y-9370000D02*
X2865000D01*
X2850000Y-9385000D02*
Y-9355000D01*
%TF.MD5,c32d9ae3458d36bfe8629b9e478afd8c*%
M02*
