%TF.GenerationSoftware,Altium Limited,Altium Designer,22.0.2 (36)*%
G04 Layer_Color=255*
%FSLAX45Y45*%
%MOMM*%
%TF.SameCoordinates,235A8577-C031-4008-B0C2-8E77F4E3A316*%
%TF.FilePolarity,Positive*%
%TF.FileFunction,Pads,Top*%
%TF.Part,Single*%
G01*
G75*
%TA.AperFunction,SMDPad,CuDef*%
%ADD10R,0.90000X0.90000*%
%ADD11R,0.90000X0.90000*%
%TA.AperFunction,BGAPad,CuDef*%
%ADD12R,1.45000X1.45000*%
%TA.AperFunction,SMDPad,CuDef*%
%ADD13R,0.80000X0.40000*%
%ADD14R,0.40000X0.80000*%
%ADD15R,0.70000X0.70000*%
%TA.AperFunction,ComponentPad*%
%ADD18C,1.32080*%
%ADD19O,1.00000X4.00000*%
%ADD20C,3.00000*%
%ADD21O,2.15900X1.39700*%
%ADD22R,2.15900X1.39700*%
%ADD23O,9.00000X2.50000*%
%ADD24C,2.55000*%
%ADD25C,1.40800*%
%ADD26C,3.25000*%
D10*
X2382400Y-8680000D02*
D03*
X2230000D02*
D03*
X2617600Y-10900000D02*
D03*
X2770000D02*
D03*
X1940000D02*
D03*
X2092400D02*
D03*
X1277600Y-10910000D02*
D03*
X1430000D02*
D03*
D11*
X3280000Y-9220000D02*
D03*
Y-9372400D02*
D03*
X3040000D02*
D03*
Y-9220000D02*
D03*
Y-9617600D02*
D03*
Y-9770000D02*
D03*
D12*
X2220084Y-9727500D02*
D03*
X2022700Y-9530000D02*
D03*
X1825200Y-9727500D02*
D03*
X2022700D02*
D03*
X2220084Y-9530000D02*
D03*
X2220200Y-9332500D02*
D03*
X2022700D02*
D03*
X1825200D02*
D03*
Y-9530000D02*
D03*
D13*
X2612700Y-9930000D02*
D03*
Y-9850000D02*
D03*
Y-9770000D02*
D03*
Y-9690000D02*
D03*
Y-9610000D02*
D03*
Y-9530000D02*
D03*
Y-9450000D02*
D03*
Y-9370000D02*
D03*
Y-9290000D02*
D03*
Y-9210000D02*
D03*
Y-9130000D02*
D03*
X1432700D02*
D03*
Y-9210000D02*
D03*
Y-9290000D02*
D03*
Y-9370000D02*
D03*
Y-9450000D02*
D03*
Y-9530000D02*
D03*
Y-9610000D02*
D03*
Y-9690000D02*
D03*
Y-9770000D02*
D03*
Y-9850000D02*
D03*
Y-9930000D02*
D03*
D14*
X2502700Y-9040000D02*
D03*
X2422700D02*
D03*
X2342700D02*
D03*
X2262700D02*
D03*
X2182700D02*
D03*
X2102700D02*
D03*
X2022700D02*
D03*
X1942700D02*
D03*
X1862700D02*
D03*
X1782700D02*
D03*
X1702700D02*
D03*
X1622700D02*
D03*
X1542700D02*
D03*
Y-10020000D02*
D03*
X1622700D02*
D03*
X1702700D02*
D03*
X1782700D02*
D03*
X1862700D02*
D03*
X1942700D02*
D03*
X2022700D02*
D03*
X2102700D02*
D03*
X2182700D02*
D03*
X2262700D02*
D03*
X2342700D02*
D03*
X2422700D02*
D03*
X2502700D02*
D03*
D15*
X2617700Y-10025000D02*
D03*
Y-9035000D02*
D03*
X1427700D02*
D03*
Y-10025000D02*
D03*
D18*
X2700000Y-11377000D02*
D03*
Y-11123000D02*
D03*
X2025000Y-11377000D02*
D03*
Y-11123000D02*
D03*
X1350000Y-11377000D02*
D03*
Y-11123000D02*
D03*
D19*
X2276700Y-5700000D02*
D03*
X1768700D02*
D03*
Y-7600000D02*
D03*
X2276700D02*
D03*
D20*
X900000Y-6500000D02*
D03*
X3200000D02*
D03*
D21*
X530000Y-9705000D02*
D03*
Y-9451000D02*
D03*
Y-9197000D02*
D03*
Y-8943000D02*
D03*
Y-8689000D02*
D03*
D22*
Y-8435000D02*
D03*
D23*
X2022700Y-3762000D02*
D03*
X2022660Y-2800000D02*
D03*
X2022700Y-1838000D02*
D03*
D24*
X2697698Y313000D02*
D03*
X1347698Y313000D02*
D03*
D25*
X2340198Y-881000D02*
D03*
X2086198Y-881000D02*
D03*
X1832198Y-881000D02*
D03*
X2213198Y-627000D02*
D03*
X1959199D02*
D03*
X1705198D02*
D03*
D26*
X2530698Y8000D02*
D03*
X1514698D02*
D03*
%TF.MD5,0cd032419e06cacdb3cd16fe0c9adfe1*%
M02*
