%TF.GenerationSoftware,Altium Limited,Altium Designer,22.0.2 (36)*%
G04 Layer_Color=8388736*
%FSLAX45Y45*%
%MOMM*%
%TF.SameCoordinates,235A8577-C031-4008-B0C2-8E77F4E3A316*%
%TF.FilePolarity,Negative*%
%TF.FileFunction,Soldermask,Top*%
%TF.Part,Single*%
G01*
G75*
%TA.AperFunction,ComponentPad*%
%ADD29C,1.52400*%
%ADD30O,1.20320X4.20320*%
%ADD31C,3.20320*%
%ADD32O,2.36220X1.60020*%
%ADD33R,2.36220X1.60020*%
%ADD34O,9.20320X2.70320*%
%ADD35C,2.75320*%
%ADD36C,1.61120*%
%ADD37C,3.45320*%
%TA.AperFunction,SMDPad,CuDef*%
%ADD38R,1.04000X1.04000*%
%ADD39R,1.04000X1.04000*%
%TA.AperFunction,BGAPad,CuDef*%
%ADD40R,1.65320X1.65320*%
%TA.AperFunction,SMDPad,CuDef*%
%ADD41R,1.00320X0.60320*%
%ADD42R,0.60320X1.00320*%
%ADD43R,0.90320X0.90320*%
%TA.AperFunction,ViaPad*%
%ADD44C,0.80320*%
D29*
X2700000Y-11377000D02*
D03*
Y-11123000D02*
D03*
X2025000Y-11377000D02*
D03*
Y-11123000D02*
D03*
X1350000Y-11377000D02*
D03*
Y-11123000D02*
D03*
D30*
X2276700Y-5700000D02*
D03*
X1768700D02*
D03*
Y-7600000D02*
D03*
X2276700D02*
D03*
D31*
X900000Y-6500000D02*
D03*
X3200000D02*
D03*
D32*
X530000Y-9705000D02*
D03*
Y-9451000D02*
D03*
Y-9197000D02*
D03*
Y-8943000D02*
D03*
Y-8689000D02*
D03*
D33*
Y-8435000D02*
D03*
D34*
X2022700Y-3762000D02*
D03*
X2022660Y-2800000D02*
D03*
X2022700Y-1838000D02*
D03*
D35*
X2697698Y313000D02*
D03*
X1347698Y313000D02*
D03*
D36*
X2340198Y-881000D02*
D03*
X2086198Y-881000D02*
D03*
X1832198Y-881000D02*
D03*
X2213198Y-627000D02*
D03*
X1959199D02*
D03*
X1705198D02*
D03*
D37*
X2530698Y8000D02*
D03*
X1514698D02*
D03*
D38*
X2382400Y-8680000D02*
D03*
X2230000D02*
D03*
X2617600Y-10900000D02*
D03*
X2770000D02*
D03*
X1940000D02*
D03*
X2092400D02*
D03*
X1277600Y-10910000D02*
D03*
X1430000D02*
D03*
D39*
X3280000Y-9220000D02*
D03*
Y-9372400D02*
D03*
X3040000D02*
D03*
Y-9220000D02*
D03*
Y-9617600D02*
D03*
Y-9770000D02*
D03*
D40*
X2220084Y-9727500D02*
D03*
X2022700Y-9530000D02*
D03*
X1825200Y-9727500D02*
D03*
X2022700D02*
D03*
X2220084Y-9530000D02*
D03*
X2220200Y-9332500D02*
D03*
X2022700D02*
D03*
X1825200D02*
D03*
Y-9530000D02*
D03*
D41*
X2612700Y-9930000D02*
D03*
Y-9850000D02*
D03*
Y-9770000D02*
D03*
Y-9690000D02*
D03*
Y-9610000D02*
D03*
Y-9530000D02*
D03*
Y-9450000D02*
D03*
Y-9370000D02*
D03*
Y-9290000D02*
D03*
Y-9210000D02*
D03*
Y-9130000D02*
D03*
X1432700D02*
D03*
Y-9210000D02*
D03*
Y-9290000D02*
D03*
Y-9370000D02*
D03*
Y-9450000D02*
D03*
Y-9530000D02*
D03*
Y-9610000D02*
D03*
Y-9690000D02*
D03*
Y-9770000D02*
D03*
Y-9850000D02*
D03*
Y-9930000D02*
D03*
D42*
X2502700Y-9040000D02*
D03*
X2422700D02*
D03*
X2342700D02*
D03*
X2262700D02*
D03*
X2182700D02*
D03*
X2102700D02*
D03*
X2022700D02*
D03*
X1942700D02*
D03*
X1862700D02*
D03*
X1782700D02*
D03*
X1702700D02*
D03*
X1622700D02*
D03*
X1542700D02*
D03*
Y-10020000D02*
D03*
X1622700D02*
D03*
X1702700D02*
D03*
X1782700D02*
D03*
X1862700D02*
D03*
X1942700D02*
D03*
X2022700D02*
D03*
X2102700D02*
D03*
X2182700D02*
D03*
X2262700D02*
D03*
X2342700D02*
D03*
X2422700D02*
D03*
X2502700D02*
D03*
D43*
X2617700Y-10025000D02*
D03*
Y-9035000D02*
D03*
X1427700D02*
D03*
Y-10025000D02*
D03*
D44*
X2120000Y-9630000D02*
D03*
X1920000D02*
D03*
X2120000Y-9430000D02*
D03*
X1920000D02*
D03*
%TF.MD5,0a754818eca148ba462b09aa8873aeb3*%
M02*
