%TF.GenerationSoftware,Altium Limited,Altium Designer,22.0.2 (36)*%
G04 Layer_Color=255*
%FSLAX45Y45*%
%MOMM*%
%TF.SameCoordinates,235A8577-C031-4008-B0C2-8E77F4E3A316*%
%TF.FilePolarity,Positive*%
%TF.FileFunction,Pads,Bot*%
%TF.Part,Single*%
G01*
G75*
%TA.AperFunction,ComponentPad*%
%ADD18C,1.32080*%
%ADD19O,1.00000X4.00000*%
%ADD20C,3.00000*%
%ADD21O,2.15900X1.39700*%
%ADD22R,2.15900X1.39700*%
%ADD23O,9.00000X2.50000*%
%ADD24C,2.55000*%
%ADD25C,1.40800*%
%ADD26C,3.25000*%
D18*
X2700000Y-11377000D02*
D03*
Y-11123000D02*
D03*
X2025000Y-11377000D02*
D03*
Y-11123000D02*
D03*
X1350000Y-11377000D02*
D03*
Y-11123000D02*
D03*
D19*
X2276700Y-5700000D02*
D03*
X1768700D02*
D03*
Y-7600000D02*
D03*
X2276700D02*
D03*
D20*
X900000Y-6500000D02*
D03*
X3200000D02*
D03*
D21*
X530000Y-9705000D02*
D03*
Y-9451000D02*
D03*
Y-9197000D02*
D03*
Y-8943000D02*
D03*
Y-8689000D02*
D03*
D22*
Y-8435000D02*
D03*
D23*
X2022700Y-3762000D02*
D03*
X2022660Y-2800000D02*
D03*
X2022700Y-1838000D02*
D03*
D24*
X2697698Y313000D02*
D03*
X1347698Y313000D02*
D03*
D25*
X2340198Y-881000D02*
D03*
X2086198Y-881000D02*
D03*
X1832198Y-881000D02*
D03*
X2213198Y-627000D02*
D03*
X1959199D02*
D03*
X1705198D02*
D03*
D26*
X2530698Y8000D02*
D03*
X1514698D02*
D03*
%TF.MD5,9c207225077fd699cf8e9a23554d4133*%
M02*
