%TF.GenerationSoftware,Altium Limited,Altium Designer,22.0.2 (36)*%
G04 Layer_Color=65535*
%FSLAX45Y45*%
%MOMM*%
%TF.SameCoordinates,235A8577-C031-4008-B0C2-8E77F4E3A316*%
%TF.FilePolarity,Positive*%
%TF.FileFunction,Legend,Top*%
%TF.Part,Single*%
G01*
G75*
%TA.AperFunction,NonConductor*%
%ADD45C,0.25400*%
%ADD46C,0.15240*%
%ADD47C,0.20000*%
%ADD48C,0.12000*%
%ADD49C,0.12700*%
G36*
X2484362Y-8483066D02*
X2445313D01*
X2440097Y-8509427D01*
X2440238Y-8509286D01*
X2440520Y-8509145D01*
X2440943Y-8508863D01*
X2441648Y-8508440D01*
X2442494Y-8508018D01*
X2443481Y-8507454D01*
X2445736Y-8506326D01*
X2448555Y-8505198D01*
X2451657Y-8504211D01*
X2455040Y-8503506D01*
X2456732Y-8503225D01*
X2459833D01*
X2460679Y-8503366D01*
X2461807Y-8503506D01*
X2463075Y-8503647D01*
X2464485Y-8503929D01*
X2466036Y-8504352D01*
X2469419Y-8505339D01*
X2471252Y-8506044D01*
X2473084Y-8507031D01*
X2474917Y-8508018D01*
X2476749Y-8509145D01*
X2478441Y-8510555D01*
X2480133Y-8512106D01*
X2480274Y-8512247D01*
X2480556Y-8512529D01*
X2480979Y-8512951D01*
X2481542Y-8513656D01*
X2482247Y-8514643D01*
X2482952Y-8515630D01*
X2483798Y-8516899D01*
X2484644Y-8518308D01*
X2485349Y-8519859D01*
X2486194Y-8521551D01*
X2486899Y-8523524D01*
X2487604Y-8525498D01*
X2488168Y-8527612D01*
X2488591Y-8530009D01*
X2488873Y-8532405D01*
X2489014Y-8534943D01*
Y-8535084D01*
Y-8535507D01*
Y-8536212D01*
X2488873Y-8537198D01*
X2488732Y-8538326D01*
X2488591Y-8539595D01*
X2488309Y-8541145D01*
X2488027Y-8542696D01*
X2487181Y-8546361D01*
X2485772Y-8550168D01*
X2484926Y-8552141D01*
X2483798Y-8553974D01*
X2482670Y-8555947D01*
X2481260Y-8557780D01*
X2481119Y-8557921D01*
X2480838Y-8558344D01*
X2480274Y-8558908D01*
X2479569Y-8559613D01*
X2478582Y-8560458D01*
X2477454Y-8561586D01*
X2476045Y-8562573D01*
X2474494Y-8563701D01*
X2472802Y-8564828D01*
X2470829Y-8565815D01*
X2468714Y-8566802D01*
X2466459Y-8567789D01*
X2464062Y-8568494D01*
X2461384Y-8569058D01*
X2458564Y-8569480D01*
X2455604Y-8569621D01*
X2454335D01*
X2453348Y-8569480D01*
X2452221Y-8569339D01*
X2450952Y-8569199D01*
X2449401Y-8569058D01*
X2447851Y-8568635D01*
X2444326Y-8567789D01*
X2440802Y-8566520D01*
X2438969Y-8565674D01*
X2437137Y-8564687D01*
X2435445Y-8563560D01*
X2433754Y-8562291D01*
X2433613Y-8562150D01*
X2433331Y-8562009D01*
X2433049Y-8561445D01*
X2432485Y-8560881D01*
X2431780Y-8560176D01*
X2431075Y-8559331D01*
X2430229Y-8558203D01*
X2429524Y-8556934D01*
X2428679Y-8555665D01*
X2427833Y-8554115D01*
X2426282Y-8550731D01*
X2425013Y-8546784D01*
X2424591Y-8544670D01*
X2424309Y-8542414D01*
X2436855Y-8541427D01*
Y-8541568D01*
Y-8541850D01*
X2436996Y-8542273D01*
X2437137Y-8542978D01*
X2437560Y-8544529D01*
X2438124Y-8546643D01*
X2438969Y-8548758D01*
X2440097Y-8551154D01*
X2441507Y-8553269D01*
X2443199Y-8555242D01*
X2443481Y-8555383D01*
X2444044Y-8555947D01*
X2445172Y-8556652D01*
X2446723Y-8557498D01*
X2448414Y-8558344D01*
X2450529Y-8559049D01*
X2452925Y-8559613D01*
X2455604Y-8559754D01*
X2456450D01*
X2457014Y-8559613D01*
X2458705Y-8559472D01*
X2460679Y-8558908D01*
X2463075Y-8558203D01*
X2465472Y-8557075D01*
X2468009Y-8555383D01*
X2469137Y-8554397D01*
X2470265Y-8553269D01*
X2470406Y-8553128D01*
X2470547Y-8552987D01*
X2470829Y-8552564D01*
X2471252Y-8552141D01*
X2472238Y-8550590D01*
X2473366Y-8548617D01*
X2474353Y-8546220D01*
X2475340Y-8543260D01*
X2476045Y-8539736D01*
X2476327Y-8537903D01*
Y-8535930D01*
Y-8535789D01*
Y-8535507D01*
Y-8534943D01*
X2476186Y-8534238D01*
Y-8533392D01*
X2476045Y-8532405D01*
X2475622Y-8530150D01*
X2474917Y-8527471D01*
X2473930Y-8524793D01*
X2472520Y-8522255D01*
X2470547Y-8519859D01*
Y-8519718D01*
X2470265Y-8519577D01*
X2469560Y-8518872D01*
X2468291Y-8517885D01*
X2466600Y-8516758D01*
X2464344Y-8515771D01*
X2461807Y-8514784D01*
X2458846Y-8514079D01*
X2457155Y-8513797D01*
X2454476D01*
X2453348Y-8513938D01*
X2451939Y-8514079D01*
X2450247Y-8514502D01*
X2448555Y-8514925D01*
X2446723Y-8515630D01*
X2444890Y-8516476D01*
X2444749Y-8516617D01*
X2444185Y-8516899D01*
X2443340Y-8517603D01*
X2442212Y-8518308D01*
X2441084Y-8519295D01*
X2439956Y-8520564D01*
X2438688Y-8521833D01*
X2437701Y-8523383D01*
X2426423Y-8521833D01*
X2435868Y-8471647D01*
X2484362D01*
Y-8483066D01*
D02*
G37*
G36*
X2377366Y-8470520D02*
X2378634D01*
X2381595Y-8470660D01*
X2384696Y-8471083D01*
X2388079Y-8471506D01*
X2391181Y-8472211D01*
X2392731Y-8472634D01*
X2394000Y-8473057D01*
X2394141D01*
X2394282Y-8473198D01*
X2395128Y-8473621D01*
X2396397Y-8474185D01*
X2397947Y-8475172D01*
X2399639Y-8476440D01*
X2401471Y-8478132D01*
X2403163Y-8480105D01*
X2404855Y-8482361D01*
Y-8482502D01*
X2404996Y-8482643D01*
X2405560Y-8483489D01*
X2406123Y-8484898D01*
X2406969Y-8486731D01*
X2407674Y-8488846D01*
X2408379Y-8491383D01*
X2408802Y-8494061D01*
X2408943Y-8497022D01*
Y-8497163D01*
Y-8497445D01*
Y-8498009D01*
X2408802Y-8498714D01*
Y-8499700D01*
X2408661Y-8500687D01*
X2408097Y-8503084D01*
X2407251Y-8505903D01*
X2406123Y-8508863D01*
X2404432Y-8511824D01*
X2403304Y-8513233D01*
X2402176Y-8514643D01*
X2402035Y-8514784D01*
X2401894Y-8514925D01*
X2401471Y-8515348D01*
X2400908Y-8515771D01*
X2400203Y-8516335D01*
X2399357Y-8516899D01*
X2398229Y-8517603D01*
X2397101Y-8518449D01*
X2395692Y-8519154D01*
X2394141Y-8519859D01*
X2392449Y-8520705D01*
X2390617Y-8521410D01*
X2388502Y-8521974D01*
X2386388Y-8522678D01*
X2383991Y-8523101D01*
X2381454Y-8523524D01*
X2381736Y-8523665D01*
X2382300Y-8523947D01*
X2383145Y-8524511D01*
X2384273Y-8525075D01*
X2386811Y-8526626D01*
X2388079Y-8527612D01*
X2389207Y-8528458D01*
X2389489Y-8528740D01*
X2390194Y-8529445D01*
X2391322Y-8530573D01*
X2392731Y-8531982D01*
X2394282Y-8533956D01*
X2396115Y-8536071D01*
X2397947Y-8538608D01*
X2399921Y-8541427D01*
X2416696Y-8567930D01*
X2400626D01*
X2387797Y-8547630D01*
Y-8547489D01*
X2387515Y-8547207D01*
X2387233Y-8546784D01*
X2386811Y-8546220D01*
X2385824Y-8544670D01*
X2384555Y-8542696D01*
X2383004Y-8540582D01*
X2381454Y-8538326D01*
X2379903Y-8536212D01*
X2378493Y-8534238D01*
X2378352Y-8534097D01*
X2377929Y-8533533D01*
X2377225Y-8532687D01*
X2376238Y-8531700D01*
X2374123Y-8529586D01*
X2372996Y-8528599D01*
X2371868Y-8527753D01*
X2371727Y-8527612D01*
X2371445Y-8527471D01*
X2370881Y-8527189D01*
X2370035Y-8526767D01*
X2369189Y-8526344D01*
X2368203Y-8525921D01*
X2365947Y-8525216D01*
X2365806D01*
X2365524Y-8525075D01*
X2364960D01*
X2364255Y-8524934D01*
X2363269Y-8524793D01*
X2362141D01*
X2360590Y-8524652D01*
X2343956D01*
Y-8567930D01*
X2330986D01*
Y-8470379D01*
X2376238D01*
X2377366Y-8470520D01*
D02*
G37*
G36*
X2485199Y-10914379D02*
X2498450D01*
Y-10925375D01*
X2485199D01*
Y-10948776D01*
X2473216D01*
Y-10925375D01*
X2430784D01*
Y-10914379D01*
X2475472Y-10851224D01*
X2485199D01*
Y-10914379D01*
D02*
G37*
G36*
X2387929Y-10851365D02*
X2389198D01*
X2392159Y-10851506D01*
X2395260Y-10851929D01*
X2398643Y-10852352D01*
X2401744Y-10853057D01*
X2403295Y-10853480D01*
X2404564Y-10853903D01*
X2404705D01*
X2404846Y-10854044D01*
X2405692Y-10854467D01*
X2406960Y-10855031D01*
X2408511Y-10856017D01*
X2410203Y-10857286D01*
X2412035Y-10858978D01*
X2413727Y-10860951D01*
X2415419Y-10863207D01*
Y-10863348D01*
X2415560Y-10863489D01*
X2416123Y-10864335D01*
X2416687Y-10865744D01*
X2417533Y-10867577D01*
X2418238Y-10869691D01*
X2418943Y-10872229D01*
X2419366Y-10874907D01*
X2419507Y-10877868D01*
Y-10878009D01*
Y-10878291D01*
Y-10878855D01*
X2419366Y-10879559D01*
Y-10880546D01*
X2419225Y-10881533D01*
X2418661Y-10883929D01*
X2417815Y-10886749D01*
X2416687Y-10889709D01*
X2414996Y-10892670D01*
X2413868Y-10894079D01*
X2412740Y-10895489D01*
X2412599Y-10895630D01*
X2412458Y-10895771D01*
X2412035Y-10896194D01*
X2411471Y-10896617D01*
X2410767Y-10897181D01*
X2409921Y-10897745D01*
X2408793Y-10898449D01*
X2407665Y-10899295D01*
X2406256Y-10900000D01*
X2404705Y-10900705D01*
X2403013Y-10901551D01*
X2401181Y-10902256D01*
X2399066Y-10902819D01*
X2396952Y-10903524D01*
X2394555Y-10903947D01*
X2392018Y-10904370D01*
X2392300Y-10904511D01*
X2392863Y-10904793D01*
X2393709Y-10905357D01*
X2394837Y-10905921D01*
X2397374Y-10907471D01*
X2398643Y-10908458D01*
X2399771Y-10909304D01*
X2400053Y-10909586D01*
X2400758Y-10910291D01*
X2401885Y-10911419D01*
X2403295Y-10912828D01*
X2404846Y-10914802D01*
X2406678Y-10916916D01*
X2408511Y-10919454D01*
X2410485Y-10922273D01*
X2427260Y-10948776D01*
X2411189D01*
X2398361Y-10928476D01*
Y-10928335D01*
X2398079Y-10928053D01*
X2397797Y-10927630D01*
X2397374Y-10927066D01*
X2396388Y-10925516D01*
X2395119Y-10923542D01*
X2393568Y-10921427D01*
X2392018Y-10919172D01*
X2390467Y-10917057D01*
X2389057Y-10915084D01*
X2388916Y-10914943D01*
X2388493Y-10914379D01*
X2387788Y-10913533D01*
X2386802Y-10912546D01*
X2384687Y-10910432D01*
X2383559Y-10909445D01*
X2382432Y-10908599D01*
X2382291Y-10908458D01*
X2382009Y-10908317D01*
X2381445Y-10908035D01*
X2380599Y-10907612D01*
X2379753Y-10907190D01*
X2378766Y-10906767D01*
X2376511Y-10906062D01*
X2376370D01*
X2376088Y-10905921D01*
X2375524D01*
X2374819Y-10905780D01*
X2373832Y-10905639D01*
X2372705D01*
X2371154Y-10905498D01*
X2354520D01*
Y-10948776D01*
X2341550D01*
Y-10851224D01*
X2386802D01*
X2387929Y-10851365D01*
D02*
G37*
G36*
X1808212Y-10850308D02*
X1810044Y-10850590D01*
X1812300Y-10851013D01*
X1814837Y-10851718D01*
X1817375Y-10852564D01*
X1819912Y-10853691D01*
X1820053D01*
X1820194Y-10853832D01*
X1821040Y-10854255D01*
X1822309Y-10855101D01*
X1823718Y-10856088D01*
X1825410Y-10857497D01*
X1827102Y-10859048D01*
X1828793Y-10860881D01*
X1830203Y-10862995D01*
X1830344Y-10863277D01*
X1830767Y-10863982D01*
X1831331Y-10865251D01*
X1832036Y-10866801D01*
X1832741Y-10868634D01*
X1833304Y-10870749D01*
X1833727Y-10873145D01*
X1833868Y-10875542D01*
Y-10875824D01*
Y-10876669D01*
X1833727Y-10877797D01*
X1833445Y-10879348D01*
X1833022Y-10881180D01*
X1832318Y-10883154D01*
X1831472Y-10885128D01*
X1830344Y-10887101D01*
X1830203Y-10887383D01*
X1829780Y-10887947D01*
X1828934Y-10888934D01*
X1827807Y-10890062D01*
X1826397Y-10891330D01*
X1824705Y-10892740D01*
X1822732Y-10894009D01*
X1820335Y-10895277D01*
X1820476D01*
X1820758Y-10895418D01*
X1821181Y-10895559D01*
X1821745Y-10895700D01*
X1823296Y-10896264D01*
X1825269Y-10897110D01*
X1827525Y-10898238D01*
X1829780Y-10899647D01*
X1831895Y-10901480D01*
X1833868Y-10903595D01*
X1834009Y-10903877D01*
X1834573Y-10904722D01*
X1835419Y-10906132D01*
X1836265Y-10907965D01*
X1837111Y-10910220D01*
X1837956Y-10912899D01*
X1838520Y-10916000D01*
X1838661Y-10919383D01*
Y-10919524D01*
Y-10919947D01*
Y-10920652D01*
X1838520Y-10921498D01*
X1838379Y-10922626D01*
X1838097Y-10923894D01*
X1837815Y-10925304D01*
X1837534Y-10926855D01*
X1836406Y-10930238D01*
X1835560Y-10932071D01*
X1834714Y-10933762D01*
X1833586Y-10935595D01*
X1832318Y-10937427D01*
X1830908Y-10939260D01*
X1829216Y-10940952D01*
X1829075Y-10941093D01*
X1828793Y-10941375D01*
X1828230Y-10941798D01*
X1827525Y-10942361D01*
X1826679Y-10943066D01*
X1825551Y-10943771D01*
X1824282Y-10944617D01*
X1822732Y-10945322D01*
X1821181Y-10946168D01*
X1819348Y-10947013D01*
X1817516Y-10947718D01*
X1815401Y-10948423D01*
X1813146Y-10948987D01*
X1810749Y-10949410D01*
X1808353Y-10949692D01*
X1805674Y-10949833D01*
X1804406D01*
X1803560Y-10949692D01*
X1802432Y-10949551D01*
X1801163Y-10949410D01*
X1799754Y-10949128D01*
X1798203Y-10948846D01*
X1794820Y-10948000D01*
X1791295Y-10946591D01*
X1789463Y-10945745D01*
X1787771Y-10944758D01*
X1786079Y-10943489D01*
X1784388Y-10942220D01*
X1784247Y-10942079D01*
X1783965Y-10941798D01*
X1783542Y-10941375D01*
X1783119Y-10940811D01*
X1782414Y-10940106D01*
X1781709Y-10939119D01*
X1780864Y-10938132D01*
X1780018Y-10936864D01*
X1779172Y-10935454D01*
X1778326Y-10934044D01*
X1776775Y-10930661D01*
X1775507Y-10926714D01*
X1775084Y-10924599D01*
X1774802Y-10922344D01*
X1786784Y-10920793D01*
Y-10920934D01*
X1786925Y-10921216D01*
X1787066Y-10921780D01*
X1787207Y-10922485D01*
X1787348Y-10923330D01*
X1787630Y-10924317D01*
X1788335Y-10926432D01*
X1789322Y-10928969D01*
X1790591Y-10931366D01*
X1792000Y-10933621D01*
X1793692Y-10935595D01*
X1793974Y-10935736D01*
X1794538Y-10936300D01*
X1795665Y-10937005D01*
X1797075Y-10937709D01*
X1798767Y-10938555D01*
X1800881Y-10939260D01*
X1803278Y-10939824D01*
X1805815Y-10939965D01*
X1806661D01*
X1807225Y-10939824D01*
X1808776Y-10939683D01*
X1810749Y-10939260D01*
X1813005Y-10938555D01*
X1815401Y-10937568D01*
X1817798Y-10936159D01*
X1820053Y-10934185D01*
X1820335Y-10933903D01*
X1821040Y-10933057D01*
X1821886Y-10931789D01*
X1823014Y-10930097D01*
X1824141Y-10927982D01*
X1824987Y-10925586D01*
X1825692Y-10922767D01*
X1825974Y-10919665D01*
Y-10919524D01*
Y-10919242D01*
Y-10918819D01*
X1825833Y-10918256D01*
X1825692Y-10916705D01*
X1825269Y-10914872D01*
X1824705Y-10912617D01*
X1823718Y-10910361D01*
X1822309Y-10908106D01*
X1820476Y-10905991D01*
X1820194Y-10905709D01*
X1819489Y-10905145D01*
X1818362Y-10904300D01*
X1816811Y-10903313D01*
X1814837Y-10902326D01*
X1812441Y-10901480D01*
X1809762Y-10900916D01*
X1806802Y-10900634D01*
X1805533D01*
X1804547Y-10900775D01*
X1803278Y-10900916D01*
X1801868Y-10901198D01*
X1800176Y-10901480D01*
X1798344Y-10901903D01*
X1799754Y-10891330D01*
X1800458D01*
X1801022Y-10891471D01*
X1802855D01*
X1804406Y-10891189D01*
X1806238Y-10890907D01*
X1808353Y-10890484D01*
X1810749Y-10889780D01*
X1813005Y-10888793D01*
X1815401Y-10887524D01*
X1815542D01*
X1815683Y-10887383D01*
X1816388Y-10886819D01*
X1817375Y-10885832D01*
X1818503Y-10884564D01*
X1819630Y-10882731D01*
X1820617Y-10880617D01*
X1821322Y-10878220D01*
X1821604Y-10876810D01*
Y-10875260D01*
Y-10875119D01*
Y-10874978D01*
Y-10874132D01*
X1821322Y-10873004D01*
X1821040Y-10871453D01*
X1820476Y-10869762D01*
X1819771Y-10867929D01*
X1818644Y-10866097D01*
X1817093Y-10864405D01*
X1816952Y-10864264D01*
X1816247Y-10863700D01*
X1815260Y-10862995D01*
X1813992Y-10862149D01*
X1812300Y-10861445D01*
X1810326Y-10860740D01*
X1808071Y-10860176D01*
X1805533Y-10860035D01*
X1804406D01*
X1803137Y-10860317D01*
X1801445Y-10860599D01*
X1799613Y-10861163D01*
X1797780Y-10861868D01*
X1795806Y-10862995D01*
X1793974Y-10864405D01*
X1793833Y-10864546D01*
X1793269Y-10865251D01*
X1792423Y-10866238D01*
X1791436Y-10867647D01*
X1790450Y-10869480D01*
X1789463Y-10871735D01*
X1788617Y-10874414D01*
X1788053Y-10877515D01*
X1776071Y-10875401D01*
Y-10875260D01*
X1776212Y-10874837D01*
X1776353Y-10874273D01*
X1776494Y-10873427D01*
X1776775Y-10872440D01*
X1777198Y-10871313D01*
X1778044Y-10868634D01*
X1779454Y-10865533D01*
X1781146Y-10862431D01*
X1783260Y-10859471D01*
X1785939Y-10856793D01*
X1786079Y-10856652D01*
X1786361Y-10856511D01*
X1786784Y-10856229D01*
X1787348Y-10855806D01*
X1788053Y-10855242D01*
X1789040Y-10854678D01*
X1790027Y-10854114D01*
X1791295Y-10853409D01*
X1794115Y-10852282D01*
X1797357Y-10851154D01*
X1801163Y-10850449D01*
X1803137Y-10850167D01*
X1806661D01*
X1808212Y-10850308D01*
D02*
G37*
G36*
X1727718Y-10850731D02*
X1728987D01*
X1731947Y-10850872D01*
X1735048Y-10851295D01*
X1738432Y-10851718D01*
X1741533Y-10852423D01*
X1743084Y-10852845D01*
X1744352Y-10853268D01*
X1744493D01*
X1744634Y-10853409D01*
X1745480Y-10853832D01*
X1746749Y-10854396D01*
X1748300Y-10855383D01*
X1749991Y-10856652D01*
X1751824Y-10858343D01*
X1753515Y-10860317D01*
X1755207Y-10862572D01*
Y-10862713D01*
X1755348Y-10862854D01*
X1755912Y-10863700D01*
X1756476Y-10865110D01*
X1757322Y-10866942D01*
X1758026Y-10869057D01*
X1758731Y-10871594D01*
X1759154Y-10874273D01*
X1759295Y-10877233D01*
Y-10877374D01*
Y-10877656D01*
Y-10878220D01*
X1759154Y-10878925D01*
Y-10879912D01*
X1759013Y-10880898D01*
X1758449Y-10883295D01*
X1757604Y-10886114D01*
X1756476Y-10889075D01*
X1754784Y-10892035D01*
X1753656Y-10893445D01*
X1752529Y-10894855D01*
X1752388Y-10894995D01*
X1752247Y-10895136D01*
X1751824Y-10895559D01*
X1751260Y-10895982D01*
X1750555Y-10896546D01*
X1749709Y-10897110D01*
X1748581Y-10897815D01*
X1747454Y-10898661D01*
X1746044Y-10899366D01*
X1744493Y-10900070D01*
X1742802Y-10900916D01*
X1740969Y-10901621D01*
X1738855Y-10902185D01*
X1736740Y-10902890D01*
X1734343Y-10903313D01*
X1731806Y-10903736D01*
X1732088Y-10903877D01*
X1732652Y-10904159D01*
X1733498Y-10904722D01*
X1734625Y-10905286D01*
X1737163Y-10906837D01*
X1738432Y-10907824D01*
X1739559Y-10908670D01*
X1739841Y-10908952D01*
X1740546Y-10909656D01*
X1741674Y-10910784D01*
X1743084Y-10912194D01*
X1744634Y-10914167D01*
X1746467Y-10916282D01*
X1748300Y-10918819D01*
X1750273Y-10921639D01*
X1767049Y-10948141D01*
X1750978D01*
X1738150Y-10927841D01*
Y-10927701D01*
X1737868Y-10927419D01*
X1737586Y-10926996D01*
X1737163Y-10926432D01*
X1736176Y-10924881D01*
X1734907Y-10922908D01*
X1733357Y-10920793D01*
X1731806Y-10918537D01*
X1730255Y-10916423D01*
X1728846Y-10914449D01*
X1728705Y-10914308D01*
X1728282Y-10913744D01*
X1727577Y-10912899D01*
X1726590Y-10911912D01*
X1724476Y-10909797D01*
X1723348Y-10908811D01*
X1722220Y-10907965D01*
X1722079Y-10907824D01*
X1721797Y-10907683D01*
X1721233Y-10907401D01*
X1720387Y-10906978D01*
X1719542Y-10906555D01*
X1718555Y-10906132D01*
X1716299Y-10905427D01*
X1716158D01*
X1715876Y-10905286D01*
X1715313D01*
X1714608Y-10905145D01*
X1713621Y-10905004D01*
X1712493D01*
X1710942Y-10904863D01*
X1694308D01*
Y-10948141D01*
X1681339D01*
Y-10850590D01*
X1726590D01*
X1727718Y-10850731D01*
D02*
G37*
G36*
X1139833Y-10861154D02*
X1140961Y-10861295D01*
X1142371Y-10861436D01*
X1143921Y-10861718D01*
X1145472Y-10862000D01*
X1149137Y-10862986D01*
X1152802Y-10864396D01*
X1154635Y-10865242D01*
X1156468Y-10866229D01*
X1158159Y-10867497D01*
X1159710Y-10868907D01*
X1159851Y-10869048D01*
X1160133Y-10869189D01*
X1160415Y-10869753D01*
X1160979Y-10870317D01*
X1161683Y-10871022D01*
X1162388Y-10872008D01*
X1163093Y-10872995D01*
X1163939Y-10874264D01*
X1165349Y-10876942D01*
X1166758Y-10880326D01*
X1167322Y-10882017D01*
X1167604Y-10883991D01*
X1167886Y-10885965D01*
X1168027Y-10888079D01*
Y-10888361D01*
Y-10889066D01*
X1167886Y-10890194D01*
X1167745Y-10891744D01*
X1167463Y-10893436D01*
X1166899Y-10895410D01*
X1166335Y-10897524D01*
X1165490Y-10899639D01*
X1165349Y-10899921D01*
X1165067Y-10900625D01*
X1164503Y-10901753D01*
X1163657Y-10903304D01*
X1162529Y-10904995D01*
X1161120Y-10907110D01*
X1159428Y-10909225D01*
X1157454Y-10911621D01*
X1157172Y-10911903D01*
X1156468Y-10912749D01*
X1155763Y-10913454D01*
X1155058Y-10914159D01*
X1154212Y-10915004D01*
X1153084Y-10916132D01*
X1151957Y-10917260D01*
X1150547Y-10918529D01*
X1149137Y-10919938D01*
X1147446Y-10921489D01*
X1145613Y-10923040D01*
X1143639Y-10924872D01*
X1141384Y-10926705D01*
X1139128Y-10928678D01*
X1138987Y-10928819D01*
X1138705Y-10929101D01*
X1138141Y-10929524D01*
X1137437Y-10930088D01*
X1136591Y-10930934D01*
X1135604Y-10931780D01*
X1133349Y-10933612D01*
X1130952Y-10935727D01*
X1128696Y-10937841D01*
X1126723Y-10939674D01*
X1125877Y-10940379D01*
X1125172Y-10941084D01*
X1125031Y-10941225D01*
X1124608Y-10941648D01*
X1124044Y-10942212D01*
X1123340Y-10943057D01*
X1122635Y-10944044D01*
X1121789Y-10945031D01*
X1120097Y-10947427D01*
X1168168D01*
Y-10958987D01*
X1103463D01*
Y-10958846D01*
Y-10958282D01*
Y-10957436D01*
X1103604Y-10956309D01*
X1103745Y-10955040D01*
X1104027Y-10953630D01*
X1104309Y-10952220D01*
X1104873Y-10950670D01*
Y-10950529D01*
X1105014Y-10950388D01*
X1105295Y-10949542D01*
X1105859Y-10948273D01*
X1106705Y-10946582D01*
X1107833Y-10944608D01*
X1109243Y-10942353D01*
X1110793Y-10940097D01*
X1112767Y-10937701D01*
Y-10937560D01*
X1113049Y-10937419D01*
X1113754Y-10936573D01*
X1115022Y-10935304D01*
X1116855Y-10933471D01*
X1118970Y-10931357D01*
X1121648Y-10928819D01*
X1124890Y-10926000D01*
X1128415Y-10923040D01*
X1128556Y-10922899D01*
X1129119Y-10922476D01*
X1129965Y-10921771D01*
X1130952Y-10920925D01*
X1132221Y-10919797D01*
X1133771Y-10918529D01*
X1135322Y-10917119D01*
X1137155Y-10915568D01*
X1140679Y-10912185D01*
X1144203Y-10908802D01*
X1145895Y-10907110D01*
X1147446Y-10905418D01*
X1148855Y-10903868D01*
X1149983Y-10902317D01*
Y-10902176D01*
X1150265Y-10902035D01*
X1150547Y-10901612D01*
X1150829Y-10901048D01*
X1151816Y-10899498D01*
X1152943Y-10897665D01*
X1153930Y-10895410D01*
X1154917Y-10893013D01*
X1155481Y-10890335D01*
X1155763Y-10887797D01*
Y-10887656D01*
Y-10887515D01*
X1155622Y-10886669D01*
X1155481Y-10885260D01*
X1155058Y-10883709D01*
X1154494Y-10881735D01*
X1153507Y-10879762D01*
X1152238Y-10877788D01*
X1150547Y-10875815D01*
X1150265Y-10875533D01*
X1149560Y-10874969D01*
X1148573Y-10874264D01*
X1147023Y-10873277D01*
X1145049Y-10872431D01*
X1142793Y-10871586D01*
X1140115Y-10871022D01*
X1137155Y-10870881D01*
X1136309D01*
X1135745Y-10871022D01*
X1134053Y-10871163D01*
X1132080Y-10871586D01*
X1129965Y-10872149D01*
X1127569Y-10873136D01*
X1125313Y-10874405D01*
X1123199Y-10876097D01*
X1122917Y-10876379D01*
X1122353Y-10877083D01*
X1121507Y-10878211D01*
X1120661Y-10879903D01*
X1119674Y-10881876D01*
X1118829Y-10884414D01*
X1118265Y-10887233D01*
X1117983Y-10890476D01*
X1105718Y-10889207D01*
Y-10889066D01*
X1105859Y-10888643D01*
Y-10887938D01*
X1106000Y-10886951D01*
X1106282Y-10885824D01*
X1106564Y-10884555D01*
X1106987Y-10883004D01*
X1107410Y-10881453D01*
X1108538Y-10878070D01*
X1110229Y-10874687D01*
X1111216Y-10872995D01*
X1112485Y-10871304D01*
X1113754Y-10869753D01*
X1115163Y-10868343D01*
X1115304Y-10868202D01*
X1115586Y-10868061D01*
X1116009Y-10867638D01*
X1116714Y-10867216D01*
X1117560Y-10866652D01*
X1118547Y-10866088D01*
X1119674Y-10865383D01*
X1121084Y-10864678D01*
X1122635Y-10863973D01*
X1124326Y-10863268D01*
X1126159Y-10862704D01*
X1128133Y-10862141D01*
X1130247Y-10861718D01*
X1132503Y-10861295D01*
X1134899Y-10861154D01*
X1137437Y-10861013D01*
X1138846D01*
X1139833Y-10861154D01*
D02*
G37*
G36*
X1058211Y-10861577D02*
X1059480D01*
X1062441Y-10861718D01*
X1065542Y-10862141D01*
X1068925Y-10862563D01*
X1072027Y-10863268D01*
X1073577Y-10863691D01*
X1074846Y-10864114D01*
X1074987D01*
X1075128Y-10864255D01*
X1075974Y-10864678D01*
X1077242Y-10865242D01*
X1078793Y-10866229D01*
X1080485Y-10867497D01*
X1082317Y-10869189D01*
X1084009Y-10871163D01*
X1085701Y-10873418D01*
Y-10873559D01*
X1085842Y-10873700D01*
X1086405Y-10874546D01*
X1086969Y-10875956D01*
X1087815Y-10877788D01*
X1088520Y-10879903D01*
X1089225Y-10882440D01*
X1089648Y-10885119D01*
X1089789Y-10888079D01*
Y-10888220D01*
Y-10888502D01*
Y-10889066D01*
X1089648Y-10889771D01*
Y-10890757D01*
X1089507Y-10891744D01*
X1088943Y-10894141D01*
X1088097Y-10896960D01*
X1086969Y-10899921D01*
X1085278Y-10902881D01*
X1084150Y-10904291D01*
X1083022Y-10905700D01*
X1082881Y-10905841D01*
X1082740Y-10905982D01*
X1082317Y-10906405D01*
X1081753Y-10906828D01*
X1081049Y-10907392D01*
X1080203Y-10907956D01*
X1079075Y-10908661D01*
X1077947Y-10909507D01*
X1076538Y-10910211D01*
X1074987Y-10910916D01*
X1073295Y-10911762D01*
X1071463Y-10912467D01*
X1069348Y-10913031D01*
X1067234Y-10913736D01*
X1064837Y-10914159D01*
X1062300Y-10914581D01*
X1062582Y-10914722D01*
X1063145Y-10915004D01*
X1063991Y-10915568D01*
X1065119Y-10916132D01*
X1067656Y-10917683D01*
X1068925Y-10918670D01*
X1070053Y-10919515D01*
X1070335Y-10919797D01*
X1071040Y-10920502D01*
X1072168Y-10921630D01*
X1073577Y-10923040D01*
X1075128Y-10925013D01*
X1076961Y-10927128D01*
X1078793Y-10929665D01*
X1080767Y-10932485D01*
X1097542Y-10958987D01*
X1081472D01*
X1068643Y-10938687D01*
Y-10938546D01*
X1068361Y-10938264D01*
X1068079Y-10937841D01*
X1067656Y-10937278D01*
X1066670Y-10935727D01*
X1065401Y-10933753D01*
X1063850Y-10931639D01*
X1062300Y-10929383D01*
X1060749Y-10927269D01*
X1059339Y-10925295D01*
X1059198Y-10925154D01*
X1058775Y-10924590D01*
X1058071Y-10923744D01*
X1057084Y-10922758D01*
X1054969Y-10920643D01*
X1053841Y-10919656D01*
X1052714Y-10918811D01*
X1052573Y-10918670D01*
X1052291Y-10918529D01*
X1051727Y-10918247D01*
X1050881Y-10917824D01*
X1050035Y-10917401D01*
X1049048Y-10916978D01*
X1046793Y-10916273D01*
X1046652D01*
X1046370Y-10916132D01*
X1045806D01*
X1045101Y-10915991D01*
X1044114Y-10915850D01*
X1042987D01*
X1041436Y-10915709D01*
X1024802D01*
Y-10958987D01*
X1011832D01*
Y-10861436D01*
X1057084D01*
X1058211Y-10861577D01*
D02*
G37*
G36*
X2841948Y-11480308D02*
X2843780Y-11480590D01*
X2846036Y-11481013D01*
X2848573Y-11481718D01*
X2851111Y-11482564D01*
X2853648Y-11483691D01*
X2853789D01*
X2853930Y-11483832D01*
X2854776Y-11484255D01*
X2856045Y-11485101D01*
X2857455Y-11486088D01*
X2859146Y-11487497D01*
X2860838Y-11489048D01*
X2862529Y-11490881D01*
X2863939Y-11492995D01*
X2864080Y-11493277D01*
X2864503Y-11493982D01*
X2865067Y-11495251D01*
X2865772Y-11496801D01*
X2866477Y-11498634D01*
X2867040Y-11500749D01*
X2867463Y-11503145D01*
X2867604Y-11505542D01*
Y-11505824D01*
Y-11506669D01*
X2867463Y-11507797D01*
X2867181Y-11509348D01*
X2866759Y-11511180D01*
X2866054Y-11513154D01*
X2865208Y-11515128D01*
X2864080Y-11517101D01*
X2863939Y-11517383D01*
X2863516Y-11517947D01*
X2862670Y-11518934D01*
X2861543Y-11520062D01*
X2860133Y-11521330D01*
X2858441Y-11522740D01*
X2856468Y-11524009D01*
X2854071Y-11525277D01*
X2854212D01*
X2854494Y-11525418D01*
X2854917Y-11525559D01*
X2855481Y-11525700D01*
X2857032Y-11526264D01*
X2859005Y-11527110D01*
X2861261Y-11528238D01*
X2863516Y-11529648D01*
X2865631Y-11531480D01*
X2867604Y-11533595D01*
X2867745Y-11533877D01*
X2868309Y-11534722D01*
X2869155Y-11536132D01*
X2870001Y-11537965D01*
X2870847Y-11540220D01*
X2871693Y-11542899D01*
X2872256Y-11546000D01*
X2872397Y-11549383D01*
Y-11549524D01*
Y-11549947D01*
Y-11550652D01*
X2872256Y-11551498D01*
X2872115Y-11552626D01*
X2871833Y-11553894D01*
X2871552Y-11555304D01*
X2871270Y-11556855D01*
X2870142Y-11560238D01*
X2869296Y-11562071D01*
X2868450Y-11563762D01*
X2867322Y-11565595D01*
X2866054Y-11567427D01*
X2864644Y-11569260D01*
X2862952Y-11570952D01*
X2862811Y-11571093D01*
X2862529Y-11571375D01*
X2861966Y-11571798D01*
X2861261Y-11572361D01*
X2860415Y-11573066D01*
X2859287Y-11573771D01*
X2858018Y-11574617D01*
X2856468Y-11575322D01*
X2854917Y-11576168D01*
X2853084Y-11577013D01*
X2851252Y-11577718D01*
X2849137Y-11578423D01*
X2846882Y-11578987D01*
X2844485Y-11579410D01*
X2842089Y-11579692D01*
X2839410Y-11579833D01*
X2838142D01*
X2837296Y-11579692D01*
X2836168Y-11579551D01*
X2834899Y-11579410D01*
X2833490Y-11579128D01*
X2831939Y-11578846D01*
X2828556Y-11578000D01*
X2825031Y-11576591D01*
X2823199Y-11575745D01*
X2821507Y-11574758D01*
X2819816Y-11573489D01*
X2818124Y-11572220D01*
X2817983Y-11572079D01*
X2817701Y-11571798D01*
X2817278Y-11571375D01*
X2816855Y-11570811D01*
X2816150Y-11570106D01*
X2815445Y-11569119D01*
X2814600Y-11568132D01*
X2813754Y-11566864D01*
X2812908Y-11565454D01*
X2812062Y-11564044D01*
X2810512Y-11560661D01*
X2809243Y-11556714D01*
X2808820Y-11554599D01*
X2808538Y-11552344D01*
X2820520Y-11550793D01*
Y-11550934D01*
X2820661Y-11551216D01*
X2820802Y-11551780D01*
X2820943Y-11552485D01*
X2821084Y-11553330D01*
X2821366Y-11554317D01*
X2822071Y-11556432D01*
X2823058Y-11558969D01*
X2824327Y-11561366D01*
X2825736Y-11563621D01*
X2827428Y-11565595D01*
X2827710Y-11565736D01*
X2828274Y-11566300D01*
X2829402Y-11567005D01*
X2830811Y-11567709D01*
X2832503Y-11568555D01*
X2834617Y-11569260D01*
X2837014Y-11569824D01*
X2839551Y-11569965D01*
X2840397D01*
X2840961Y-11569824D01*
X2842512Y-11569683D01*
X2844485Y-11569260D01*
X2846741Y-11568555D01*
X2849137Y-11567568D01*
X2851534Y-11566159D01*
X2853789Y-11564185D01*
X2854071Y-11563903D01*
X2854776Y-11563057D01*
X2855622Y-11561789D01*
X2856750Y-11560097D01*
X2857877Y-11557982D01*
X2858723Y-11555586D01*
X2859428Y-11552767D01*
X2859710Y-11549665D01*
Y-11549524D01*
Y-11549242D01*
Y-11548819D01*
X2859569Y-11548256D01*
X2859428Y-11546705D01*
X2859005Y-11544872D01*
X2858441Y-11542617D01*
X2857455Y-11540361D01*
X2856045Y-11538106D01*
X2854212Y-11535991D01*
X2853930Y-11535709D01*
X2853225Y-11535145D01*
X2852098Y-11534300D01*
X2850547Y-11533313D01*
X2848573Y-11532326D01*
X2846177Y-11531480D01*
X2843499Y-11530916D01*
X2840538Y-11530634D01*
X2839269D01*
X2838283Y-11530775D01*
X2837014Y-11530916D01*
X2835604Y-11531198D01*
X2833913Y-11531480D01*
X2832080Y-11531903D01*
X2833490Y-11521330D01*
X2834194D01*
X2834758Y-11521471D01*
X2836591D01*
X2838142Y-11521189D01*
X2839974Y-11520907D01*
X2842089Y-11520484D01*
X2844485Y-11519780D01*
X2846741Y-11518793D01*
X2849137Y-11517524D01*
X2849278D01*
X2849419Y-11517383D01*
X2850124Y-11516819D01*
X2851111Y-11515832D01*
X2852239Y-11514564D01*
X2853366Y-11512731D01*
X2854353Y-11510617D01*
X2855058Y-11508220D01*
X2855340Y-11506810D01*
Y-11505260D01*
Y-11505119D01*
Y-11504978D01*
Y-11504132D01*
X2855058Y-11503004D01*
X2854776Y-11501454D01*
X2854212Y-11499762D01*
X2853507Y-11497929D01*
X2852380Y-11496097D01*
X2850829Y-11494405D01*
X2850688Y-11494264D01*
X2849983Y-11493700D01*
X2848996Y-11492995D01*
X2847728Y-11492149D01*
X2846036Y-11491445D01*
X2844062Y-11490740D01*
X2841807Y-11490176D01*
X2839269Y-11490035D01*
X2838142D01*
X2836873Y-11490317D01*
X2835181Y-11490599D01*
X2833349Y-11491163D01*
X2831516Y-11491868D01*
X2829542Y-11492995D01*
X2827710Y-11494405D01*
X2827569Y-11494546D01*
X2827005Y-11495251D01*
X2826159Y-11496238D01*
X2825172Y-11497647D01*
X2824186Y-11499480D01*
X2823199Y-11501735D01*
X2822353Y-11504414D01*
X2821789Y-11507515D01*
X2809807Y-11505401D01*
Y-11505260D01*
X2809948Y-11504837D01*
X2810089Y-11504273D01*
X2810230Y-11503427D01*
X2810512Y-11502440D01*
X2810934Y-11501313D01*
X2811780Y-11498634D01*
X2813190Y-11495533D01*
X2814882Y-11492431D01*
X2816996Y-11489471D01*
X2819675Y-11486793D01*
X2819816Y-11486652D01*
X2820097Y-11486511D01*
X2820520Y-11486229D01*
X2821084Y-11485806D01*
X2821789Y-11485242D01*
X2822776Y-11484678D01*
X2823763Y-11484114D01*
X2825031Y-11483409D01*
X2827851Y-11482282D01*
X2831093Y-11481154D01*
X2834899Y-11480449D01*
X2836873Y-11480167D01*
X2840397D01*
X2841948Y-11480308D01*
D02*
G37*
G36*
X2754969Y-11480731D02*
X2757789Y-11480872D01*
X2760608Y-11481154D01*
X2763428Y-11481577D01*
X2765824Y-11482000D01*
X2765965D01*
X2766247Y-11482141D01*
X2766670D01*
X2767234Y-11482423D01*
X2768784Y-11482845D01*
X2770758Y-11483550D01*
X2773014Y-11484537D01*
X2775410Y-11485806D01*
X2777806Y-11487216D01*
X2780062Y-11489048D01*
X2780203Y-11489189D01*
X2780344Y-11489330D01*
X2780767Y-11489753D01*
X2781331Y-11490176D01*
X2782740Y-11491586D01*
X2784432Y-11493559D01*
X2786265Y-11495956D01*
X2788238Y-11498775D01*
X2790071Y-11502017D01*
X2791622Y-11505683D01*
Y-11505824D01*
X2791763Y-11506106D01*
X2792044Y-11506669D01*
X2792185Y-11507515D01*
X2792608Y-11508502D01*
X2792890Y-11509630D01*
X2793172Y-11510898D01*
X2793595Y-11512449D01*
X2794018Y-11514000D01*
X2794300Y-11515832D01*
X2795005Y-11519780D01*
X2795428Y-11524150D01*
X2795569Y-11528943D01*
Y-11529084D01*
Y-11529366D01*
Y-11530070D01*
Y-11530775D01*
X2795428Y-11531762D01*
Y-11532890D01*
X2795287Y-11535568D01*
X2794864Y-11538670D01*
X2794441Y-11541912D01*
X2793736Y-11545295D01*
X2792890Y-11548678D01*
Y-11548819D01*
X2792749Y-11549101D01*
X2792608Y-11549524D01*
X2792467Y-11550088D01*
X2791903Y-11551639D01*
X2791058Y-11553612D01*
X2790212Y-11555868D01*
X2789084Y-11558123D01*
X2787674Y-11560520D01*
X2786265Y-11562775D01*
X2786124Y-11563057D01*
X2785560Y-11563762D01*
X2784714Y-11564749D01*
X2783586Y-11566018D01*
X2782318Y-11567427D01*
X2780767Y-11568837D01*
X2779216Y-11570388D01*
X2777384Y-11571657D01*
X2777102Y-11571798D01*
X2776538Y-11572220D01*
X2775551Y-11572784D01*
X2774141Y-11573489D01*
X2772450Y-11574335D01*
X2770476Y-11575040D01*
X2768221Y-11575886D01*
X2765683Y-11576591D01*
X2765401D01*
X2764978Y-11576731D01*
X2764555Y-11576872D01*
X2763146Y-11577013D01*
X2761172Y-11577295D01*
X2758917Y-11577577D01*
X2756238Y-11577859D01*
X2753278Y-11578000D01*
X2750035Y-11578141D01*
X2714934D01*
Y-11480590D01*
X2752432D01*
X2754969Y-11480731D01*
D02*
G37*
G36*
X2694775Y-11492149D02*
X2637118D01*
Y-11521894D01*
X2691110D01*
Y-11533454D01*
X2637118D01*
Y-11566582D01*
X2697031D01*
Y-11578141D01*
X2624149D01*
Y-11480590D01*
X2694775D01*
Y-11492149D01*
D02*
G37*
G36*
X2560572Y-11566582D02*
X2608642D01*
Y-11578141D01*
X2547602D01*
Y-11480590D01*
X2560572D01*
Y-11566582D01*
D02*
G37*
G36*
X2153569Y-11471154D02*
X2154697Y-11471295D01*
X2156107Y-11471436D01*
X2157657Y-11471718D01*
X2159208Y-11472000D01*
X2162873Y-11472986D01*
X2166538Y-11474396D01*
X2168371Y-11475242D01*
X2170204Y-11476229D01*
X2171895Y-11477497D01*
X2173446Y-11478907D01*
X2173587Y-11479048D01*
X2173869Y-11479189D01*
X2174151Y-11479753D01*
X2174715Y-11480317D01*
X2175420Y-11481022D01*
X2176124Y-11482009D01*
X2176829Y-11482995D01*
X2177675Y-11484264D01*
X2179085Y-11486942D01*
X2180494Y-11490326D01*
X2181058Y-11492017D01*
X2181340Y-11493991D01*
X2181622Y-11495965D01*
X2181763Y-11498079D01*
Y-11498361D01*
Y-11499066D01*
X2181622Y-11500194D01*
X2181481Y-11501744D01*
X2181199Y-11503436D01*
X2180635Y-11505410D01*
X2180072Y-11507524D01*
X2179226Y-11509639D01*
X2179085Y-11509921D01*
X2178803Y-11510625D01*
X2178239Y-11511753D01*
X2177393Y-11513304D01*
X2176265Y-11514996D01*
X2174856Y-11517110D01*
X2173164Y-11519225D01*
X2171190Y-11521621D01*
X2170909Y-11521903D01*
X2170204Y-11522749D01*
X2169499Y-11523454D01*
X2168794Y-11524159D01*
X2167948Y-11525004D01*
X2166820Y-11526132D01*
X2165693Y-11527260D01*
X2164283Y-11528529D01*
X2162873Y-11529938D01*
X2161182Y-11531489D01*
X2159349Y-11533040D01*
X2157375Y-11534872D01*
X2155120Y-11536705D01*
X2152864Y-11538678D01*
X2152723Y-11538819D01*
X2152441Y-11539101D01*
X2151878Y-11539524D01*
X2151173Y-11540088D01*
X2150327Y-11540934D01*
X2149340Y-11541780D01*
X2147085Y-11543612D01*
X2144688Y-11545727D01*
X2142433Y-11547842D01*
X2140459Y-11549674D01*
X2139613Y-11550379D01*
X2138908Y-11551084D01*
X2138767Y-11551225D01*
X2138344Y-11551648D01*
X2137781Y-11552212D01*
X2137076Y-11553057D01*
X2136371Y-11554044D01*
X2135525Y-11555031D01*
X2133833Y-11557427D01*
X2181904D01*
Y-11568987D01*
X2117199D01*
Y-11568846D01*
Y-11568282D01*
Y-11567436D01*
X2117340Y-11566309D01*
X2117481Y-11565040D01*
X2117763Y-11563630D01*
X2118045Y-11562220D01*
X2118609Y-11560670D01*
Y-11560529D01*
X2118750Y-11560388D01*
X2119032Y-11559542D01*
X2119595Y-11558273D01*
X2120441Y-11556582D01*
X2121569Y-11554608D01*
X2122979Y-11552353D01*
X2124529Y-11550097D01*
X2126503Y-11547701D01*
Y-11547560D01*
X2126785Y-11547419D01*
X2127490Y-11546573D01*
X2128759Y-11545304D01*
X2130591Y-11543471D01*
X2132706Y-11541357D01*
X2135384Y-11538819D01*
X2138626Y-11536000D01*
X2142151Y-11533040D01*
X2142292Y-11532899D01*
X2142856Y-11532476D01*
X2143701Y-11531771D01*
X2144688Y-11530925D01*
X2145957Y-11529797D01*
X2147508Y-11528529D01*
X2149058Y-11527119D01*
X2150891Y-11525568D01*
X2154415Y-11522185D01*
X2157939Y-11518802D01*
X2159631Y-11517110D01*
X2161182Y-11515418D01*
X2162591Y-11513868D01*
X2163719Y-11512317D01*
Y-11512176D01*
X2164001Y-11512035D01*
X2164283Y-11511612D01*
X2164565Y-11511048D01*
X2165552Y-11509498D01*
X2166679Y-11507665D01*
X2167666Y-11505410D01*
X2168653Y-11503013D01*
X2169217Y-11500335D01*
X2169499Y-11497797D01*
Y-11497656D01*
Y-11497515D01*
X2169358Y-11496669D01*
X2169217Y-11495260D01*
X2168794Y-11493709D01*
X2168230Y-11491735D01*
X2167243Y-11489762D01*
X2165975Y-11487788D01*
X2164283Y-11485815D01*
X2164001Y-11485533D01*
X2163296Y-11484969D01*
X2162309Y-11484264D01*
X2160759Y-11483277D01*
X2158785Y-11482431D01*
X2156530Y-11481586D01*
X2153851Y-11481022D01*
X2150891Y-11480881D01*
X2150045D01*
X2149481Y-11481022D01*
X2147789Y-11481163D01*
X2145816Y-11481586D01*
X2143701Y-11482150D01*
X2141305Y-11483136D01*
X2139049Y-11484405D01*
X2136935Y-11486097D01*
X2136653Y-11486379D01*
X2136089Y-11487083D01*
X2135243Y-11488211D01*
X2134397Y-11489903D01*
X2133411Y-11491876D01*
X2132565Y-11494414D01*
X2132001Y-11497233D01*
X2131719Y-11500476D01*
X2119454Y-11499207D01*
Y-11499066D01*
X2119595Y-11498643D01*
Y-11497938D01*
X2119736Y-11496951D01*
X2120018Y-11495824D01*
X2120300Y-11494555D01*
X2120723Y-11493004D01*
X2121146Y-11491454D01*
X2122274Y-11488070D01*
X2123966Y-11484687D01*
X2124952Y-11482995D01*
X2126221Y-11481304D01*
X2127490Y-11479753D01*
X2128899Y-11478343D01*
X2129040Y-11478202D01*
X2129322Y-11478061D01*
X2129745Y-11477638D01*
X2130450Y-11477216D01*
X2131296Y-11476652D01*
X2132283Y-11476088D01*
X2133411Y-11475383D01*
X2134820Y-11474678D01*
X2136371Y-11473973D01*
X2138063Y-11473268D01*
X2139895Y-11472705D01*
X2141869Y-11472141D01*
X2143983Y-11471718D01*
X2146239Y-11471295D01*
X2148635Y-11471154D01*
X2151173Y-11471013D01*
X2152582D01*
X2153569Y-11471154D01*
D02*
G37*
G36*
X2065463Y-11471577D02*
X2068282Y-11471718D01*
X2071102Y-11472000D01*
X2073921Y-11472423D01*
X2076318Y-11472845D01*
X2076459D01*
X2076741Y-11472986D01*
X2077163D01*
X2077727Y-11473268D01*
X2079278Y-11473691D01*
X2081252Y-11474396D01*
X2083507Y-11475383D01*
X2085904Y-11476652D01*
X2088300Y-11478061D01*
X2090556Y-11479894D01*
X2090697Y-11480035D01*
X2090838Y-11480176D01*
X2091260Y-11480599D01*
X2091824Y-11481022D01*
X2093234Y-11482431D01*
X2094926Y-11484405D01*
X2096758Y-11486802D01*
X2098732Y-11489621D01*
X2100565Y-11492863D01*
X2102115Y-11496528D01*
Y-11496669D01*
X2102256Y-11496951D01*
X2102538Y-11497515D01*
X2102679Y-11498361D01*
X2103102Y-11499348D01*
X2103384Y-11500476D01*
X2103666Y-11501744D01*
X2104089Y-11503295D01*
X2104512Y-11504846D01*
X2104794Y-11506678D01*
X2105498Y-11510625D01*
X2105921Y-11514996D01*
X2106062Y-11519788D01*
Y-11519929D01*
Y-11520211D01*
Y-11520916D01*
Y-11521621D01*
X2105921Y-11522608D01*
Y-11523736D01*
X2105780Y-11526414D01*
X2105357Y-11529515D01*
X2104935Y-11532758D01*
X2104230Y-11536141D01*
X2103384Y-11539524D01*
Y-11539665D01*
X2103243Y-11539947D01*
X2103102Y-11540370D01*
X2102961Y-11540934D01*
X2102397Y-11542485D01*
X2101551Y-11544458D01*
X2100705Y-11546714D01*
X2099578Y-11548969D01*
X2098168Y-11551366D01*
X2096758Y-11553621D01*
X2096617Y-11553903D01*
X2096053Y-11554608D01*
X2095208Y-11555595D01*
X2094080Y-11556864D01*
X2092811Y-11558273D01*
X2091260Y-11559683D01*
X2089710Y-11561234D01*
X2087877Y-11562502D01*
X2087595Y-11562643D01*
X2087031Y-11563066D01*
X2086045Y-11563630D01*
X2084635Y-11564335D01*
X2082943Y-11565181D01*
X2080970Y-11565886D01*
X2078714Y-11566732D01*
X2076177Y-11567436D01*
X2075895D01*
X2075472Y-11567577D01*
X2075049Y-11567718D01*
X2073639Y-11567859D01*
X2071666Y-11568141D01*
X2069410Y-11568423D01*
X2066732Y-11568705D01*
X2063771Y-11568846D01*
X2060529Y-11568987D01*
X2025427D01*
Y-11471436D01*
X2062926D01*
X2065463Y-11471577D01*
D02*
G37*
G36*
X2005269Y-11482995D02*
X1947612D01*
Y-11512740D01*
X2001604D01*
Y-11524300D01*
X1947612D01*
Y-11557427D01*
X2007524D01*
Y-11568987D01*
X1934643D01*
Y-11471436D01*
X2005269D01*
Y-11482995D01*
D02*
G37*
G36*
X1871065Y-11557427D02*
X1919136D01*
Y-11568987D01*
X1858096D01*
Y-11471436D01*
X1871065D01*
Y-11557427D01*
D02*
G37*
G36*
X1492953Y-11568987D02*
X1480970D01*
Y-11492722D01*
X1480829Y-11492863D01*
X1480124Y-11493427D01*
X1479278Y-11494273D01*
X1477869Y-11495260D01*
X1476318Y-11496528D01*
X1474345Y-11497938D01*
X1472089Y-11499489D01*
X1469552Y-11501039D01*
X1469411D01*
X1469270Y-11501180D01*
X1468424Y-11501744D01*
X1467014Y-11502449D01*
X1465322Y-11503295D01*
X1463349Y-11504282D01*
X1461234Y-11505269D01*
X1459120Y-11506255D01*
X1457005Y-11507101D01*
Y-11495542D01*
X1457146D01*
X1457428Y-11495260D01*
X1457992Y-11495119D01*
X1458697Y-11494696D01*
X1459543Y-11494273D01*
X1460529Y-11493709D01*
X1462926Y-11492299D01*
X1465745Y-11490749D01*
X1468565Y-11488775D01*
X1471525Y-11486520D01*
X1474485Y-11484123D01*
X1474626Y-11483982D01*
X1474767Y-11483841D01*
X1475190Y-11483418D01*
X1475754Y-11482995D01*
X1477023Y-11481586D01*
X1478715Y-11479894D01*
X1480406Y-11477920D01*
X1482239Y-11475665D01*
X1483790Y-11473409D01*
X1485199Y-11471013D01*
X1492953D01*
Y-11568987D01*
D02*
G37*
G36*
X1394415Y-11471577D02*
X1397234Y-11471718D01*
X1400053Y-11472000D01*
X1402873Y-11472423D01*
X1405269Y-11472845D01*
X1405410D01*
X1405692Y-11472986D01*
X1406115D01*
X1406679Y-11473268D01*
X1408230Y-11473691D01*
X1410203Y-11474396D01*
X1412459Y-11475383D01*
X1414855Y-11476652D01*
X1417252Y-11478061D01*
X1419507Y-11479894D01*
X1419648Y-11480035D01*
X1419789Y-11480176D01*
X1420212Y-11480599D01*
X1420776Y-11481022D01*
X1422186Y-11482431D01*
X1423877Y-11484405D01*
X1425710Y-11486802D01*
X1427683Y-11489621D01*
X1429516Y-11492863D01*
X1431067Y-11496528D01*
Y-11496669D01*
X1431208Y-11496951D01*
X1431490Y-11497515D01*
X1431631Y-11498361D01*
X1432054Y-11499348D01*
X1432335Y-11500476D01*
X1432617Y-11501744D01*
X1433040Y-11503295D01*
X1433463Y-11504846D01*
X1433745Y-11506678D01*
X1434450Y-11510625D01*
X1434873Y-11514996D01*
X1435014Y-11519788D01*
Y-11519929D01*
Y-11520211D01*
Y-11520916D01*
Y-11521621D01*
X1434873Y-11522608D01*
Y-11523736D01*
X1434732Y-11526414D01*
X1434309Y-11529515D01*
X1433886Y-11532758D01*
X1433181Y-11536141D01*
X1432335Y-11539524D01*
Y-11539665D01*
X1432194Y-11539947D01*
X1432054Y-11540370D01*
X1431913Y-11540934D01*
X1431349Y-11542485D01*
X1430503Y-11544458D01*
X1429657Y-11546714D01*
X1428529Y-11548969D01*
X1427120Y-11551366D01*
X1425710Y-11553621D01*
X1425569Y-11553903D01*
X1425005Y-11554608D01*
X1424159Y-11555595D01*
X1423031Y-11556864D01*
X1421763Y-11558273D01*
X1420212Y-11559683D01*
X1418661Y-11561234D01*
X1416829Y-11562502D01*
X1416547Y-11562643D01*
X1415983Y-11563066D01*
X1414996Y-11563630D01*
X1413586Y-11564335D01*
X1411895Y-11565181D01*
X1409921Y-11565886D01*
X1407666Y-11566732D01*
X1405128Y-11567436D01*
X1404846D01*
X1404423Y-11567577D01*
X1404000Y-11567718D01*
X1402591Y-11567859D01*
X1400617Y-11568141D01*
X1398362Y-11568423D01*
X1395683Y-11568705D01*
X1392723Y-11568846D01*
X1389481Y-11568987D01*
X1354379D01*
Y-11471436D01*
X1391877D01*
X1394415Y-11471577D01*
D02*
G37*
G36*
X1334220Y-11482995D02*
X1276564D01*
Y-11512740D01*
X1330555D01*
Y-11524300D01*
X1276564D01*
Y-11557427D01*
X1336476D01*
Y-11568987D01*
X1263594D01*
Y-11471436D01*
X1334220D01*
Y-11482995D01*
D02*
G37*
G36*
X1200017Y-11557427D02*
X1248088D01*
Y-11568987D01*
X1187048D01*
Y-11471436D01*
X1200017D01*
Y-11557427D01*
D02*
G37*
G36*
X940233Y-11621500D02*
X942176D01*
X947451Y-11622055D01*
X953281Y-11622888D01*
X959389Y-11624276D01*
X966052Y-11625942D01*
X972159Y-11628163D01*
X972437D01*
X972992Y-11628441D01*
X973825Y-11628996D01*
X974936Y-11629551D01*
X977712Y-11630939D01*
X981321Y-11633438D01*
X985485Y-11636214D01*
X989650Y-11639823D01*
X993536Y-11643988D01*
X997145Y-11648707D01*
Y-11648985D01*
X997423Y-11649262D01*
X997978Y-11650095D01*
X998533Y-11650928D01*
X999922Y-11653704D01*
X1001587Y-11657313D01*
X1003531Y-11661755D01*
X1004919Y-11667030D01*
X1006307Y-11672583D01*
X1006862Y-11678690D01*
X982431Y-11680634D01*
Y-11680356D01*
Y-11679801D01*
X982154Y-11678968D01*
X981876Y-11677580D01*
X981043Y-11674526D01*
X979933Y-11670362D01*
X978267Y-11665920D01*
X975768Y-11661478D01*
X972715Y-11657313D01*
X968828Y-11653427D01*
X968273Y-11653149D01*
X966885Y-11652039D01*
X964108Y-11650373D01*
X960499Y-11648707D01*
X955780Y-11647041D01*
X950227Y-11645376D01*
X943287Y-11644265D01*
X935513Y-11643988D01*
X931627D01*
X929961Y-11644265D01*
X927740Y-11644543D01*
X922743Y-11645098D01*
X917190Y-11646209D01*
X911638Y-11647597D01*
X906363Y-11649818D01*
X904142Y-11651206D01*
X901921Y-11652594D01*
X901366Y-11652872D01*
X900255Y-11653982D01*
X898590Y-11655925D01*
X896924Y-11658146D01*
X894980Y-11661200D01*
X893315Y-11664532D01*
X892204Y-11668418D01*
X891649Y-11672860D01*
Y-11673416D01*
Y-11674526D01*
X891927Y-11676469D01*
X892482Y-11678690D01*
X893315Y-11681467D01*
X894703Y-11684243D01*
X896369Y-11687019D01*
X898867Y-11689795D01*
X899145Y-11690073D01*
X900533Y-11690906D01*
X901643Y-11691739D01*
X902754Y-11692294D01*
X904420Y-11693127D01*
X906363Y-11694237D01*
X908862Y-11695070D01*
X911638Y-11696181D01*
X914692Y-11697291D01*
X918301Y-11698679D01*
X922187Y-11699790D01*
X926629Y-11701178D01*
X931627Y-11702288D01*
X937179Y-11703676D01*
X937457D01*
X938567Y-11703954D01*
X940233Y-11704232D01*
X942176Y-11704787D01*
X944675Y-11705342D01*
X947729Y-11706175D01*
X950782Y-11707008D01*
X954114Y-11707841D01*
X961332Y-11709784D01*
X968273Y-11711727D01*
X971604Y-11712838D01*
X974658Y-11713948D01*
X977434Y-11714781D01*
X979655Y-11715892D01*
X979933D01*
X980488Y-11716169D01*
X981321Y-11716725D01*
X982431Y-11717280D01*
X985485Y-11718946D01*
X989094Y-11721167D01*
X993259Y-11724220D01*
X997423Y-11727552D01*
X1001310Y-11731439D01*
X1004641Y-11735603D01*
X1004919Y-11736158D01*
X1006029Y-11737546D01*
X1007140Y-11740045D01*
X1008805Y-11743376D01*
X1010194Y-11747263D01*
X1011582Y-11751983D01*
X1012415Y-11757257D01*
X1012692Y-11762810D01*
Y-11763087D01*
Y-11763365D01*
Y-11764198D01*
Y-11765308D01*
X1012137Y-11768362D01*
X1011582Y-11772249D01*
X1010471Y-11776691D01*
X1009083Y-11781411D01*
X1006862Y-11786408D01*
X1003808Y-11791683D01*
Y-11791960D01*
X1003531Y-11792238D01*
X1002143Y-11793904D01*
X1000199Y-11796402D01*
X997423Y-11799178D01*
X993814Y-11802510D01*
X989372Y-11806119D01*
X984375Y-11809450D01*
X978545Y-11812504D01*
X978267D01*
X977712Y-11812782D01*
X976879Y-11813059D01*
X975768Y-11813615D01*
X974103Y-11814170D01*
X972159Y-11815003D01*
X967717Y-11816113D01*
X962443Y-11817501D01*
X956057Y-11818889D01*
X949117Y-11819722D01*
X941621Y-11820000D01*
X937179D01*
X934958Y-11819722D01*
X932459D01*
X929683Y-11819445D01*
X926352Y-11819167D01*
X919411Y-11818057D01*
X912193Y-11816946D01*
X904975Y-11815003D01*
X898034Y-11812504D01*
X897757D01*
X897201Y-11812227D01*
X896369Y-11811671D01*
X895258Y-11811116D01*
X891927Y-11809450D01*
X888040Y-11806952D01*
X883598Y-11803620D01*
X878878Y-11799734D01*
X874436Y-11795014D01*
X870272Y-11789739D01*
Y-11789462D01*
X869717Y-11788906D01*
X869439Y-11788073D01*
X868606Y-11786963D01*
X868051Y-11785575D01*
X867218Y-11783909D01*
X865275Y-11779745D01*
X863332Y-11774470D01*
X861666Y-11768640D01*
X860555Y-11761977D01*
X860000Y-11755036D01*
X883876Y-11752815D01*
Y-11753093D01*
Y-11753371D01*
X884153Y-11754204D01*
Y-11755314D01*
X884708Y-11757813D01*
X885541Y-11761422D01*
X886652Y-11765031D01*
X887762Y-11769195D01*
X889706Y-11773082D01*
X891649Y-11776691D01*
X891927Y-11776969D01*
X892759Y-11778079D01*
X894148Y-11780022D01*
X896369Y-11781966D01*
X899145Y-11784464D01*
X902199Y-11786963D01*
X906363Y-11789462D01*
X910805Y-11791683D01*
X911083D01*
X911360Y-11791960D01*
X912193Y-11792238D01*
X913026Y-11792515D01*
X915802Y-11793348D01*
X919411Y-11794459D01*
X923853Y-11795569D01*
X928850Y-11796402D01*
X934403Y-11796957D01*
X940510Y-11797235D01*
X943009D01*
X945785Y-11796957D01*
X949117Y-11796680D01*
X953003Y-11796124D01*
X957445Y-11795569D01*
X961887Y-11794459D01*
X966052Y-11793071D01*
X966607Y-11792793D01*
X967995Y-11792238D01*
X969938Y-11791127D01*
X972437Y-11790017D01*
X974936Y-11788073D01*
X977712Y-11786130D01*
X980488Y-11783909D01*
X982709Y-11781133D01*
X982987Y-11780855D01*
X983542Y-11779745D01*
X984375Y-11778357D01*
X985485Y-11776136D01*
X986596Y-11773915D01*
X987429Y-11771139D01*
X987984Y-11768085D01*
X988261Y-11764753D01*
Y-11764476D01*
Y-11763087D01*
X987984Y-11761422D01*
X987706Y-11759201D01*
X986873Y-11756980D01*
X986040Y-11754204D01*
X984652Y-11751427D01*
X982709Y-11748929D01*
X982431Y-11748651D01*
X981598Y-11747818D01*
X980488Y-11746708D01*
X978545Y-11745042D01*
X976324Y-11743376D01*
X973270Y-11741433D01*
X969661Y-11739490D01*
X965496Y-11737824D01*
X965219Y-11737546D01*
X963831Y-11737269D01*
X961610Y-11736436D01*
X960222Y-11736158D01*
X958278Y-11735603D01*
X956335Y-11734770D01*
X953836Y-11734215D01*
X951060Y-11733382D01*
X947729Y-11732549D01*
X944397Y-11731716D01*
X940510Y-11730606D01*
X936068Y-11729495D01*
X931349Y-11728385D01*
X931071D01*
X930238Y-11728107D01*
X928850Y-11727829D01*
X927185Y-11727274D01*
X924964Y-11726719D01*
X922465Y-11726164D01*
X916913Y-11724498D01*
X910805Y-11722555D01*
X904420Y-11720611D01*
X898867Y-11718668D01*
X896369Y-11717557D01*
X894148Y-11716447D01*
X893870D01*
X893592Y-11716169D01*
X891927Y-11715059D01*
X889428Y-11713671D01*
X886652Y-11711450D01*
X883320Y-11708951D01*
X879989Y-11705897D01*
X876657Y-11702288D01*
X873881Y-11698402D01*
X873604Y-11697846D01*
X872771Y-11696458D01*
X871660Y-11694237D01*
X870550Y-11691461D01*
X869439Y-11687852D01*
X868329Y-11683688D01*
X867496Y-11679246D01*
X867218Y-11674526D01*
Y-11674248D01*
Y-11673971D01*
Y-11673138D01*
Y-11672027D01*
X867773Y-11669251D01*
X868329Y-11665642D01*
X869162Y-11661478D01*
X870550Y-11656758D01*
X872493Y-11652039D01*
X875269Y-11647319D01*
Y-11647041D01*
X875547Y-11646764D01*
X876935Y-11645098D01*
X878878Y-11642877D01*
X881377Y-11640101D01*
X884708Y-11637047D01*
X888873Y-11633716D01*
X893870Y-11630662D01*
X899422Y-11627886D01*
X899700D01*
X900255Y-11627608D01*
X901088Y-11627330D01*
X902199Y-11626775D01*
X903587Y-11626220D01*
X905530Y-11625665D01*
X909694Y-11624554D01*
X914969Y-11623444D01*
X921077Y-11622333D01*
X927462Y-11621500D01*
X934680Y-11621223D01*
X938289D01*
X940233Y-11621500D01*
D02*
G37*
G36*
X1598197D02*
X1600696Y-11621778D01*
X1603749Y-11622055D01*
X1606803Y-11622333D01*
X1610412Y-11623166D01*
X1617908Y-11624832D01*
X1626237Y-11627330D01*
X1630401Y-11628996D01*
X1634288Y-11630939D01*
X1638175Y-11633438D01*
X1642061Y-11635937D01*
X1642339Y-11636214D01*
X1642894Y-11636492D01*
X1644005Y-11637325D01*
X1645393Y-11638713D01*
X1646781Y-11640101D01*
X1648724Y-11642044D01*
X1650668Y-11644265D01*
X1652888Y-11646486D01*
X1655109Y-11649262D01*
X1657330Y-11652594D01*
X1659829Y-11655925D01*
X1662050Y-11659534D01*
X1663993Y-11663699D01*
X1666214Y-11667863D01*
X1667880Y-11672305D01*
X1669546Y-11677302D01*
X1644560Y-11683132D01*
Y-11682855D01*
X1644282Y-11682299D01*
X1643727Y-11681189D01*
X1643172Y-11679801D01*
X1642616Y-11678135D01*
X1641784Y-11675914D01*
X1639563Y-11671472D01*
X1636786Y-11666475D01*
X1633455Y-11661478D01*
X1629291Y-11656758D01*
X1624849Y-11652594D01*
X1624293Y-11652039D01*
X1622628Y-11650928D01*
X1619851Y-11649540D01*
X1616242Y-11647597D01*
X1611523Y-11645931D01*
X1606248Y-11644265D01*
X1599863Y-11643155D01*
X1592922Y-11642877D01*
X1590701D01*
X1589313Y-11643155D01*
X1587370D01*
X1585149Y-11643432D01*
X1579874Y-11644265D01*
X1574044Y-11645376D01*
X1567936Y-11647319D01*
X1561551Y-11650095D01*
X1555721Y-11653704D01*
X1555443D01*
X1555166Y-11654260D01*
X1553222Y-11655648D01*
X1550724Y-11657869D01*
X1547670Y-11661200D01*
X1544061Y-11665365D01*
X1540729Y-11670084D01*
X1537675Y-11675914D01*
X1534899Y-11682299D01*
Y-11682577D01*
X1534622Y-11683132D01*
X1534344Y-11683965D01*
X1534066Y-11685353D01*
X1533511Y-11687019D01*
X1532956Y-11688962D01*
X1532123Y-11693682D01*
X1531012Y-11699234D01*
X1529902Y-11705342D01*
X1529347Y-11712005D01*
X1529069Y-11719223D01*
Y-11719501D01*
Y-11720334D01*
Y-11721722D01*
Y-11723388D01*
X1529347Y-11725331D01*
Y-11727829D01*
X1529624Y-11730606D01*
X1529902Y-11733660D01*
X1530735Y-11740322D01*
X1532123Y-11747541D01*
X1533789Y-11754759D01*
X1536010Y-11761977D01*
Y-11762255D01*
X1536287Y-11762810D01*
X1536842Y-11763643D01*
X1537398Y-11765031D01*
X1539063Y-11768362D01*
X1541562Y-11772249D01*
X1544616Y-11776691D01*
X1548503Y-11781411D01*
X1552945Y-11785575D01*
X1558219Y-11789462D01*
X1558497D01*
X1559052Y-11789739D01*
X1559885Y-11790294D01*
X1560996Y-11790850D01*
X1562384Y-11791405D01*
X1564049Y-11792238D01*
X1567936Y-11793904D01*
X1572933Y-11795569D01*
X1578486Y-11796957D01*
X1584593Y-11798068D01*
X1590979Y-11798345D01*
X1592922D01*
X1594588Y-11798068D01*
X1596531D01*
X1598475Y-11797790D01*
X1603472Y-11796680D01*
X1609302Y-11795292D01*
X1615132Y-11793071D01*
X1621240Y-11790017D01*
X1624293Y-11788351D01*
X1627070Y-11786130D01*
X1627347Y-11785852D01*
X1627625Y-11785575D01*
X1628458Y-11784742D01*
X1629568Y-11783909D01*
X1630679Y-11782521D01*
X1632067Y-11780855D01*
X1633733Y-11779190D01*
X1635121Y-11776969D01*
X1636786Y-11774470D01*
X1638730Y-11771694D01*
X1640395Y-11768918D01*
X1642061Y-11765586D01*
X1643449Y-11761977D01*
X1644837Y-11758090D01*
X1646226Y-11753926D01*
X1647336Y-11749484D01*
X1672877Y-11755869D01*
Y-11756147D01*
X1672600Y-11757257D01*
X1672044Y-11758923D01*
X1671212Y-11761144D01*
X1670379Y-11763643D01*
X1669268Y-11766697D01*
X1667880Y-11770028D01*
X1666214Y-11773637D01*
X1662328Y-11781411D01*
X1657330Y-11789184D01*
X1654277Y-11793071D01*
X1651223Y-11796957D01*
X1647891Y-11800289D01*
X1644005Y-11803620D01*
X1643727Y-11803898D01*
X1643172Y-11804453D01*
X1641784Y-11805008D01*
X1640395Y-11806119D01*
X1638175Y-11807507D01*
X1635954Y-11808895D01*
X1632900Y-11810283D01*
X1629846Y-11811671D01*
X1626237Y-11813337D01*
X1622350Y-11814725D01*
X1618186Y-11816113D01*
X1613744Y-11817501D01*
X1609024Y-11818612D01*
X1604027Y-11819167D01*
X1598752Y-11819722D01*
X1593200Y-11820000D01*
X1590146D01*
X1587925Y-11819722D01*
X1585426D01*
X1582373Y-11819445D01*
X1579041Y-11818889D01*
X1575154Y-11818334D01*
X1567103Y-11816946D01*
X1558775Y-11814725D01*
X1550446Y-11811671D01*
X1546559Y-11809728D01*
X1542673Y-11807507D01*
X1542395Y-11807229D01*
X1541840Y-11806952D01*
X1540729Y-11806119D01*
X1539619Y-11805008D01*
X1537953Y-11803898D01*
X1536010Y-11802232D01*
X1533789Y-11800289D01*
X1531568Y-11798068D01*
X1529347Y-11795569D01*
X1526848Y-11793071D01*
X1521851Y-11786685D01*
X1517131Y-11779190D01*
X1512967Y-11770861D01*
Y-11770583D01*
X1512412Y-11769750D01*
X1512134Y-11768362D01*
X1511301Y-11766697D01*
X1510746Y-11764476D01*
X1509913Y-11761699D01*
X1508803Y-11758646D01*
X1507970Y-11755314D01*
X1507137Y-11751705D01*
X1506026Y-11747541D01*
X1504638Y-11738934D01*
X1503528Y-11729218D01*
X1502973Y-11719223D01*
Y-11718946D01*
Y-11717835D01*
Y-11716169D01*
X1503250Y-11714226D01*
Y-11711450D01*
X1503528Y-11708674D01*
X1503805Y-11705064D01*
X1504361Y-11701455D01*
X1505749Y-11693404D01*
X1507692Y-11684520D01*
X1510468Y-11675637D01*
X1514355Y-11667030D01*
X1514633Y-11666753D01*
X1514910Y-11665920D01*
X1515466Y-11664809D01*
X1516576Y-11663421D01*
X1517687Y-11661478D01*
X1519075Y-11659257D01*
X1522684Y-11654260D01*
X1527403Y-11648707D01*
X1532956Y-11643155D01*
X1539341Y-11637602D01*
X1546837Y-11632883D01*
X1547115Y-11632605D01*
X1547947Y-11632328D01*
X1549058Y-11631772D01*
X1550446Y-11630939D01*
X1552667Y-11630107D01*
X1554888Y-11629274D01*
X1557664Y-11628163D01*
X1560718Y-11627053D01*
X1564049Y-11625942D01*
X1567659Y-11624832D01*
X1575432Y-11623166D01*
X1584316Y-11621778D01*
X1593477Y-11621223D01*
X1596254D01*
X1598197Y-11621500D01*
D02*
G37*
G36*
X2760600Y-11674526D02*
X2762544D01*
X2764487Y-11674804D01*
X2769207Y-11675637D01*
X2774204Y-11677025D01*
X2779479Y-11679246D01*
X2784753Y-11682022D01*
X2789195Y-11685909D01*
X2789751Y-11686464D01*
X2790861Y-11688130D01*
X2792804Y-11690628D01*
X2793637Y-11692571D01*
X2794748Y-11694515D01*
X2795858Y-11697013D01*
X2796691Y-11699512D01*
X2797802Y-11702288D01*
X2798634Y-11705620D01*
X2799190Y-11708951D01*
X2799745Y-11712838D01*
X2800300Y-11716725D01*
Y-11721167D01*
Y-11816669D01*
X2776702D01*
Y-11729218D01*
Y-11728940D01*
Y-11728662D01*
Y-11726997D01*
Y-11724498D01*
X2776425Y-11721444D01*
X2776147Y-11718113D01*
X2775869Y-11714781D01*
X2775314Y-11711450D01*
X2774481Y-11708951D01*
Y-11708674D01*
X2773926Y-11707841D01*
X2773371Y-11706730D01*
X2772538Y-11705342D01*
X2771428Y-11703676D01*
X2770039Y-11702011D01*
X2768374Y-11700345D01*
X2766153Y-11698679D01*
X2765875Y-11698402D01*
X2765042Y-11698124D01*
X2763932Y-11697569D01*
X2761988Y-11696736D01*
X2760045Y-11695903D01*
X2757546Y-11695348D01*
X2755048Y-11695070D01*
X2751994Y-11694792D01*
X2750606D01*
X2749495Y-11695070D01*
X2746719Y-11695348D01*
X2743388Y-11695903D01*
X2739501Y-11697291D01*
X2735337Y-11698957D01*
X2731172Y-11701455D01*
X2727286Y-11704787D01*
X2727008Y-11705342D01*
X2725898Y-11706730D01*
X2724232Y-11708951D01*
X2722566Y-11712283D01*
X2720623Y-11716725D01*
X2719235Y-11721999D01*
X2718124Y-11728385D01*
X2717569Y-11735881D01*
Y-11816669D01*
X2693971D01*
Y-11726441D01*
Y-11726164D01*
Y-11725609D01*
Y-11725053D01*
Y-11723943D01*
X2693693Y-11720889D01*
X2693138Y-11717557D01*
X2692583Y-11713671D01*
X2691472Y-11709784D01*
X2690084Y-11706175D01*
X2688141Y-11702843D01*
X2687863Y-11702566D01*
X2687030Y-11701455D01*
X2685642Y-11700345D01*
X2683699Y-11698679D01*
X2681200Y-11697291D01*
X2677869Y-11695903D01*
X2673982Y-11695070D01*
X2669263Y-11694792D01*
X2667597D01*
X2665654Y-11695070D01*
X2663433Y-11695348D01*
X2660656Y-11696181D01*
X2657325Y-11697013D01*
X2654271Y-11698402D01*
X2650940Y-11700067D01*
X2650662Y-11700345D01*
X2649551Y-11701178D01*
X2648163Y-11702288D01*
X2646220Y-11703954D01*
X2644277Y-11706175D01*
X2642333Y-11708951D01*
X2640390Y-11712005D01*
X2638724Y-11715614D01*
X2638447Y-11716169D01*
X2638169Y-11717557D01*
X2637614Y-11719778D01*
X2636781Y-11722832D01*
X2635948Y-11726997D01*
X2635393Y-11731994D01*
X2635115Y-11737824D01*
X2634838Y-11744487D01*
Y-11816669D01*
X2611240D01*
Y-11677302D01*
X2632339D01*
Y-11697291D01*
X2632617Y-11696736D01*
X2633449Y-11695625D01*
X2635115Y-11693682D01*
X2637058Y-11691461D01*
X2639557Y-11688685D01*
X2642611Y-11685909D01*
X2645942Y-11683132D01*
X2649829Y-11680634D01*
X2650384Y-11680356D01*
X2651772Y-11679523D01*
X2653993Y-11678690D01*
X2657047Y-11677302D01*
X2660656Y-11676192D01*
X2664821Y-11675359D01*
X2669540Y-11674526D01*
X2674537Y-11674248D01*
X2677036D01*
X2680090Y-11674526D01*
X2683421Y-11675081D01*
X2687586Y-11675914D01*
X2691750Y-11677025D01*
X2695914Y-11678690D01*
X2699801Y-11680911D01*
X2700356Y-11681189D01*
X2701467Y-11682022D01*
X2703133Y-11683410D01*
X2705353Y-11685631D01*
X2707574Y-11688130D01*
X2710073Y-11691183D01*
X2712294Y-11694792D01*
X2713960Y-11698957D01*
X2714237Y-11698679D01*
X2714793Y-11697846D01*
X2715626Y-11696736D01*
X2717014Y-11695070D01*
X2718679Y-11693127D01*
X2720623Y-11691183D01*
X2722844Y-11688962D01*
X2725620Y-11686464D01*
X2728674Y-11684243D01*
X2731728Y-11682022D01*
X2735337Y-11680078D01*
X2739223Y-11678135D01*
X2743388Y-11676469D01*
X2747830Y-11675359D01*
X2752272Y-11674526D01*
X2757269Y-11674248D01*
X2759212D01*
X2760600Y-11674526D01*
D02*
G37*
G36*
X1970488D02*
X1972154D01*
X1974375Y-11674804D01*
X1979650Y-11675637D01*
X1985480Y-11677025D01*
X1991587Y-11679246D01*
X1997695Y-11682022D01*
X2003525Y-11685909D01*
X2003803D01*
X2004080Y-11686464D01*
X2005746Y-11688130D01*
X2008245Y-11690628D01*
X2011298Y-11694237D01*
X2014352Y-11698679D01*
X2017406Y-11704232D01*
X2020182Y-11710617D01*
X2022126Y-11718113D01*
X1999083Y-11721722D01*
Y-11721444D01*
X1998806Y-11721167D01*
X1998528Y-11719501D01*
X1997695Y-11717002D01*
X1996307Y-11713948D01*
X1994919Y-11710617D01*
X1992698Y-11707008D01*
X1990199Y-11703676D01*
X1987423Y-11700900D01*
X1987145Y-11700623D01*
X1986035Y-11699790D01*
X1984092Y-11698679D01*
X1981871Y-11697291D01*
X1978817Y-11695903D01*
X1975485Y-11694792D01*
X1971599Y-11693960D01*
X1967434Y-11693682D01*
X1965768D01*
X1964380Y-11693960D01*
X1961327Y-11694237D01*
X1957162Y-11695348D01*
X1952720Y-11696736D01*
X1947723Y-11698957D01*
X1943003Y-11702288D01*
X1940783Y-11704232D01*
X1938562Y-11706453D01*
Y-11706730D01*
X1938006Y-11707008D01*
X1937451Y-11707841D01*
X1936896Y-11708951D01*
X1936063Y-11710339D01*
X1934952Y-11712005D01*
X1934120Y-11713948D01*
X1933009Y-11716169D01*
X1931899Y-11718946D01*
X1931066Y-11721999D01*
X1929955Y-11725331D01*
X1929122Y-11728940D01*
X1928567Y-11732827D01*
X1928012Y-11737269D01*
X1927457Y-11741988D01*
Y-11746985D01*
Y-11747263D01*
Y-11748096D01*
Y-11749762D01*
X1927734Y-11751427D01*
Y-11753926D01*
X1928012Y-11756425D01*
X1928845Y-11762532D01*
X1929955Y-11769195D01*
X1931899Y-11776136D01*
X1934397Y-11782243D01*
X1936063Y-11785297D01*
X1938006Y-11787796D01*
X1938562Y-11788351D01*
X1939950Y-11789739D01*
X1942448Y-11791683D01*
X1945502Y-11793904D01*
X1949666Y-11796402D01*
X1954386Y-11798345D01*
X1959938Y-11799734D01*
X1962992Y-11800011D01*
X1966046Y-11800289D01*
X1966601D01*
X1968267Y-11800011D01*
X1971043Y-11799734D01*
X1974097Y-11799178D01*
X1977706Y-11798345D01*
X1981593Y-11796680D01*
X1985480Y-11794736D01*
X1989089Y-11791960D01*
X1989644Y-11791683D01*
X1990477Y-11790294D01*
X1992143Y-11788351D01*
X1994086Y-11785297D01*
X1996029Y-11781688D01*
X1998250Y-11777246D01*
X1999916Y-11771694D01*
X2001026Y-11765586D01*
X2024347Y-11768640D01*
Y-11768918D01*
X2024069Y-11769750D01*
X2023791Y-11770861D01*
X2023514Y-11772527D01*
X2022959Y-11774748D01*
X2022403Y-11776969D01*
X2020460Y-11782521D01*
X2017961Y-11788351D01*
X2014352Y-11794736D01*
X2009910Y-11800844D01*
X2007412Y-11803620D01*
X2004636Y-11806397D01*
X2004358Y-11806674D01*
X2003803Y-11806952D01*
X2002970Y-11807507D01*
X2001859Y-11808340D01*
X2000471Y-11809450D01*
X1998528Y-11810561D01*
X1996307Y-11811671D01*
X1994086Y-11813059D01*
X1988533Y-11815558D01*
X1981871Y-11817501D01*
X1974652Y-11819167D01*
X1970488Y-11819445D01*
X1966324Y-11819722D01*
X1963548D01*
X1961604Y-11819445D01*
X1959106Y-11819167D01*
X1956329Y-11818612D01*
X1953275Y-11818057D01*
X1949944Y-11817501D01*
X1942448Y-11815280D01*
X1938839Y-11813615D01*
X1934952Y-11811949D01*
X1931066Y-11809728D01*
X1927457Y-11807229D01*
X1923848Y-11804453D01*
X1920516Y-11801122D01*
X1920238Y-11800844D01*
X1919683Y-11800289D01*
X1918850Y-11799178D01*
X1917740Y-11797790D01*
X1916629Y-11795847D01*
X1914964Y-11793348D01*
X1913576Y-11790572D01*
X1911910Y-11787518D01*
X1910244Y-11783909D01*
X1908856Y-11779745D01*
X1907190Y-11775580D01*
X1906080Y-11770583D01*
X1904969Y-11765586D01*
X1904136Y-11759756D01*
X1903581Y-11753926D01*
X1903304Y-11747541D01*
Y-11747263D01*
Y-11746430D01*
Y-11745320D01*
Y-11743654D01*
X1903581Y-11741711D01*
Y-11739490D01*
X1903859Y-11736991D01*
X1904136Y-11734215D01*
X1904969Y-11728107D01*
X1906357Y-11721444D01*
X1908023Y-11714781D01*
X1910522Y-11708118D01*
Y-11707841D01*
X1910799Y-11707285D01*
X1911355Y-11706453D01*
X1911910Y-11705342D01*
X1913576Y-11702288D01*
X1916074Y-11698679D01*
X1919406Y-11694515D01*
X1923292Y-11690351D01*
X1928012Y-11686186D01*
X1933287Y-11682855D01*
X1933564D01*
X1934120Y-11682577D01*
X1934952Y-11682022D01*
X1936063Y-11681467D01*
X1937451Y-11680911D01*
X1939117Y-11680078D01*
X1943281Y-11678413D01*
X1948001Y-11677025D01*
X1953831Y-11675637D01*
X1959938Y-11674526D01*
X1966601Y-11674248D01*
X1968822D01*
X1970488Y-11674526D01*
D02*
G37*
G36*
X2242558Y-11758923D02*
X2169543D01*
Y-11735325D01*
X2242558D01*
Y-11758923D01*
D02*
G37*
G36*
X1481596D02*
X1408581D01*
Y-11735325D01*
X1481596D01*
Y-11758923D01*
D02*
G37*
G36*
X2363046Y-11624832D02*
X2365544D01*
X2371374Y-11625109D01*
X2377482Y-11625942D01*
X2384145Y-11626775D01*
X2390253Y-11628163D01*
X2393306Y-11628996D01*
X2395805Y-11629829D01*
X2396083D01*
X2396360Y-11630107D01*
X2398026Y-11630939D01*
X2400525Y-11632050D01*
X2403578Y-11633993D01*
X2406910Y-11636492D01*
X2410519Y-11639823D01*
X2413850Y-11643710D01*
X2417182Y-11648152D01*
Y-11648430D01*
X2417459Y-11648707D01*
X2418570Y-11650373D01*
X2419680Y-11653149D01*
X2421346Y-11656758D01*
X2422734Y-11660923D01*
X2424122Y-11665920D01*
X2424955Y-11671195D01*
X2425233Y-11677025D01*
Y-11677302D01*
Y-11677858D01*
Y-11678968D01*
X2424955Y-11680356D01*
Y-11682299D01*
X2424678Y-11684243D01*
X2423567Y-11688962D01*
X2421901Y-11694515D01*
X2419680Y-11700345D01*
X2416349Y-11706175D01*
X2414128Y-11708951D01*
X2411907Y-11711727D01*
X2411629Y-11712005D01*
X2411352Y-11712283D01*
X2410519Y-11713116D01*
X2409408Y-11713948D01*
X2408020Y-11715059D01*
X2406355Y-11716169D01*
X2404134Y-11717557D01*
X2401913Y-11719223D01*
X2399136Y-11720611D01*
X2396083Y-11721999D01*
X2392751Y-11723665D01*
X2389142Y-11725053D01*
X2384978Y-11726164D01*
X2380813Y-11727552D01*
X2376094Y-11728385D01*
X2371097Y-11729218D01*
X2371652Y-11729495D01*
X2372762Y-11730050D01*
X2374428Y-11731161D01*
X2376649Y-11732271D01*
X2381646Y-11735325D01*
X2384145Y-11737269D01*
X2386366Y-11738934D01*
X2386921Y-11739490D01*
X2388309Y-11740878D01*
X2390530Y-11743099D01*
X2393306Y-11745875D01*
X2396360Y-11749762D01*
X2399969Y-11753926D01*
X2403578Y-11758923D01*
X2407465Y-11764476D01*
X2440502Y-11816669D01*
X2408853D01*
X2383590Y-11776691D01*
Y-11776413D01*
X2383034Y-11775858D01*
X2382479Y-11775025D01*
X2381646Y-11773915D01*
X2379703Y-11770861D01*
X2377204Y-11766974D01*
X2374150Y-11762810D01*
X2371097Y-11758368D01*
X2368043Y-11754204D01*
X2365267Y-11750317D01*
X2364989Y-11750039D01*
X2364156Y-11748929D01*
X2362768Y-11747263D01*
X2360825Y-11745320D01*
X2356660Y-11741155D01*
X2354439Y-11739212D01*
X2352218Y-11737546D01*
X2351941Y-11737269D01*
X2351385Y-11736991D01*
X2350275Y-11736436D01*
X2348609Y-11735603D01*
X2346943Y-11734770D01*
X2345000Y-11733937D01*
X2340558Y-11732549D01*
X2340281D01*
X2339725Y-11732271D01*
X2338615D01*
X2337227Y-11731994D01*
X2335283Y-11731716D01*
X2333062D01*
X2330009Y-11731439D01*
X2297249D01*
Y-11816669D01*
X2271708D01*
Y-11624554D01*
X2360825D01*
X2363046Y-11624832D01*
D02*
G37*
G36*
X2068211Y-11734215D02*
X2124013Y-11677302D01*
X2154829D01*
X2101248Y-11729218D01*
X2160104Y-11816669D01*
X2130954D01*
X2084591Y-11745597D01*
X2068211Y-11761422D01*
Y-11816669D01*
X2044613D01*
Y-11624554D01*
X2068211D01*
Y-11734215D01*
D02*
G37*
G36*
X1724237Y-11816669D02*
X1700639D01*
Y-11624554D01*
X1724237D01*
Y-11816669D01*
D02*
G37*
G36*
X1068217Y-11693404D02*
X1068494Y-11693127D01*
X1069049Y-11692571D01*
X1069882Y-11691739D01*
X1071270Y-11690351D01*
X1072659Y-11688962D01*
X1074602Y-11687297D01*
X1077100Y-11685631D01*
X1079599Y-11683688D01*
X1082375Y-11682022D01*
X1085429Y-11680356D01*
X1092647Y-11677302D01*
X1096534Y-11675914D01*
X1100698Y-11675081D01*
X1105140Y-11674526D01*
X1109582Y-11674248D01*
X1112081D01*
X1115135Y-11674526D01*
X1118744Y-11675081D01*
X1122908Y-11675637D01*
X1127350Y-11676747D01*
X1131792Y-11678413D01*
X1136234Y-11680356D01*
X1136789Y-11680634D01*
X1138177Y-11681467D01*
X1140121Y-11682855D01*
X1142619Y-11684798D01*
X1145118Y-11687297D01*
X1147894Y-11690073D01*
X1150393Y-11693404D01*
X1152614Y-11697291D01*
X1152891Y-11697846D01*
X1153447Y-11699234D01*
X1154279Y-11701733D01*
X1155112Y-11705342D01*
X1155945Y-11709784D01*
X1156778Y-11715059D01*
X1157333Y-11721444D01*
X1157611Y-11728662D01*
Y-11816669D01*
X1134013D01*
Y-11728385D01*
Y-11728107D01*
Y-11727552D01*
Y-11726719D01*
Y-11725609D01*
X1133735Y-11722555D01*
X1133180Y-11718668D01*
X1132070Y-11714504D01*
X1130682Y-11710339D01*
X1128738Y-11706175D01*
X1126240Y-11702843D01*
X1125962Y-11702566D01*
X1124851Y-11701455D01*
X1123186Y-11700067D01*
X1120687Y-11698679D01*
X1117633Y-11697013D01*
X1114024Y-11695903D01*
X1109582Y-11694792D01*
X1104585Y-11694515D01*
X1102919D01*
X1100976Y-11694792D01*
X1098200Y-11695070D01*
X1095424Y-11695903D01*
X1092092Y-11696736D01*
X1088761Y-11698124D01*
X1085151Y-11700067D01*
X1084874Y-11700345D01*
X1083763Y-11701178D01*
X1082098Y-11702288D01*
X1080154Y-11703954D01*
X1077933Y-11706175D01*
X1075712Y-11708674D01*
X1073769Y-11711727D01*
X1072103Y-11715059D01*
X1071826Y-11715614D01*
X1071548Y-11716725D01*
X1070993Y-11718946D01*
X1070160Y-11721722D01*
X1069327Y-11725331D01*
X1068772Y-11729773D01*
X1068494Y-11734770D01*
X1068217Y-11740600D01*
Y-11816669D01*
X1044619D01*
Y-11624554D01*
X1068217D01*
Y-11693404D01*
D02*
G37*
G36*
X3012126Y-11677302D02*
X3036001D01*
Y-11695625D01*
X3012126D01*
Y-11777524D01*
Y-11778079D01*
Y-11779190D01*
Y-11780855D01*
X3012403Y-11782799D01*
X3012681Y-11787241D01*
X3012959Y-11789184D01*
X3013236Y-11790572D01*
X3013514Y-11791127D01*
X3014347Y-11792238D01*
X3015457Y-11793626D01*
X3017401Y-11795014D01*
X3017956Y-11795292D01*
X3019344Y-11795847D01*
X3021843Y-11796402D01*
X3025452Y-11796680D01*
X3028228D01*
X3029616Y-11796402D01*
X3031559D01*
X3033780Y-11796124D01*
X3036001Y-11795847D01*
X3039055Y-11816669D01*
X3038500D01*
X3037389Y-11816946D01*
X3035446Y-11817224D01*
X3032947Y-11817501D01*
X3030171Y-11818057D01*
X3027117Y-11818334D01*
X3021010Y-11818612D01*
X3018789D01*
X3016568Y-11818334D01*
X3013792Y-11818057D01*
X3010460Y-11817779D01*
X3007129Y-11816946D01*
X3004075Y-11816113D01*
X3001021Y-11814725D01*
X3000743Y-11814448D01*
X2999910Y-11813892D01*
X2998800Y-11813059D01*
X2997134Y-11811671D01*
X2995746Y-11810283D01*
X2994080Y-11808340D01*
X2992415Y-11806397D01*
X2991304Y-11803898D01*
Y-11803620D01*
X2990749Y-11802510D01*
X2990471Y-11800566D01*
X2989916Y-11797790D01*
X2989361Y-11794181D01*
X2989083Y-11791960D01*
Y-11789462D01*
X2988806Y-11786408D01*
X2988528Y-11783354D01*
Y-11780022D01*
Y-11776136D01*
Y-11695625D01*
X2971038D01*
Y-11677302D01*
X2988528D01*
Y-11642877D01*
X3012126Y-11628718D01*
Y-11677302D01*
D02*
G37*
G36*
X1370825D02*
X1394700D01*
Y-11695625D01*
X1370825D01*
Y-11777524D01*
Y-11778079D01*
Y-11779190D01*
Y-11780855D01*
X1371102Y-11782799D01*
X1371380Y-11787241D01*
X1371657Y-11789184D01*
X1371935Y-11790572D01*
X1372213Y-11791127D01*
X1373046Y-11792238D01*
X1374156Y-11793626D01*
X1376099Y-11795014D01*
X1376655Y-11795292D01*
X1378043Y-11795847D01*
X1380541Y-11796402D01*
X1384150Y-11796680D01*
X1386927D01*
X1388315Y-11796402D01*
X1390258D01*
X1392479Y-11796124D01*
X1394700Y-11795847D01*
X1397754Y-11816669D01*
X1397199D01*
X1396088Y-11816946D01*
X1394145Y-11817224D01*
X1391646Y-11817501D01*
X1388870Y-11818057D01*
X1385816Y-11818334D01*
X1379708Y-11818612D01*
X1377487D01*
X1375266Y-11818334D01*
X1372490Y-11818057D01*
X1369159Y-11817779D01*
X1365827Y-11816946D01*
X1362774Y-11816113D01*
X1359720Y-11814725D01*
X1359442Y-11814448D01*
X1358609Y-11813892D01*
X1357499Y-11813059D01*
X1355833Y-11811671D01*
X1354445Y-11810283D01*
X1352779Y-11808340D01*
X1351113Y-11806397D01*
X1350003Y-11803898D01*
Y-11803620D01*
X1349448Y-11802510D01*
X1349170Y-11800566D01*
X1348615Y-11797790D01*
X1348060Y-11794181D01*
X1347782Y-11791960D01*
Y-11789462D01*
X1347504Y-11786408D01*
X1347227Y-11783354D01*
Y-11780022D01*
Y-11776136D01*
Y-11695625D01*
X1329736D01*
Y-11677302D01*
X1347227D01*
Y-11642877D01*
X1370825Y-11628718D01*
Y-11677302D01*
D02*
G37*
G36*
X3120954Y-11674526D02*
X3123175Y-11674804D01*
X3125951Y-11675359D01*
X3129005Y-11675914D01*
X3132614Y-11676747D01*
X3135945Y-11677580D01*
X3139832Y-11678968D01*
X3143441Y-11680356D01*
X3147328Y-11682299D01*
X3151214Y-11684520D01*
X3155101Y-11687019D01*
X3158710Y-11690073D01*
X3162042Y-11693404D01*
X3162319Y-11693682D01*
X3162875Y-11694237D01*
X3163707Y-11695348D01*
X3164818Y-11697013D01*
X3166206Y-11698957D01*
X3167594Y-11701178D01*
X3169260Y-11703954D01*
X3170926Y-11707285D01*
X3172591Y-11710895D01*
X3174257Y-11714781D01*
X3175645Y-11719223D01*
X3177033Y-11723943D01*
X3178144Y-11729218D01*
X3178977Y-11734770D01*
X3179532Y-11740600D01*
X3179809Y-11746985D01*
Y-11747263D01*
Y-11748374D01*
Y-11750317D01*
X3179532Y-11753093D01*
X3075424D01*
Y-11753371D01*
Y-11754204D01*
X3075701Y-11755314D01*
Y-11756980D01*
X3075979Y-11758923D01*
X3076534Y-11761144D01*
X3077367Y-11766141D01*
X3079033Y-11771694D01*
X3081254Y-11777801D01*
X3084308Y-11783354D01*
X3088194Y-11788351D01*
X3088472D01*
X3088749Y-11788906D01*
X3090415Y-11790294D01*
X3092914Y-11792238D01*
X3096245Y-11794181D01*
X3100687Y-11796402D01*
X3105684Y-11798345D01*
X3111237Y-11799734D01*
X3114291Y-11800011D01*
X3117622Y-11800289D01*
X3119843D01*
X3122342Y-11800011D01*
X3125396Y-11799456D01*
X3128727Y-11798623D01*
X3132614Y-11797513D01*
X3136223Y-11795847D01*
X3139832Y-11793626D01*
X3140110Y-11793348D01*
X3141498Y-11792238D01*
X3143163Y-11790572D01*
X3145107Y-11788351D01*
X3147328Y-11785297D01*
X3149826Y-11781411D01*
X3152325Y-11776969D01*
X3154546Y-11771694D01*
X3178977Y-11774748D01*
Y-11775025D01*
X3178699Y-11775580D01*
X3178421Y-11776691D01*
X3177866Y-11778357D01*
X3177033Y-11780022D01*
X3176200Y-11782243D01*
X3173979Y-11786963D01*
X3171203Y-11792238D01*
X3167316Y-11797790D01*
X3162875Y-11803065D01*
X3157322Y-11808062D01*
X3157044D01*
X3156489Y-11808617D01*
X3155656Y-11809173D01*
X3154546Y-11810006D01*
X3152880Y-11810838D01*
X3151214Y-11811671D01*
X3148993Y-11812782D01*
X3146495Y-11813892D01*
X3143719Y-11815003D01*
X3140942Y-11816113D01*
X3134002Y-11817779D01*
X3126228Y-11819167D01*
X3117622Y-11819722D01*
X3114568D01*
X3112625Y-11819445D01*
X3110126Y-11819167D01*
X3107073Y-11818612D01*
X3103741Y-11818057D01*
X3100132Y-11817501D01*
X3092359Y-11815280D01*
X3088194Y-11813615D01*
X3084308Y-11811949D01*
X3080143Y-11809728D01*
X3076256Y-11807229D01*
X3072647Y-11804453D01*
X3069038Y-11801122D01*
X3068761Y-11800844D01*
X3068205Y-11800289D01*
X3067373Y-11799178D01*
X3066262Y-11797513D01*
X3064874Y-11795569D01*
X3063486Y-11793348D01*
X3061820Y-11790572D01*
X3060154Y-11787518D01*
X3058489Y-11783909D01*
X3056823Y-11780022D01*
X3055435Y-11775580D01*
X3054047Y-11770861D01*
X3052936Y-11765864D01*
X3052103Y-11760311D01*
X3051548Y-11754481D01*
X3051271Y-11748374D01*
Y-11748096D01*
Y-11746708D01*
Y-11745042D01*
X3051548Y-11742543D01*
X3051826Y-11739490D01*
X3052103Y-11736158D01*
X3052659Y-11732271D01*
X3053491Y-11728385D01*
X3055712Y-11719501D01*
X3057101Y-11715059D01*
X3058766Y-11710339D01*
X3060987Y-11705897D01*
X3063486Y-11701733D01*
X3066262Y-11697569D01*
X3069316Y-11693682D01*
X3069594Y-11693404D01*
X3070149Y-11692849D01*
X3071259Y-11692016D01*
X3072647Y-11690628D01*
X3074313Y-11689240D01*
X3076534Y-11687574D01*
X3079033Y-11685631D01*
X3082087Y-11683965D01*
X3085140Y-11682022D01*
X3088749Y-11680356D01*
X3092636Y-11678690D01*
X3096801Y-11677302D01*
X3101242Y-11675914D01*
X3105962Y-11675081D01*
X3110959Y-11674526D01*
X3116234Y-11674248D01*
X3119010D01*
X3120954Y-11674526D01*
D02*
G37*
G36*
X2896357D02*
X2898856Y-11674804D01*
X2901632Y-11675359D01*
X2904686Y-11675914D01*
X2908295Y-11676469D01*
X2915791Y-11678968D01*
X2919678Y-11680356D01*
X2923564Y-11682299D01*
X2927451Y-11684243D01*
X2931338Y-11687019D01*
X2934947Y-11689795D01*
X2938556Y-11693127D01*
X2938834Y-11693404D01*
X2939389Y-11693960D01*
X2940222Y-11695070D01*
X2941332Y-11696458D01*
X2942720Y-11698402D01*
X2944386Y-11700900D01*
X2946052Y-11703676D01*
X2947717Y-11706730D01*
X2949383Y-11710062D01*
X2951049Y-11714226D01*
X2952715Y-11718390D01*
X2954103Y-11723110D01*
X2955213Y-11728107D01*
X2956046Y-11733382D01*
X2956601Y-11738934D01*
X2956879Y-11745042D01*
Y-11745320D01*
Y-11746153D01*
Y-11747541D01*
Y-11749484D01*
X2956601Y-11751705D01*
X2956324Y-11754481D01*
Y-11757257D01*
X2955769Y-11760311D01*
X2954936Y-11767252D01*
X2953270Y-11774192D01*
X2951327Y-11781133D01*
X2948550Y-11787518D01*
Y-11787796D01*
X2948273Y-11788073D01*
X2947717Y-11788906D01*
X2947162Y-11790017D01*
X2945219Y-11792793D01*
X2942720Y-11796124D01*
X2939389Y-11800011D01*
X2935225Y-11803898D01*
X2930505Y-11807785D01*
X2924952Y-11811394D01*
X2924675D01*
X2924397Y-11811671D01*
X2923564Y-11812227D01*
X2922176Y-11812782D01*
X2920788Y-11813337D01*
X2919122Y-11813892D01*
X2914958Y-11815558D01*
X2910239Y-11816946D01*
X2904408Y-11818334D01*
X2898301Y-11819445D01*
X2891638Y-11819722D01*
X2888862D01*
X2886641Y-11819445D01*
X2884142Y-11819167D01*
X2881366Y-11818612D01*
X2878034Y-11818057D01*
X2874703Y-11817501D01*
X2867207Y-11815280D01*
X2863043Y-11813615D01*
X2859156Y-11811949D01*
X2855269Y-11809728D01*
X2851383Y-11807229D01*
X2847774Y-11804453D01*
X2844164Y-11801122D01*
X2843887Y-11800844D01*
X2843332Y-11800289D01*
X2842499Y-11799178D01*
X2841388Y-11797513D01*
X2840000Y-11795569D01*
X2838612Y-11793348D01*
X2836946Y-11790572D01*
X2835281Y-11787241D01*
X2833615Y-11783631D01*
X2831949Y-11779467D01*
X2830561Y-11775025D01*
X2829173Y-11770306D01*
X2828062Y-11765031D01*
X2827230Y-11759478D01*
X2826674Y-11753371D01*
X2826397Y-11746985D01*
Y-11746430D01*
Y-11745320D01*
X2826674Y-11743376D01*
Y-11740600D01*
X2826952Y-11737546D01*
X2827507Y-11733660D01*
X2828062Y-11729773D01*
X2829173Y-11725331D01*
X2830283Y-11720889D01*
X2831672Y-11716169D01*
X2833337Y-11711172D01*
X2835558Y-11706453D01*
X2837779Y-11702011D01*
X2840833Y-11697569D01*
X2843887Y-11693404D01*
X2847774Y-11689795D01*
X2848051Y-11689518D01*
X2848606Y-11689240D01*
X2849717Y-11688407D01*
X2851105Y-11687297D01*
X2852771Y-11686186D01*
X2854992Y-11684798D01*
X2857213Y-11683410D01*
X2859989Y-11682022D01*
X2863043Y-11680634D01*
X2866374Y-11679246D01*
X2873870Y-11676747D01*
X2882476Y-11674804D01*
X2886918Y-11674526D01*
X2891638Y-11674248D01*
X2894414D01*
X2896357Y-11674526D01*
D02*
G37*
G36*
X2523789D02*
X2526010Y-11674804D01*
X2528786Y-11675359D01*
X2531840Y-11675914D01*
X2535449Y-11676747D01*
X2538780Y-11677580D01*
X2542667Y-11678968D01*
X2546276Y-11680356D01*
X2550163Y-11682299D01*
X2554050Y-11684520D01*
X2557936Y-11687019D01*
X2561545Y-11690073D01*
X2564877Y-11693404D01*
X2565154Y-11693682D01*
X2565710Y-11694237D01*
X2566542Y-11695348D01*
X2567653Y-11697013D01*
X2569041Y-11698957D01*
X2570429Y-11701178D01*
X2572095Y-11703954D01*
X2573761Y-11707285D01*
X2575426Y-11710895D01*
X2577092Y-11714781D01*
X2578480Y-11719223D01*
X2579868Y-11723943D01*
X2580979Y-11729218D01*
X2581812Y-11734770D01*
X2582367Y-11740600D01*
X2582645Y-11746985D01*
Y-11747263D01*
Y-11748374D01*
Y-11750317D01*
X2582367Y-11753093D01*
X2478259D01*
Y-11753371D01*
Y-11754204D01*
X2478536Y-11755314D01*
Y-11756980D01*
X2478814Y-11758923D01*
X2479369Y-11761144D01*
X2480202Y-11766141D01*
X2481868Y-11771694D01*
X2484089Y-11777801D01*
X2487143Y-11783354D01*
X2491029Y-11788351D01*
X2491307D01*
X2491585Y-11788906D01*
X2493250Y-11790294D01*
X2495749Y-11792238D01*
X2499080Y-11794181D01*
X2503522Y-11796402D01*
X2508519Y-11798345D01*
X2514072Y-11799734D01*
X2517126Y-11800011D01*
X2520457Y-11800289D01*
X2522678D01*
X2525177Y-11800011D01*
X2528231Y-11799456D01*
X2531562Y-11798623D01*
X2535449Y-11797513D01*
X2539058Y-11795847D01*
X2542667Y-11793626D01*
X2542945Y-11793348D01*
X2544333Y-11792238D01*
X2545998Y-11790572D01*
X2547942Y-11788351D01*
X2550163Y-11785297D01*
X2552661Y-11781411D01*
X2555160Y-11776969D01*
X2557381Y-11771694D01*
X2581812Y-11774748D01*
Y-11775025D01*
X2581534Y-11775580D01*
X2581256Y-11776691D01*
X2580701Y-11778357D01*
X2579868Y-11780022D01*
X2579035Y-11782243D01*
X2576815Y-11786963D01*
X2574038Y-11792238D01*
X2570152Y-11797790D01*
X2565710Y-11803065D01*
X2560157Y-11808062D01*
X2559880D01*
X2559324Y-11808617D01*
X2558491Y-11809173D01*
X2557381Y-11810006D01*
X2555715Y-11810838D01*
X2554050Y-11811671D01*
X2551829Y-11812782D01*
X2549330Y-11813892D01*
X2546554Y-11815003D01*
X2543777Y-11816113D01*
X2536837Y-11817779D01*
X2529064Y-11819167D01*
X2520457Y-11819722D01*
X2517403D01*
X2515460Y-11819445D01*
X2512961Y-11819167D01*
X2509908Y-11818612D01*
X2506576Y-11818057D01*
X2502967Y-11817501D01*
X2495194Y-11815280D01*
X2491029Y-11813615D01*
X2487143Y-11811949D01*
X2482978Y-11809728D01*
X2479092Y-11807229D01*
X2475482Y-11804453D01*
X2471873Y-11801122D01*
X2471596Y-11800844D01*
X2471041Y-11800289D01*
X2470208Y-11799178D01*
X2469097Y-11797513D01*
X2467709Y-11795569D01*
X2466321Y-11793348D01*
X2464655Y-11790572D01*
X2462989Y-11787518D01*
X2461324Y-11783909D01*
X2459658Y-11780022D01*
X2458270Y-11775580D01*
X2456882Y-11770861D01*
X2455771Y-11765864D01*
X2454938Y-11760311D01*
X2454383Y-11754481D01*
X2454106Y-11748374D01*
Y-11748096D01*
Y-11746708D01*
Y-11745042D01*
X2454383Y-11742543D01*
X2454661Y-11739490D01*
X2454938Y-11736158D01*
X2455494Y-11732271D01*
X2456327Y-11728385D01*
X2458548Y-11719501D01*
X2459936Y-11715059D01*
X2461601Y-11710339D01*
X2463822Y-11705897D01*
X2466321Y-11701733D01*
X2469097Y-11697569D01*
X2472151Y-11693682D01*
X2472429Y-11693404D01*
X2472984Y-11692849D01*
X2474094Y-11692016D01*
X2475482Y-11690628D01*
X2477148Y-11689240D01*
X2479369Y-11687574D01*
X2481868Y-11685631D01*
X2484922Y-11683965D01*
X2487975Y-11682022D01*
X2491585Y-11680356D01*
X2495471Y-11678690D01*
X2499636Y-11677302D01*
X2504078Y-11675914D01*
X2508797Y-11675081D01*
X2513794Y-11674526D01*
X2519069Y-11674248D01*
X2521845D01*
X2523789Y-11674526D01*
D02*
G37*
G36*
X1821960D02*
X1824459Y-11674804D01*
X1827235Y-11675359D01*
X1830289Y-11675914D01*
X1833898Y-11676469D01*
X1841394Y-11678968D01*
X1845281Y-11680356D01*
X1849167Y-11682299D01*
X1853054Y-11684243D01*
X1856941Y-11687019D01*
X1860550Y-11689795D01*
X1864159Y-11693127D01*
X1864436Y-11693404D01*
X1864992Y-11693960D01*
X1865825Y-11695070D01*
X1866935Y-11696458D01*
X1868323Y-11698402D01*
X1869989Y-11700900D01*
X1871655Y-11703676D01*
X1873320Y-11706730D01*
X1874986Y-11710062D01*
X1876652Y-11714226D01*
X1878318Y-11718390D01*
X1879706Y-11723110D01*
X1880816Y-11728107D01*
X1881649Y-11733382D01*
X1882204Y-11738934D01*
X1882482Y-11745042D01*
Y-11745320D01*
Y-11746153D01*
Y-11747541D01*
Y-11749484D01*
X1882204Y-11751705D01*
X1881927Y-11754481D01*
Y-11757257D01*
X1881371Y-11760311D01*
X1880539Y-11767252D01*
X1878873Y-11774192D01*
X1876929Y-11781133D01*
X1874153Y-11787518D01*
Y-11787796D01*
X1873876Y-11788073D01*
X1873320Y-11788906D01*
X1872765Y-11790017D01*
X1870822Y-11792793D01*
X1868323Y-11796124D01*
X1864992Y-11800011D01*
X1860827Y-11803898D01*
X1856108Y-11807785D01*
X1850555Y-11811394D01*
X1850278D01*
X1850000Y-11811671D01*
X1849167Y-11812227D01*
X1847779Y-11812782D01*
X1846391Y-11813337D01*
X1844725Y-11813892D01*
X1840561Y-11815558D01*
X1835841Y-11816946D01*
X1830011Y-11818334D01*
X1823904Y-11819445D01*
X1817241Y-11819722D01*
X1814464D01*
X1812244Y-11819445D01*
X1809745Y-11819167D01*
X1806969Y-11818612D01*
X1803637Y-11818057D01*
X1800306Y-11817501D01*
X1792810Y-11815280D01*
X1788646Y-11813615D01*
X1784759Y-11811949D01*
X1780872Y-11809728D01*
X1776986Y-11807229D01*
X1773376Y-11804453D01*
X1769767Y-11801122D01*
X1769490Y-11800844D01*
X1768934Y-11800289D01*
X1768102Y-11799178D01*
X1766991Y-11797513D01*
X1765603Y-11795569D01*
X1764215Y-11793348D01*
X1762549Y-11790572D01*
X1760883Y-11787241D01*
X1759218Y-11783631D01*
X1757552Y-11779467D01*
X1756164Y-11775025D01*
X1754776Y-11770306D01*
X1753665Y-11765031D01*
X1752832Y-11759478D01*
X1752277Y-11753371D01*
X1752000Y-11746985D01*
Y-11746430D01*
Y-11745320D01*
X1752277Y-11743376D01*
Y-11740600D01*
X1752555Y-11737546D01*
X1753110Y-11733660D01*
X1753665Y-11729773D01*
X1754776Y-11725331D01*
X1755886Y-11720889D01*
X1757274Y-11716169D01*
X1758940Y-11711172D01*
X1761161Y-11706453D01*
X1763382Y-11702011D01*
X1766436Y-11697569D01*
X1769490Y-11693404D01*
X1773376Y-11689795D01*
X1773654Y-11689518D01*
X1774209Y-11689240D01*
X1775320Y-11688407D01*
X1776708Y-11687297D01*
X1778374Y-11686186D01*
X1780595Y-11684798D01*
X1782816Y-11683410D01*
X1785592Y-11682022D01*
X1788646Y-11680634D01*
X1791977Y-11679246D01*
X1799473Y-11676747D01*
X1808079Y-11674804D01*
X1812521Y-11674526D01*
X1817241Y-11674248D01*
X1820017D01*
X1821960Y-11674526D01*
D02*
G37*
G36*
X1255056D02*
X1257555Y-11674804D01*
X1260331Y-11675359D01*
X1263385Y-11675914D01*
X1266994Y-11676469D01*
X1274490Y-11678968D01*
X1278376Y-11680356D01*
X1282263Y-11682299D01*
X1286150Y-11684243D01*
X1290037Y-11687019D01*
X1293646Y-11689795D01*
X1297255Y-11693127D01*
X1297532Y-11693404D01*
X1298088Y-11693960D01*
X1298920Y-11695070D01*
X1300031Y-11696458D01*
X1301419Y-11698402D01*
X1303085Y-11700900D01*
X1304751Y-11703676D01*
X1306416Y-11706730D01*
X1308082Y-11710062D01*
X1309748Y-11714226D01*
X1311413Y-11718390D01*
X1312802Y-11723110D01*
X1313912Y-11728107D01*
X1314745Y-11733382D01*
X1315300Y-11738934D01*
X1315578Y-11745042D01*
Y-11745320D01*
Y-11746153D01*
Y-11747541D01*
Y-11749484D01*
X1315300Y-11751705D01*
X1315023Y-11754481D01*
Y-11757257D01*
X1314467Y-11760311D01*
X1313634Y-11767252D01*
X1311969Y-11774192D01*
X1310025Y-11781133D01*
X1307249Y-11787518D01*
Y-11787796D01*
X1306971Y-11788073D01*
X1306416Y-11788906D01*
X1305861Y-11790017D01*
X1303918Y-11792793D01*
X1301419Y-11796124D01*
X1298088Y-11800011D01*
X1293923Y-11803898D01*
X1289204Y-11807785D01*
X1283651Y-11811394D01*
X1283374D01*
X1283096Y-11811671D01*
X1282263Y-11812227D01*
X1280875Y-11812782D01*
X1279487Y-11813337D01*
X1277821Y-11813892D01*
X1273657Y-11815558D01*
X1268937Y-11816946D01*
X1263107Y-11818334D01*
X1257000Y-11819445D01*
X1250337Y-11819722D01*
X1247560D01*
X1245339Y-11819445D01*
X1242841Y-11819167D01*
X1240065Y-11818612D01*
X1236733Y-11818057D01*
X1233402Y-11817501D01*
X1225906Y-11815280D01*
X1221742Y-11813615D01*
X1217855Y-11811949D01*
X1213968Y-11809728D01*
X1210081Y-11807229D01*
X1206472Y-11804453D01*
X1202863Y-11801122D01*
X1202586Y-11800844D01*
X1202030Y-11800289D01*
X1201197Y-11799178D01*
X1200087Y-11797513D01*
X1198699Y-11795569D01*
X1197311Y-11793348D01*
X1195645Y-11790572D01*
X1193979Y-11787241D01*
X1192314Y-11783631D01*
X1190648Y-11779467D01*
X1189260Y-11775025D01*
X1187872Y-11770306D01*
X1186761Y-11765031D01*
X1185928Y-11759478D01*
X1185373Y-11753371D01*
X1185095Y-11746985D01*
Y-11746430D01*
Y-11745320D01*
X1185373Y-11743376D01*
Y-11740600D01*
X1185651Y-11737546D01*
X1186206Y-11733660D01*
X1186761Y-11729773D01*
X1187872Y-11725331D01*
X1188982Y-11720889D01*
X1190370Y-11716169D01*
X1192036Y-11711172D01*
X1194257Y-11706453D01*
X1196478Y-11702011D01*
X1199532Y-11697569D01*
X1202586Y-11693404D01*
X1206472Y-11689795D01*
X1206750Y-11689518D01*
X1207305Y-11689240D01*
X1208416Y-11688407D01*
X1209804Y-11687297D01*
X1211470Y-11686186D01*
X1213690Y-11684798D01*
X1215911Y-11683410D01*
X1218688Y-11682022D01*
X1221742Y-11680634D01*
X1225073Y-11679246D01*
X1232569Y-11676747D01*
X1241175Y-11674804D01*
X1245617Y-11674526D01*
X1250337Y-11674248D01*
X1253113D01*
X1255056Y-11674526D01*
D02*
G37*
G36*
X1126452Y-202167D02*
X1128285Y-202449D01*
X1130540Y-202872D01*
X1133078Y-203576D01*
X1135615Y-204422D01*
X1138153Y-205550D01*
X1138294D01*
X1138435Y-205691D01*
X1139280Y-206114D01*
X1140549Y-206960D01*
X1141959Y-207946D01*
X1143650Y-209356D01*
X1145342Y-210907D01*
X1147034Y-212739D01*
X1148443Y-214854D01*
X1148584Y-215136D01*
X1149007Y-215841D01*
X1149571Y-217110D01*
X1150276Y-218660D01*
X1150981Y-220493D01*
X1151545Y-222607D01*
X1151968Y-225004D01*
X1152109Y-227400D01*
Y-227682D01*
Y-228528D01*
X1151968Y-229656D01*
X1151686Y-231207D01*
X1151263Y-233039D01*
X1150558Y-235013D01*
X1149712Y-236986D01*
X1148584Y-238960D01*
X1148443Y-239242D01*
X1148021Y-239806D01*
X1147175Y-240793D01*
X1146047Y-241920D01*
X1144637Y-243189D01*
X1142946Y-244599D01*
X1140972Y-245867D01*
X1138576Y-247136D01*
X1138717D01*
X1138998Y-247277D01*
X1139421Y-247418D01*
X1139985Y-247559D01*
X1141536Y-248123D01*
X1143510Y-248969D01*
X1145765Y-250097D01*
X1148021Y-251506D01*
X1150135Y-253339D01*
X1152109Y-255453D01*
X1152250Y-255735D01*
X1152814Y-256581D01*
X1153659Y-257991D01*
X1154505Y-259823D01*
X1155351Y-262079D01*
X1156197Y-264757D01*
X1156761Y-267859D01*
X1156902Y-271242D01*
Y-271383D01*
Y-271806D01*
Y-272511D01*
X1156761Y-273357D01*
X1156620Y-274484D01*
X1156338Y-275753D01*
X1156056Y-277163D01*
X1155774Y-278713D01*
X1154646Y-282097D01*
X1153800Y-283929D01*
X1152955Y-285621D01*
X1151827Y-287454D01*
X1150558Y-289286D01*
X1149148Y-291119D01*
X1147457Y-292810D01*
X1147316Y-292951D01*
X1147034Y-293233D01*
X1146470Y-293656D01*
X1145765Y-294220D01*
X1144919Y-294925D01*
X1143791Y-295630D01*
X1142523Y-296476D01*
X1140972Y-297181D01*
X1139421Y-298026D01*
X1137589Y-298872D01*
X1135756Y-299577D01*
X1133642Y-300282D01*
X1131386Y-300846D01*
X1128990Y-301269D01*
X1126593Y-301551D01*
X1123915Y-301692D01*
X1122646D01*
X1121800Y-301551D01*
X1120672Y-301410D01*
X1119404Y-301269D01*
X1117994Y-300987D01*
X1116443Y-300705D01*
X1113060Y-299859D01*
X1109536Y-298449D01*
X1107703Y-297603D01*
X1106012Y-296617D01*
X1104320Y-295348D01*
X1102628Y-294079D01*
X1102487Y-293938D01*
X1102205Y-293656D01*
X1101782Y-293233D01*
X1101359Y-292669D01*
X1100655Y-291965D01*
X1099950Y-290978D01*
X1099104Y-289991D01*
X1098258Y-288722D01*
X1097412Y-287313D01*
X1096567Y-285903D01*
X1095016Y-282520D01*
X1093747Y-278572D01*
X1093324Y-276458D01*
X1093042Y-274202D01*
X1105025Y-272652D01*
Y-272793D01*
X1105166Y-273075D01*
X1105307Y-273639D01*
X1105448Y-274343D01*
X1105589Y-275189D01*
X1105871Y-276176D01*
X1106575Y-278291D01*
X1107562Y-280828D01*
X1108831Y-283224D01*
X1110241Y-285480D01*
X1111932Y-287454D01*
X1112214Y-287595D01*
X1112778Y-288158D01*
X1113906Y-288863D01*
X1115316Y-289568D01*
X1117007Y-290414D01*
X1119122Y-291119D01*
X1121518Y-291683D01*
X1124056Y-291824D01*
X1124901D01*
X1125465Y-291683D01*
X1127016Y-291542D01*
X1128990Y-291119D01*
X1131245Y-290414D01*
X1133642Y-289427D01*
X1136038Y-288017D01*
X1138294Y-286044D01*
X1138576Y-285762D01*
X1139280Y-284916D01*
X1140126Y-283647D01*
X1141254Y-281956D01*
X1142382Y-279841D01*
X1143228Y-277445D01*
X1143932Y-274625D01*
X1144214Y-271524D01*
Y-271383D01*
Y-271101D01*
Y-270678D01*
X1144073Y-270114D01*
X1143932Y-268564D01*
X1143510Y-266731D01*
X1142946Y-264475D01*
X1141959Y-262220D01*
X1140549Y-259964D01*
X1138717Y-257850D01*
X1138435Y-257568D01*
X1137730Y-257004D01*
X1136602Y-256158D01*
X1135051Y-255171D01*
X1133078Y-254185D01*
X1130681Y-253339D01*
X1128003Y-252775D01*
X1125042Y-252493D01*
X1123774D01*
X1122787Y-252634D01*
X1121518Y-252775D01*
X1120109Y-253057D01*
X1118417Y-253339D01*
X1116584Y-253762D01*
X1117994Y-243189D01*
X1118699D01*
X1119263Y-243330D01*
X1121095D01*
X1122646Y-243048D01*
X1124479Y-242766D01*
X1126593Y-242343D01*
X1128990Y-241638D01*
X1131245Y-240652D01*
X1133642Y-239383D01*
X1133783D01*
X1133924Y-239242D01*
X1134628Y-238678D01*
X1135615Y-237691D01*
X1136743Y-236422D01*
X1137871Y-234590D01*
X1138858Y-232475D01*
X1139562Y-230079D01*
X1139844Y-228669D01*
Y-227118D01*
Y-226977D01*
Y-226836D01*
Y-225991D01*
X1139562Y-224863D01*
X1139280Y-223312D01*
X1138717Y-221621D01*
X1138012Y-219788D01*
X1136884Y-217955D01*
X1135333Y-216264D01*
X1135192Y-216123D01*
X1134487Y-215559D01*
X1133501Y-214854D01*
X1132232Y-214008D01*
X1130540Y-213303D01*
X1128567Y-212599D01*
X1126311Y-212035D01*
X1123774Y-211894D01*
X1122646D01*
X1121377Y-212176D01*
X1119686Y-212458D01*
X1117853Y-213021D01*
X1116020Y-213726D01*
X1114047Y-214854D01*
X1112214Y-216264D01*
X1112073Y-216405D01*
X1111509Y-217110D01*
X1110664Y-218096D01*
X1109677Y-219506D01*
X1108690Y-221339D01*
X1107703Y-223594D01*
X1106857Y-226273D01*
X1106293Y-229374D01*
X1094311Y-227259D01*
Y-227118D01*
X1094452Y-226696D01*
X1094593Y-226132D01*
X1094734Y-225286D01*
X1095016Y-224299D01*
X1095439Y-223171D01*
X1096285Y-220493D01*
X1097694Y-217391D01*
X1099386Y-214290D01*
X1101500Y-211330D01*
X1104179Y-208651D01*
X1104320Y-208510D01*
X1104602Y-208369D01*
X1105025Y-208087D01*
X1105589Y-207665D01*
X1106293Y-207101D01*
X1107280Y-206537D01*
X1108267Y-205973D01*
X1109536Y-205268D01*
X1112355Y-204140D01*
X1115597Y-203013D01*
X1119404Y-202308D01*
X1121377Y-202026D01*
X1124901D01*
X1126452Y-202167D01*
D02*
G37*
G36*
X1076690Y-268987D02*
Y-269127D01*
Y-269550D01*
Y-270114D01*
Y-270960D01*
X1076549Y-272088D01*
Y-273216D01*
X1076267Y-275894D01*
X1075985Y-278995D01*
X1075421Y-282238D01*
X1074575Y-285198D01*
X1073588Y-288017D01*
Y-288158D01*
X1073447Y-288299D01*
X1073025Y-289145D01*
X1072320Y-290273D01*
X1071333Y-291824D01*
X1069923Y-293374D01*
X1068373Y-295066D01*
X1066399Y-296758D01*
X1064143Y-298167D01*
X1063861Y-298308D01*
X1063016Y-298731D01*
X1061747Y-299295D01*
X1059914Y-299859D01*
X1057659Y-300564D01*
X1055121Y-301128D01*
X1052302Y-301551D01*
X1049201Y-301692D01*
X1047932D01*
X1047086Y-301551D01*
X1045958Y-301410D01*
X1044831Y-301269D01*
X1041870Y-300705D01*
X1038769Y-299859D01*
X1035527Y-298590D01*
X1033835Y-297744D01*
X1032284Y-296758D01*
X1030874Y-295630D01*
X1029465Y-294361D01*
X1029324Y-294220D01*
X1029183Y-294079D01*
X1028901Y-293515D01*
X1028478Y-292951D01*
X1027914Y-292247D01*
X1027350Y-291260D01*
X1026786Y-290132D01*
X1026082Y-288863D01*
X1025518Y-287454D01*
X1024954Y-285762D01*
X1024390Y-284070D01*
X1023826Y-282097D01*
X1023544Y-279982D01*
X1023121Y-277586D01*
X1022980Y-275189D01*
Y-272511D01*
X1034681Y-270819D01*
Y-270960D01*
Y-271242D01*
Y-271806D01*
X1034822Y-272652D01*
X1034963Y-273498D01*
Y-274484D01*
X1035386Y-276881D01*
X1035808Y-279418D01*
X1036654Y-281956D01*
X1037500Y-284211D01*
X1038064Y-285198D01*
X1038769Y-286044D01*
X1038910Y-286185D01*
X1039474Y-286608D01*
X1040319Y-287313D01*
X1041447Y-288017D01*
X1042998Y-288863D01*
X1044690Y-289427D01*
X1046804Y-289991D01*
X1049060Y-290132D01*
X1049905D01*
X1050751Y-289991D01*
X1052020Y-289850D01*
X1053289Y-289568D01*
X1054698Y-289286D01*
X1056108Y-288722D01*
X1057518Y-288017D01*
X1057659Y-287876D01*
X1058082Y-287595D01*
X1058646Y-287031D01*
X1059491Y-286467D01*
X1060196Y-285480D01*
X1061042Y-284493D01*
X1061747Y-283365D01*
X1062311Y-281956D01*
Y-281815D01*
X1062593Y-281251D01*
X1062734Y-280264D01*
X1063016Y-278995D01*
X1063298Y-277304D01*
X1063439Y-275189D01*
X1063721Y-272652D01*
Y-269691D01*
Y-202449D01*
X1076690D01*
Y-268987D01*
D02*
G37*
G36*
X2827471Y-10196978D02*
Y-10197119D01*
Y-10197683D01*
Y-10198388D01*
Y-10199374D01*
X2827330Y-10200643D01*
Y-10202053D01*
X2827189Y-10203744D01*
X2827048Y-10205436D01*
X2826626Y-10209242D01*
X2826062Y-10213189D01*
X2825216Y-10216996D01*
X2824652Y-10218828D01*
X2824088Y-10220520D01*
Y-10220661D01*
X2823947Y-10220943D01*
X2823665Y-10221366D01*
X2823383Y-10221930D01*
X2822537Y-10223480D01*
X2821269Y-10225454D01*
X2819577Y-10227709D01*
X2817603Y-10229965D01*
X2815066Y-10232361D01*
X2811965Y-10234476D01*
X2811824D01*
X2811542Y-10234758D01*
X2811119Y-10234899D01*
X2810414Y-10235322D01*
X2809568Y-10235745D01*
X2808440Y-10236167D01*
X2807313Y-10236590D01*
X2805903Y-10237154D01*
X2804352Y-10237718D01*
X2802661Y-10238141D01*
X2800828Y-10238564D01*
X2798713Y-10238987D01*
X2796599Y-10239269D01*
X2794343Y-10239551D01*
X2789268Y-10239833D01*
X2788000D01*
X2787013Y-10239692D01*
X2785885D01*
X2784476Y-10239551D01*
X2782925Y-10239410D01*
X2781374Y-10239269D01*
X2777850Y-10238705D01*
X2774044Y-10237859D01*
X2770379Y-10236731D01*
X2766854Y-10235181D01*
X2766713D01*
X2766431Y-10234899D01*
X2766008Y-10234617D01*
X2765445Y-10234335D01*
X2763894Y-10233207D01*
X2762061Y-10231656D01*
X2759947Y-10229683D01*
X2757973Y-10227427D01*
X2756000Y-10224608D01*
X2754449Y-10221507D01*
Y-10221366D01*
X2754308Y-10221084D01*
X2754167Y-10220520D01*
X2753885Y-10219815D01*
X2753603Y-10218969D01*
X2753321Y-10217841D01*
X2752898Y-10216573D01*
X2752616Y-10215022D01*
X2752334Y-10213330D01*
X2751911Y-10211498D01*
X2751629Y-10209524D01*
X2751348Y-10207410D01*
X2751066Y-10205013D01*
X2750925Y-10202476D01*
X2750784Y-10199797D01*
Y-10196978D01*
Y-10140590D01*
X2763753D01*
Y-10196978D01*
Y-10197119D01*
Y-10197542D01*
Y-10198247D01*
Y-10199092D01*
X2763894Y-10200079D01*
Y-10201348D01*
X2764035Y-10204026D01*
X2764317Y-10207128D01*
X2764740Y-10210229D01*
X2765304Y-10213189D01*
X2765586Y-10214458D01*
X2766008Y-10215727D01*
X2766149Y-10216009D01*
X2766431Y-10216714D01*
X2767136Y-10217700D01*
X2767982Y-10219110D01*
X2768969Y-10220520D01*
X2770379Y-10222070D01*
X2772070Y-10223621D01*
X2774044Y-10224890D01*
X2774326Y-10225031D01*
X2775031Y-10225454D01*
X2776299Y-10225877D01*
X2777991Y-10226441D01*
X2779964Y-10227145D01*
X2782502Y-10227568D01*
X2785180Y-10227991D01*
X2788141Y-10228132D01*
X2789550D01*
X2790396Y-10227991D01*
X2791665D01*
X2792934Y-10227850D01*
X2796035Y-10227286D01*
X2799418Y-10226582D01*
X2802661Y-10225454D01*
X2805762Y-10223903D01*
X2807172Y-10222916D01*
X2808440Y-10221789D01*
X2808581Y-10221648D01*
X2808722Y-10221507D01*
X2809004Y-10221084D01*
X2809427Y-10220520D01*
X2809850Y-10219674D01*
X2810414Y-10218828D01*
X2810978Y-10217559D01*
X2811542Y-10216291D01*
X2812106Y-10214740D01*
X2812529Y-10212907D01*
X2813092Y-10210793D01*
X2813515Y-10208537D01*
X2813938Y-10206000D01*
X2814220Y-10203321D01*
X2814502Y-10200220D01*
Y-10196978D01*
Y-10140590D01*
X2827471D01*
Y-10196978D01*
D02*
G37*
G36*
X2889216Y-10238141D02*
X2877234D01*
Y-10161876D01*
X2877093Y-10162017D01*
X2876388Y-10162581D01*
X2875542Y-10163427D01*
X2874132Y-10164414D01*
X2872582Y-10165682D01*
X2870608Y-10167092D01*
X2868353Y-10168643D01*
X2865815Y-10170194D01*
X2865674D01*
X2865533Y-10170334D01*
X2864687Y-10170898D01*
X2863278Y-10171603D01*
X2861586Y-10172449D01*
X2859613Y-10173436D01*
X2857498Y-10174423D01*
X2855383Y-10175409D01*
X2853269Y-10176255D01*
Y-10164696D01*
X2853410D01*
X2853692Y-10164414D01*
X2854256Y-10164273D01*
X2854961Y-10163850D01*
X2855806Y-10163427D01*
X2856793Y-10162863D01*
X2859190Y-10161453D01*
X2862009Y-10159903D01*
X2864828Y-10157929D01*
X2867789Y-10155674D01*
X2870749Y-10153277D01*
X2870890Y-10153136D01*
X2871031Y-10152995D01*
X2871454Y-10152572D01*
X2872018Y-10152149D01*
X2873287Y-10150740D01*
X2874978Y-10149048D01*
X2876670Y-10147074D01*
X2878502Y-10144819D01*
X2880053Y-10142563D01*
X2881463Y-10140167D01*
X2889216D01*
Y-10238141D01*
D02*
G37*
G36*
X1263559Y-7099674D02*
X1264546D01*
X1267225Y-7099956D01*
X1270185Y-7100378D01*
X1273286Y-7101083D01*
X1276670Y-7101929D01*
X1279771Y-7103057D01*
X1279912D01*
X1280194Y-7103198D01*
X1280617Y-7103480D01*
X1281181Y-7103762D01*
X1282590Y-7104467D01*
X1284423Y-7105735D01*
X1286537Y-7107145D01*
X1288652Y-7108978D01*
X1290626Y-7111092D01*
X1292458Y-7113489D01*
Y-7113630D01*
X1292599Y-7113771D01*
X1292881Y-7114194D01*
X1293163Y-7114616D01*
X1293868Y-7116026D01*
X1294714Y-7117859D01*
X1295700Y-7120114D01*
X1296405Y-7122793D01*
X1297110Y-7125612D01*
X1297392Y-7128713D01*
X1284987Y-7129700D01*
Y-7129559D01*
Y-7129277D01*
X1284846Y-7128854D01*
X1284705Y-7128150D01*
X1284282Y-7126599D01*
X1283718Y-7124484D01*
X1282872Y-7122229D01*
X1281603Y-7119973D01*
X1280053Y-7117859D01*
X1278079Y-7115885D01*
X1277797Y-7115744D01*
X1277092Y-7115180D01*
X1275683Y-7114335D01*
X1273850Y-7113489D01*
X1271454Y-7112643D01*
X1268634Y-7111797D01*
X1265110Y-7111233D01*
X1261163Y-7111092D01*
X1259189D01*
X1258343Y-7111233D01*
X1257216Y-7111374D01*
X1254678Y-7111656D01*
X1251859Y-7112220D01*
X1249039Y-7112925D01*
X1246361Y-7114053D01*
X1245233Y-7114757D01*
X1244105Y-7115462D01*
X1243824Y-7115603D01*
X1243260Y-7116167D01*
X1242414Y-7117154D01*
X1241568Y-7118282D01*
X1240581Y-7119832D01*
X1239735Y-7121524D01*
X1239172Y-7123498D01*
X1238890Y-7125753D01*
Y-7126035D01*
Y-7126599D01*
X1239031Y-7127586D01*
X1239312Y-7128713D01*
X1239735Y-7130123D01*
X1240440Y-7131533D01*
X1241286Y-7132943D01*
X1242555Y-7134352D01*
X1242696Y-7134493D01*
X1243401Y-7134916D01*
X1243964Y-7135339D01*
X1244528Y-7135621D01*
X1245374Y-7136044D01*
X1246361Y-7136608D01*
X1247630Y-7137031D01*
X1249039Y-7137595D01*
X1250590Y-7138158D01*
X1252423Y-7138863D01*
X1254396Y-7139427D01*
X1256652Y-7140132D01*
X1259189Y-7140696D01*
X1262009Y-7141401D01*
X1262150D01*
X1262714Y-7141542D01*
X1263559Y-7141683D01*
X1264546Y-7141965D01*
X1265815Y-7142247D01*
X1267366Y-7142669D01*
X1268916Y-7143092D01*
X1270608Y-7143515D01*
X1274273Y-7144502D01*
X1277797Y-7145489D01*
X1279489Y-7146053D01*
X1281040Y-7146617D01*
X1282449Y-7147040D01*
X1283577Y-7147603D01*
X1283718D01*
X1284000Y-7147744D01*
X1284423Y-7148026D01*
X1284987Y-7148308D01*
X1286537Y-7149154D01*
X1288370Y-7150282D01*
X1290485Y-7151833D01*
X1292599Y-7153524D01*
X1294573Y-7155498D01*
X1296264Y-7157612D01*
X1296405Y-7157894D01*
X1296969Y-7158599D01*
X1297533Y-7159868D01*
X1298379Y-7161559D01*
X1299084Y-7163533D01*
X1299789Y-7165930D01*
X1300212Y-7168608D01*
X1300352Y-7171427D01*
Y-7171568D01*
Y-7171709D01*
Y-7172132D01*
Y-7172696D01*
X1300071Y-7174247D01*
X1299789Y-7176220D01*
X1299225Y-7178476D01*
X1298520Y-7180872D01*
X1297392Y-7183410D01*
X1295841Y-7186088D01*
Y-7186229D01*
X1295700Y-7186370D01*
X1294996Y-7187216D01*
X1294009Y-7188485D01*
X1292599Y-7189894D01*
X1290767Y-7191586D01*
X1288511Y-7193419D01*
X1285974Y-7195110D01*
X1283013Y-7196661D01*
X1282872D01*
X1282590Y-7196802D01*
X1282167Y-7196943D01*
X1281603Y-7197225D01*
X1280758Y-7197507D01*
X1279771Y-7197930D01*
X1277515Y-7198494D01*
X1274837Y-7199198D01*
X1271595Y-7199903D01*
X1268070Y-7200326D01*
X1264264Y-7200467D01*
X1262009D01*
X1260881Y-7200326D01*
X1259612D01*
X1258202Y-7200185D01*
X1256511Y-7200044D01*
X1252987Y-7199480D01*
X1249321Y-7198917D01*
X1245656Y-7197930D01*
X1242132Y-7196661D01*
X1241991D01*
X1241709Y-7196520D01*
X1241286Y-7196238D01*
X1240722Y-7195956D01*
X1239031Y-7195110D01*
X1237057Y-7193842D01*
X1234801Y-7192150D01*
X1232405Y-7190176D01*
X1230149Y-7187780D01*
X1228035Y-7185101D01*
Y-7184960D01*
X1227753Y-7184679D01*
X1227612Y-7184256D01*
X1227189Y-7183692D01*
X1226907Y-7182987D01*
X1226484Y-7182141D01*
X1225497Y-7180027D01*
X1224511Y-7177348D01*
X1223665Y-7174388D01*
X1223101Y-7171004D01*
X1222819Y-7167480D01*
X1234942Y-7166352D01*
Y-7166493D01*
Y-7166634D01*
X1235083Y-7167057D01*
Y-7167621D01*
X1235365Y-7168890D01*
X1235788Y-7170723D01*
X1236352Y-7172555D01*
X1236916Y-7174670D01*
X1237903Y-7176643D01*
X1238890Y-7178476D01*
X1239031Y-7178617D01*
X1239453Y-7179181D01*
X1240158Y-7180168D01*
X1241286Y-7181154D01*
X1242696Y-7182423D01*
X1244246Y-7183692D01*
X1246361Y-7184960D01*
X1248617Y-7186088D01*
X1248757D01*
X1248898Y-7186229D01*
X1249321Y-7186370D01*
X1249744Y-7186511D01*
X1251154Y-7186934D01*
X1252987Y-7187498D01*
X1255242Y-7188062D01*
X1257780Y-7188485D01*
X1260599Y-7188767D01*
X1263700Y-7188908D01*
X1264969D01*
X1266379Y-7188767D01*
X1268070Y-7188626D01*
X1270044Y-7188344D01*
X1272299Y-7188062D01*
X1274555Y-7187498D01*
X1276670Y-7186793D01*
X1276951Y-7186652D01*
X1277656Y-7186370D01*
X1278643Y-7185806D01*
X1279912Y-7185242D01*
X1281181Y-7184256D01*
X1282590Y-7183269D01*
X1284000Y-7182141D01*
X1285128Y-7180731D01*
X1285269Y-7180590D01*
X1285551Y-7180027D01*
X1285974Y-7179322D01*
X1286537Y-7178194D01*
X1287101Y-7177066D01*
X1287524Y-7175656D01*
X1287806Y-7174106D01*
X1287947Y-7172414D01*
Y-7172273D01*
Y-7171568D01*
X1287806Y-7170723D01*
X1287665Y-7169595D01*
X1287242Y-7168467D01*
X1286819Y-7167057D01*
X1286115Y-7165648D01*
X1285128Y-7164379D01*
X1284987Y-7164238D01*
X1284564Y-7163815D01*
X1284000Y-7163251D01*
X1283013Y-7162405D01*
X1281885Y-7161559D01*
X1280335Y-7160573D01*
X1278502Y-7159586D01*
X1276388Y-7158740D01*
X1276247Y-7158599D01*
X1275542Y-7158458D01*
X1274414Y-7158035D01*
X1273709Y-7157894D01*
X1272722Y-7157612D01*
X1271736Y-7157189D01*
X1270467Y-7156907D01*
X1269057Y-7156485D01*
X1267366Y-7156062D01*
X1265674Y-7155639D01*
X1263700Y-7155075D01*
X1261445Y-7154511D01*
X1259048Y-7153947D01*
X1258907D01*
X1258484Y-7153806D01*
X1257780Y-7153665D01*
X1256934Y-7153383D01*
X1255806Y-7153101D01*
X1254537Y-7152819D01*
X1251718Y-7151974D01*
X1248617Y-7150987D01*
X1245374Y-7150000D01*
X1242555Y-7149013D01*
X1241286Y-7148449D01*
X1240158Y-7147885D01*
X1240017D01*
X1239876Y-7147744D01*
X1239031Y-7147181D01*
X1237762Y-7146476D01*
X1236352Y-7145348D01*
X1234660Y-7144079D01*
X1232969Y-7142529D01*
X1231277Y-7140696D01*
X1229867Y-7138722D01*
X1229727Y-7138440D01*
X1229304Y-7137736D01*
X1228740Y-7136608D01*
X1228176Y-7135198D01*
X1227612Y-7133365D01*
X1227048Y-7131251D01*
X1226625Y-7128995D01*
X1226484Y-7126599D01*
Y-7126458D01*
Y-7126317D01*
Y-7125894D01*
Y-7125330D01*
X1226766Y-7123920D01*
X1227048Y-7122088D01*
X1227471Y-7119973D01*
X1228176Y-7117577D01*
X1229163Y-7115180D01*
X1230572Y-7112784D01*
Y-7112643D01*
X1230713Y-7112502D01*
X1231418Y-7111656D01*
X1232405Y-7110528D01*
X1233674Y-7109119D01*
X1235365Y-7107568D01*
X1237480Y-7105876D01*
X1240017Y-7104326D01*
X1242837Y-7102916D01*
X1242978D01*
X1243260Y-7102775D01*
X1243683Y-7102634D01*
X1244246Y-7102352D01*
X1244951Y-7102070D01*
X1245938Y-7101788D01*
X1248053Y-7101224D01*
X1250731Y-7100660D01*
X1253832Y-7100097D01*
X1257075Y-7099674D01*
X1260740Y-7099533D01*
X1262573D01*
X1263559Y-7099674D01*
D02*
G37*
G36*
X1346732Y-7100942D02*
X1348564Y-7101224D01*
X1350820Y-7101647D01*
X1353357Y-7102352D01*
X1355895Y-7103198D01*
X1358432Y-7104326D01*
X1358573D01*
X1358714Y-7104467D01*
X1359560Y-7104890D01*
X1360829Y-7105735D01*
X1362238Y-7106722D01*
X1363930Y-7108132D01*
X1365622Y-7109683D01*
X1367313Y-7111515D01*
X1368723Y-7113630D01*
X1368864Y-7113912D01*
X1369287Y-7114616D01*
X1369851Y-7115885D01*
X1370556Y-7117436D01*
X1371260Y-7119268D01*
X1371824Y-7121383D01*
X1372247Y-7123780D01*
X1372388Y-7126176D01*
Y-7126458D01*
Y-7127304D01*
X1372247Y-7128432D01*
X1371965Y-7129982D01*
X1371542Y-7131815D01*
X1370837Y-7133788D01*
X1369992Y-7135762D01*
X1368864Y-7137736D01*
X1368723Y-7138017D01*
X1368300Y-7138581D01*
X1367454Y-7139568D01*
X1366326Y-7140696D01*
X1364917Y-7141965D01*
X1363225Y-7143374D01*
X1361252Y-7144643D01*
X1358855Y-7145912D01*
X1358996D01*
X1359278Y-7146053D01*
X1359701Y-7146194D01*
X1360265Y-7146335D01*
X1361815Y-7146899D01*
X1363789Y-7147744D01*
X1366045Y-7148872D01*
X1368300Y-7150282D01*
X1370415Y-7152114D01*
X1372388Y-7154229D01*
X1372529Y-7154511D01*
X1373093Y-7155357D01*
X1373939Y-7156766D01*
X1374785Y-7158599D01*
X1375630Y-7160855D01*
X1376476Y-7163533D01*
X1377040Y-7166634D01*
X1377181Y-7170018D01*
Y-7170159D01*
Y-7170582D01*
Y-7171286D01*
X1377040Y-7172132D01*
X1376899Y-7173260D01*
X1376617Y-7174529D01*
X1376335Y-7175938D01*
X1376053Y-7177489D01*
X1374926Y-7180872D01*
X1374080Y-7182705D01*
X1373234Y-7184397D01*
X1372106Y-7186229D01*
X1370837Y-7188062D01*
X1369428Y-7189894D01*
X1367736Y-7191586D01*
X1367595Y-7191727D01*
X1367313Y-7192009D01*
X1366749Y-7192432D01*
X1366045Y-7192996D01*
X1365199Y-7193701D01*
X1364071Y-7194405D01*
X1362802Y-7195251D01*
X1361252Y-7195956D01*
X1359701Y-7196802D01*
X1357868Y-7197648D01*
X1356036Y-7198353D01*
X1353921Y-7199057D01*
X1351666Y-7199621D01*
X1349269Y-7200044D01*
X1346873Y-7200326D01*
X1344194Y-7200467D01*
X1342925D01*
X1342080Y-7200326D01*
X1340952Y-7200185D01*
X1339683Y-7200044D01*
X1338273Y-7199762D01*
X1336723Y-7199480D01*
X1333339Y-7198635D01*
X1329815Y-7197225D01*
X1327983Y-7196379D01*
X1326291Y-7195392D01*
X1324599Y-7194124D01*
X1322908Y-7192855D01*
X1322767Y-7192714D01*
X1322485Y-7192432D01*
X1322062Y-7192009D01*
X1321639Y-7191445D01*
X1320934Y-7190740D01*
X1320229Y-7189753D01*
X1319383Y-7188767D01*
X1318538Y-7187498D01*
X1317692Y-7186088D01*
X1316846Y-7184679D01*
X1315295Y-7181295D01*
X1314027Y-7177348D01*
X1313604Y-7175234D01*
X1313322Y-7172978D01*
X1325304Y-7171427D01*
Y-7171568D01*
X1325445Y-7171850D01*
X1325586Y-7172414D01*
X1325727Y-7173119D01*
X1325868Y-7173965D01*
X1326150Y-7174952D01*
X1326855Y-7177066D01*
X1327842Y-7179604D01*
X1329110Y-7182000D01*
X1330520Y-7184256D01*
X1332212Y-7186229D01*
X1332494Y-7186370D01*
X1333058Y-7186934D01*
X1334185Y-7187639D01*
X1335595Y-7188344D01*
X1337287Y-7189190D01*
X1339401Y-7189894D01*
X1341798Y-7190458D01*
X1344335Y-7190599D01*
X1345181D01*
X1345745Y-7190458D01*
X1347296Y-7190317D01*
X1349269Y-7189894D01*
X1351525Y-7189190D01*
X1353921Y-7188203D01*
X1356318Y-7186793D01*
X1358573Y-7184820D01*
X1358855Y-7184538D01*
X1359560Y-7183692D01*
X1360406Y-7182423D01*
X1361533Y-7180731D01*
X1362661Y-7178617D01*
X1363507Y-7176220D01*
X1364212Y-7173401D01*
X1364494Y-7170300D01*
Y-7170159D01*
Y-7169877D01*
Y-7169454D01*
X1364353Y-7168890D01*
X1364212Y-7167339D01*
X1363789Y-7165507D01*
X1363225Y-7163251D01*
X1362238Y-7160996D01*
X1360829Y-7158740D01*
X1358996Y-7156626D01*
X1358714Y-7156344D01*
X1358009Y-7155780D01*
X1356881Y-7154934D01*
X1355331Y-7153947D01*
X1353357Y-7152960D01*
X1350961Y-7152114D01*
X1348282Y-7151551D01*
X1345322Y-7151269D01*
X1344053D01*
X1343066Y-7151410D01*
X1341798Y-7151551D01*
X1340388Y-7151833D01*
X1338696Y-7152114D01*
X1336864Y-7152537D01*
X1338273Y-7141965D01*
X1338978D01*
X1339542Y-7142106D01*
X1341375D01*
X1342925Y-7141824D01*
X1344758Y-7141542D01*
X1346873Y-7141119D01*
X1349269Y-7140414D01*
X1351525Y-7139427D01*
X1353921Y-7138158D01*
X1354062D01*
X1354203Y-7138017D01*
X1354908Y-7137454D01*
X1355895Y-7136467D01*
X1357022Y-7135198D01*
X1358150Y-7133365D01*
X1359137Y-7131251D01*
X1359842Y-7128854D01*
X1360124Y-7127445D01*
Y-7125894D01*
Y-7125753D01*
Y-7125612D01*
Y-7124766D01*
X1359842Y-7123639D01*
X1359560Y-7122088D01*
X1358996Y-7120396D01*
X1358291Y-7118564D01*
X1357163Y-7116731D01*
X1355613Y-7115039D01*
X1355472Y-7114898D01*
X1354767Y-7114335D01*
X1353780Y-7113630D01*
X1352511Y-7112784D01*
X1350820Y-7112079D01*
X1348846Y-7111374D01*
X1346591Y-7110810D01*
X1344053Y-7110669D01*
X1342925D01*
X1341657Y-7110951D01*
X1339965Y-7111233D01*
X1338132Y-7111797D01*
X1336300Y-7112502D01*
X1334326Y-7113630D01*
X1332494Y-7115039D01*
X1332353Y-7115180D01*
X1331789Y-7115885D01*
X1330943Y-7116872D01*
X1329956Y-7118282D01*
X1328969Y-7120114D01*
X1327983Y-7122370D01*
X1327137Y-7125048D01*
X1326573Y-7128150D01*
X1314590Y-7126035D01*
Y-7125894D01*
X1314731Y-7125471D01*
X1314872Y-7124907D01*
X1315013Y-7124061D01*
X1315295Y-7123075D01*
X1315718Y-7121947D01*
X1316564Y-7119268D01*
X1317974Y-7116167D01*
X1319665Y-7113066D01*
X1321780Y-7110105D01*
X1324458Y-7107427D01*
X1324599Y-7107286D01*
X1324881Y-7107145D01*
X1325304Y-7106863D01*
X1325868Y-7106440D01*
X1326573Y-7105876D01*
X1327560Y-7105312D01*
X1328546Y-7104749D01*
X1329815Y-7104044D01*
X1332635Y-7102916D01*
X1335877Y-7101788D01*
X1339683Y-7101083D01*
X1341657Y-7100801D01*
X1345181D01*
X1346732Y-7100942D01*
D02*
G37*
G36*
X1214053Y-5239674D02*
X1215039D01*
X1217718Y-5239956D01*
X1220678Y-5240379D01*
X1223780Y-5241083D01*
X1227163Y-5241929D01*
X1230264Y-5243057D01*
X1230405D01*
X1230687Y-5243198D01*
X1231110Y-5243480D01*
X1231674Y-5243762D01*
X1233084Y-5244467D01*
X1234916Y-5245736D01*
X1237031Y-5247145D01*
X1239145Y-5248978D01*
X1241119Y-5251092D01*
X1242952Y-5253489D01*
Y-5253630D01*
X1243093Y-5253771D01*
X1243374Y-5254194D01*
X1243656Y-5254617D01*
X1244361Y-5256026D01*
X1245207Y-5257859D01*
X1246194Y-5260114D01*
X1246899Y-5262793D01*
X1247604Y-5265612D01*
X1247885Y-5268714D01*
X1235480Y-5269700D01*
Y-5269559D01*
Y-5269277D01*
X1235339Y-5268855D01*
X1235198Y-5268150D01*
X1234775Y-5266599D01*
X1234211Y-5264485D01*
X1233366Y-5262229D01*
X1232097Y-5259973D01*
X1230546Y-5257859D01*
X1228573Y-5255885D01*
X1228291Y-5255744D01*
X1227586Y-5255180D01*
X1226176Y-5254335D01*
X1224343Y-5253489D01*
X1221947Y-5252643D01*
X1219128Y-5251797D01*
X1215603Y-5251233D01*
X1211656Y-5251092D01*
X1209683D01*
X1208837Y-5251233D01*
X1207709Y-5251374D01*
X1205172Y-5251656D01*
X1202352Y-5252220D01*
X1199533Y-5252925D01*
X1196854Y-5254053D01*
X1195727Y-5254758D01*
X1194599Y-5255462D01*
X1194317Y-5255603D01*
X1193753Y-5256167D01*
X1192907Y-5257154D01*
X1192061Y-5258282D01*
X1191075Y-5259833D01*
X1190229Y-5261524D01*
X1189665Y-5263498D01*
X1189383Y-5265753D01*
Y-5266035D01*
Y-5266599D01*
X1189524Y-5267586D01*
X1189806Y-5268714D01*
X1190229Y-5270123D01*
X1190934Y-5271533D01*
X1191779Y-5272943D01*
X1193048Y-5274352D01*
X1193189Y-5274493D01*
X1193894Y-5274916D01*
X1194458Y-5275339D01*
X1195022Y-5275621D01*
X1195868Y-5276044D01*
X1196854Y-5276608D01*
X1198123Y-5277031D01*
X1199533Y-5277595D01*
X1201083Y-5278159D01*
X1202916Y-5278863D01*
X1204890Y-5279427D01*
X1207145Y-5280132D01*
X1209683Y-5280696D01*
X1212502Y-5281401D01*
X1212643D01*
X1213207Y-5281542D01*
X1214053Y-5281683D01*
X1215039Y-5281965D01*
X1216308Y-5282247D01*
X1217859Y-5282670D01*
X1219410Y-5283093D01*
X1221101Y-5283515D01*
X1224766Y-5284502D01*
X1228291Y-5285489D01*
X1229982Y-5286053D01*
X1231533Y-5286617D01*
X1232943Y-5287040D01*
X1234070Y-5287604D01*
X1234211D01*
X1234493Y-5287745D01*
X1234916Y-5288027D01*
X1235480Y-5288308D01*
X1237031Y-5289154D01*
X1238863Y-5290282D01*
X1240978Y-5291833D01*
X1243093Y-5293524D01*
X1245066Y-5295498D01*
X1246758Y-5297612D01*
X1246899Y-5297894D01*
X1247463Y-5298599D01*
X1248026Y-5299868D01*
X1248872Y-5301560D01*
X1249577Y-5303533D01*
X1250282Y-5305930D01*
X1250705Y-5308608D01*
X1250846Y-5311428D01*
Y-5311568D01*
Y-5311709D01*
Y-5312132D01*
Y-5312696D01*
X1250564Y-5314247D01*
X1250282Y-5316221D01*
X1249718Y-5318476D01*
X1249013Y-5320873D01*
X1247885Y-5323410D01*
X1246335Y-5326088D01*
Y-5326229D01*
X1246194Y-5326370D01*
X1245489Y-5327216D01*
X1244502Y-5328485D01*
X1243093Y-5329895D01*
X1241260Y-5331586D01*
X1239004Y-5333419D01*
X1236467Y-5335110D01*
X1233507Y-5336661D01*
X1233366D01*
X1233084Y-5336802D01*
X1232661Y-5336943D01*
X1232097Y-5337225D01*
X1231251Y-5337507D01*
X1230264Y-5337930D01*
X1228009Y-5338494D01*
X1225330Y-5339199D01*
X1222088Y-5339903D01*
X1218564Y-5340326D01*
X1214758Y-5340467D01*
X1212502D01*
X1211374Y-5340326D01*
X1210106D01*
X1208696Y-5340185D01*
X1207004Y-5340044D01*
X1203480Y-5339481D01*
X1199815Y-5338917D01*
X1196149Y-5337930D01*
X1192625Y-5336661D01*
X1192484D01*
X1192202Y-5336520D01*
X1191779Y-5336238D01*
X1191216Y-5335956D01*
X1189524Y-5335110D01*
X1187550Y-5333842D01*
X1185295Y-5332150D01*
X1182898Y-5330177D01*
X1180643Y-5327780D01*
X1178528Y-5325102D01*
Y-5324961D01*
X1178246Y-5324679D01*
X1178105Y-5324256D01*
X1177682Y-5323692D01*
X1177400Y-5322987D01*
X1176978Y-5322141D01*
X1175991Y-5320027D01*
X1175004Y-5317348D01*
X1174158Y-5314388D01*
X1173594Y-5311005D01*
X1173312Y-5307480D01*
X1185436Y-5306353D01*
Y-5306494D01*
Y-5306635D01*
X1185577Y-5307057D01*
Y-5307621D01*
X1185859Y-5308890D01*
X1186282Y-5310723D01*
X1186845Y-5312555D01*
X1187409Y-5314670D01*
X1188396Y-5316643D01*
X1189383Y-5318476D01*
X1189524Y-5318617D01*
X1189947Y-5319181D01*
X1190652Y-5320168D01*
X1191779Y-5321154D01*
X1193189Y-5322423D01*
X1194740Y-5323692D01*
X1196854Y-5324961D01*
X1199110Y-5326088D01*
X1199251D01*
X1199392Y-5326229D01*
X1199815Y-5326370D01*
X1200238Y-5326511D01*
X1201647Y-5326934D01*
X1203480Y-5327498D01*
X1205735Y-5328062D01*
X1208273Y-5328485D01*
X1211092Y-5328767D01*
X1214194Y-5328908D01*
X1215462D01*
X1216872Y-5328767D01*
X1218564Y-5328626D01*
X1220537Y-5328344D01*
X1222793Y-5328062D01*
X1225048Y-5327498D01*
X1227163Y-5326793D01*
X1227445Y-5326652D01*
X1228150Y-5326370D01*
X1229136Y-5325806D01*
X1230405Y-5325243D01*
X1231674Y-5324256D01*
X1233084Y-5323269D01*
X1234493Y-5322141D01*
X1235621Y-5320732D01*
X1235762Y-5320591D01*
X1236044Y-5320027D01*
X1236467Y-5319322D01*
X1237031Y-5318194D01*
X1237595Y-5317066D01*
X1238018Y-5315657D01*
X1238300Y-5314106D01*
X1238440Y-5312414D01*
Y-5312273D01*
Y-5311568D01*
X1238300Y-5310723D01*
X1238159Y-5309595D01*
X1237736Y-5308467D01*
X1237313Y-5307057D01*
X1236608Y-5305648D01*
X1235621Y-5304379D01*
X1235480Y-5304238D01*
X1235057Y-5303815D01*
X1234493Y-5303251D01*
X1233507Y-5302405D01*
X1232379Y-5301560D01*
X1230828Y-5300573D01*
X1228996Y-5299586D01*
X1226881Y-5298740D01*
X1226740Y-5298599D01*
X1226035Y-5298458D01*
X1224907Y-5298035D01*
X1224203Y-5297894D01*
X1223216Y-5297612D01*
X1222229Y-5297190D01*
X1220960Y-5296908D01*
X1219551Y-5296485D01*
X1217859Y-5296062D01*
X1216167Y-5295639D01*
X1214194Y-5295075D01*
X1211938Y-5294511D01*
X1209542Y-5293947D01*
X1209401D01*
X1208978Y-5293806D01*
X1208273Y-5293665D01*
X1207427Y-5293383D01*
X1206299Y-5293101D01*
X1205031Y-5292819D01*
X1202211Y-5291974D01*
X1199110Y-5290987D01*
X1195868Y-5290000D01*
X1193048Y-5289013D01*
X1191779Y-5288449D01*
X1190652Y-5287886D01*
X1190511D01*
X1190370Y-5287745D01*
X1189524Y-5287181D01*
X1188255Y-5286476D01*
X1186845Y-5285348D01*
X1185154Y-5284079D01*
X1183462Y-5282529D01*
X1181771Y-5280696D01*
X1180361Y-5278722D01*
X1180220Y-5278441D01*
X1179797Y-5277736D01*
X1179233Y-5276608D01*
X1178669Y-5275198D01*
X1178105Y-5273366D01*
X1177541Y-5271251D01*
X1177119Y-5268996D01*
X1176978Y-5266599D01*
Y-5266458D01*
Y-5266317D01*
Y-5265894D01*
Y-5265330D01*
X1177260Y-5263921D01*
X1177541Y-5262088D01*
X1177964Y-5259973D01*
X1178669Y-5257577D01*
X1179656Y-5255180D01*
X1181066Y-5252784D01*
Y-5252643D01*
X1181207Y-5252502D01*
X1181912Y-5251656D01*
X1182898Y-5250528D01*
X1184167Y-5249119D01*
X1185859Y-5247568D01*
X1187973Y-5245876D01*
X1190511Y-5244326D01*
X1193330Y-5242916D01*
X1193471D01*
X1193753Y-5242775D01*
X1194176Y-5242634D01*
X1194740Y-5242352D01*
X1195445Y-5242070D01*
X1196431Y-5241788D01*
X1198546Y-5241224D01*
X1201224Y-5240661D01*
X1204326Y-5240097D01*
X1207568Y-5239674D01*
X1211233Y-5239533D01*
X1213066D01*
X1214053Y-5239674D01*
D02*
G37*
G36*
X1298353Y-5240943D02*
X1299481Y-5241083D01*
X1300890Y-5241224D01*
X1302441Y-5241506D01*
X1303992Y-5241788D01*
X1307657Y-5242775D01*
X1311322Y-5244185D01*
X1313155Y-5245031D01*
X1314987Y-5246017D01*
X1316679Y-5247286D01*
X1318230Y-5248696D01*
X1318370Y-5248837D01*
X1318652Y-5248978D01*
X1318934Y-5249542D01*
X1319498Y-5250106D01*
X1320203Y-5250810D01*
X1320908Y-5251797D01*
X1321613Y-5252784D01*
X1322459Y-5254053D01*
X1323868Y-5256731D01*
X1325278Y-5260114D01*
X1325842Y-5261806D01*
X1326124Y-5263780D01*
X1326406Y-5265753D01*
X1326547Y-5267868D01*
Y-5268150D01*
Y-5268855D01*
X1326406Y-5269982D01*
X1326265Y-5271533D01*
X1325983Y-5273225D01*
X1325419Y-5275198D01*
X1324855Y-5277313D01*
X1324009Y-5279427D01*
X1323868Y-5279709D01*
X1323586Y-5280414D01*
X1323023Y-5281542D01*
X1322177Y-5283093D01*
X1321049Y-5284784D01*
X1319639Y-5286899D01*
X1317948Y-5289013D01*
X1315974Y-5291410D01*
X1315692Y-5291692D01*
X1314987Y-5292538D01*
X1314282Y-5293242D01*
X1313578Y-5293947D01*
X1312732Y-5294793D01*
X1311604Y-5295921D01*
X1310476Y-5297049D01*
X1309066Y-5298317D01*
X1307657Y-5299727D01*
X1305965Y-5301278D01*
X1304133Y-5302828D01*
X1302159Y-5304661D01*
X1299903Y-5306494D01*
X1297648Y-5308467D01*
X1297507Y-5308608D01*
X1297225Y-5308890D01*
X1296661Y-5309313D01*
X1295956Y-5309877D01*
X1295110Y-5310723D01*
X1294124Y-5311568D01*
X1291868Y-5313401D01*
X1289472Y-5315516D01*
X1287216Y-5317630D01*
X1285243Y-5319463D01*
X1284397Y-5320168D01*
X1283692Y-5320873D01*
X1283551Y-5321013D01*
X1283128Y-5321436D01*
X1282564Y-5322000D01*
X1281859Y-5322846D01*
X1281154Y-5323833D01*
X1280309Y-5324820D01*
X1278617Y-5327216D01*
X1326688D01*
Y-5338776D01*
X1261982D01*
Y-5338635D01*
Y-5338071D01*
Y-5337225D01*
X1262123Y-5336097D01*
X1262264Y-5334829D01*
X1262546Y-5333419D01*
X1262828Y-5332009D01*
X1263392Y-5330458D01*
Y-5330318D01*
X1263533Y-5330177D01*
X1263815Y-5329331D01*
X1264379Y-5328062D01*
X1265225Y-5326370D01*
X1266353Y-5324397D01*
X1267762Y-5322141D01*
X1269313Y-5319886D01*
X1271287Y-5317489D01*
Y-5317348D01*
X1271568Y-5317207D01*
X1272273Y-5316361D01*
X1273542Y-5315093D01*
X1275375Y-5313260D01*
X1277489Y-5311146D01*
X1280168Y-5308608D01*
X1283410Y-5305789D01*
X1286934Y-5302828D01*
X1287075Y-5302687D01*
X1287639Y-5302264D01*
X1288485Y-5301560D01*
X1289472Y-5300714D01*
X1290740Y-5299586D01*
X1292291Y-5298317D01*
X1293842Y-5296908D01*
X1295674Y-5295357D01*
X1299199Y-5291974D01*
X1302723Y-5288590D01*
X1304414Y-5286899D01*
X1305965Y-5285207D01*
X1307375Y-5283656D01*
X1308503Y-5282106D01*
Y-5281965D01*
X1308785Y-5281824D01*
X1309066Y-5281401D01*
X1309348Y-5280837D01*
X1310335Y-5279286D01*
X1311463Y-5277454D01*
X1312450Y-5275198D01*
X1313437Y-5272802D01*
X1314000Y-5270123D01*
X1314282Y-5267586D01*
Y-5267445D01*
Y-5267304D01*
X1314141Y-5266458D01*
X1314000Y-5265048D01*
X1313578Y-5263498D01*
X1313014Y-5261524D01*
X1312027Y-5259551D01*
X1310758Y-5257577D01*
X1309066Y-5255603D01*
X1308785Y-5255321D01*
X1308080Y-5254758D01*
X1307093Y-5254053D01*
X1305542Y-5253066D01*
X1303569Y-5252220D01*
X1301313Y-5251374D01*
X1298635Y-5250810D01*
X1295674Y-5250669D01*
X1294828D01*
X1294265Y-5250810D01*
X1292573Y-5250951D01*
X1290599Y-5251374D01*
X1288485Y-5251938D01*
X1286088Y-5252925D01*
X1283833Y-5254194D01*
X1281718Y-5255885D01*
X1281436Y-5256167D01*
X1280872Y-5256872D01*
X1280027Y-5258000D01*
X1279181Y-5259692D01*
X1278194Y-5261665D01*
X1277348Y-5264203D01*
X1276784Y-5267022D01*
X1276502Y-5270264D01*
X1264238Y-5268996D01*
Y-5268855D01*
X1264379Y-5268432D01*
Y-5267727D01*
X1264520Y-5266740D01*
X1264802Y-5265612D01*
X1265084Y-5264344D01*
X1265507Y-5262793D01*
X1265930Y-5261242D01*
X1267057Y-5257859D01*
X1268749Y-5254476D01*
X1269736Y-5252784D01*
X1271005Y-5251092D01*
X1272273Y-5249542D01*
X1273683Y-5248132D01*
X1273824Y-5247991D01*
X1274106Y-5247850D01*
X1274529Y-5247427D01*
X1275234Y-5247004D01*
X1276079Y-5246440D01*
X1277066Y-5245876D01*
X1278194Y-5245172D01*
X1279604Y-5244467D01*
X1281154Y-5243762D01*
X1282846Y-5243057D01*
X1284679Y-5242493D01*
X1286652Y-5241929D01*
X1288767Y-5241506D01*
X1291022Y-5241083D01*
X1293419Y-5240943D01*
X1295956Y-5240802D01*
X1297366D01*
X1298353Y-5240943D01*
D02*
G37*
G36*
X1063004Y-979674D02*
X1063991D01*
X1066670Y-979956D01*
X1069630Y-980379D01*
X1072731Y-981084D01*
X1076115Y-981930D01*
X1079216Y-983057D01*
X1079357D01*
X1079639Y-983198D01*
X1080062Y-983480D01*
X1080626Y-983762D01*
X1082035Y-984467D01*
X1083868Y-985736D01*
X1085983Y-987146D01*
X1088097Y-988978D01*
X1090071Y-991093D01*
X1091903Y-993489D01*
Y-993630D01*
X1092044Y-993771D01*
X1092326Y-994194D01*
X1092608Y-994617D01*
X1093313Y-996027D01*
X1094159Y-997859D01*
X1095146Y-1000115D01*
X1095850Y-1002793D01*
X1096555Y-1005613D01*
X1096837Y-1008714D01*
X1084432Y-1009701D01*
Y-1009560D01*
Y-1009278D01*
X1084291Y-1008855D01*
X1084150Y-1008150D01*
X1083727Y-1006599D01*
X1083163Y-1004485D01*
X1082317Y-1002229D01*
X1081049Y-999974D01*
X1079498Y-997859D01*
X1077524Y-995886D01*
X1077242Y-995745D01*
X1076538Y-995181D01*
X1075128Y-994335D01*
X1073295Y-993489D01*
X1070899Y-992643D01*
X1068079Y-991798D01*
X1064555Y-991234D01*
X1060608Y-991093D01*
X1058634D01*
X1057789Y-991234D01*
X1056661Y-991375D01*
X1054123Y-991657D01*
X1051304Y-992221D01*
X1048485Y-992925D01*
X1045806Y-994053D01*
X1044678Y-994758D01*
X1043551Y-995463D01*
X1043269Y-995604D01*
X1042705Y-996168D01*
X1041859Y-997154D01*
X1041013Y-998282D01*
X1040026Y-999833D01*
X1039181Y-1001525D01*
X1038617Y-1003498D01*
X1038335Y-1005754D01*
Y-1006036D01*
Y-1006599D01*
X1038476Y-1007586D01*
X1038758Y-1008714D01*
X1039181Y-1010124D01*
X1039885Y-1011533D01*
X1040731Y-1012943D01*
X1042000Y-1014353D01*
X1042141Y-1014494D01*
X1042846Y-1014917D01*
X1043410Y-1015340D01*
X1043974Y-1015622D01*
X1044819Y-1016044D01*
X1045806Y-1016608D01*
X1047075Y-1017031D01*
X1048485Y-1017595D01*
X1050035Y-1018159D01*
X1051868Y-1018864D01*
X1053841Y-1019428D01*
X1056097Y-1020133D01*
X1058634Y-1020696D01*
X1061454Y-1021401D01*
X1061595D01*
X1062159Y-1021542D01*
X1063004Y-1021683D01*
X1063991Y-1021965D01*
X1065260Y-1022247D01*
X1066811Y-1022670D01*
X1068361Y-1023093D01*
X1070053Y-1023516D01*
X1073718Y-1024503D01*
X1077242Y-1025489D01*
X1078934Y-1026053D01*
X1080485Y-1026617D01*
X1081894Y-1027040D01*
X1083022Y-1027604D01*
X1083163D01*
X1083445Y-1027745D01*
X1083868Y-1028027D01*
X1084432Y-1028309D01*
X1085983Y-1029155D01*
X1087815Y-1030282D01*
X1089930Y-1031833D01*
X1092044Y-1033525D01*
X1094018Y-1035498D01*
X1095710Y-1037613D01*
X1095850Y-1037895D01*
X1096414Y-1038600D01*
X1096978Y-1039868D01*
X1097824Y-1041560D01*
X1098529Y-1043534D01*
X1099234Y-1045930D01*
X1099657Y-1048609D01*
X1099798Y-1051428D01*
Y-1051569D01*
Y-1051710D01*
Y-1052133D01*
Y-1052697D01*
X1099516Y-1054247D01*
X1099234Y-1056221D01*
X1098670Y-1058476D01*
X1097965Y-1060873D01*
X1096837Y-1063410D01*
X1095287Y-1066089D01*
Y-1066230D01*
X1095146Y-1066371D01*
X1094441Y-1067217D01*
X1093454Y-1068485D01*
X1092044Y-1069895D01*
X1090212Y-1071587D01*
X1087956Y-1073419D01*
X1085419Y-1075111D01*
X1082458Y-1076662D01*
X1082317D01*
X1082035Y-1076803D01*
X1081613Y-1076943D01*
X1081049Y-1077225D01*
X1080203Y-1077507D01*
X1079216Y-1077930D01*
X1076961Y-1078494D01*
X1074282Y-1079199D01*
X1071040Y-1079904D01*
X1067516Y-1080327D01*
X1063709Y-1080468D01*
X1061454D01*
X1060326Y-1080327D01*
X1059057D01*
X1057648Y-1080186D01*
X1055956Y-1080045D01*
X1052432Y-1079481D01*
X1048767Y-1078917D01*
X1045101Y-1077930D01*
X1041577Y-1076662D01*
X1041436D01*
X1041154Y-1076521D01*
X1040731Y-1076239D01*
X1040167Y-1075957D01*
X1038476Y-1075111D01*
X1036502Y-1073842D01*
X1034247Y-1072151D01*
X1031850Y-1070177D01*
X1029595Y-1067780D01*
X1027480Y-1065102D01*
Y-1064961D01*
X1027198Y-1064679D01*
X1027057Y-1064256D01*
X1026634Y-1063692D01*
X1026352Y-1062987D01*
X1025929Y-1062142D01*
X1024943Y-1060027D01*
X1023956Y-1057349D01*
X1023110Y-1054388D01*
X1022546Y-1051005D01*
X1022264Y-1047481D01*
X1034388Y-1046353D01*
Y-1046494D01*
Y-1046635D01*
X1034529Y-1047058D01*
Y-1047622D01*
X1034810Y-1048890D01*
X1035233Y-1050723D01*
X1035797Y-1052556D01*
X1036361Y-1054670D01*
X1037348Y-1056644D01*
X1038335Y-1058476D01*
X1038476Y-1058617D01*
X1038899Y-1059181D01*
X1039603Y-1060168D01*
X1040731Y-1061155D01*
X1042141Y-1062424D01*
X1043692Y-1063692D01*
X1045806Y-1064961D01*
X1048062Y-1066089D01*
X1048203D01*
X1048344Y-1066230D01*
X1048767Y-1066371D01*
X1049189Y-1066512D01*
X1050599Y-1066935D01*
X1052432Y-1067498D01*
X1054687Y-1068062D01*
X1057225Y-1068485D01*
X1060044Y-1068767D01*
X1063145Y-1068908D01*
X1064414D01*
X1065824Y-1068767D01*
X1067516Y-1068626D01*
X1069489Y-1068344D01*
X1071745Y-1068062D01*
X1074000Y-1067498D01*
X1076115Y-1066794D01*
X1076397Y-1066653D01*
X1077101Y-1066371D01*
X1078088Y-1065807D01*
X1079357Y-1065243D01*
X1080626Y-1064256D01*
X1082035Y-1063269D01*
X1083445Y-1062142D01*
X1084573Y-1060732D01*
X1084714Y-1060591D01*
X1084996Y-1060027D01*
X1085419Y-1059322D01*
X1085983Y-1058194D01*
X1086546Y-1057067D01*
X1086969Y-1055657D01*
X1087251Y-1054106D01*
X1087392Y-1052415D01*
Y-1052274D01*
Y-1051569D01*
X1087251Y-1050723D01*
X1087110Y-1049595D01*
X1086687Y-1048468D01*
X1086265Y-1047058D01*
X1085560Y-1045648D01*
X1084573Y-1044379D01*
X1084432Y-1044238D01*
X1084009Y-1043816D01*
X1083445Y-1043252D01*
X1082458Y-1042406D01*
X1081331Y-1041560D01*
X1079780Y-1040573D01*
X1077947Y-1039586D01*
X1075833Y-1038741D01*
X1075692Y-1038600D01*
X1074987Y-1038459D01*
X1073859Y-1038036D01*
X1073154Y-1037895D01*
X1072168Y-1037613D01*
X1071181Y-1037190D01*
X1069912Y-1036908D01*
X1068502Y-1036485D01*
X1066811Y-1036062D01*
X1065119Y-1035639D01*
X1063145Y-1035075D01*
X1060890Y-1034512D01*
X1058493Y-1033948D01*
X1058352D01*
X1057930Y-1033807D01*
X1057225Y-1033666D01*
X1056379Y-1033384D01*
X1055251Y-1033102D01*
X1053982Y-1032820D01*
X1051163Y-1031974D01*
X1048062Y-1030987D01*
X1044819Y-1030000D01*
X1042000Y-1029014D01*
X1040731Y-1028450D01*
X1039603Y-1027886D01*
X1039462D01*
X1039322Y-1027745D01*
X1038476Y-1027181D01*
X1037207Y-1026476D01*
X1035797Y-1025348D01*
X1034106Y-1024080D01*
X1032414Y-1022529D01*
X1030722Y-1020696D01*
X1029313Y-1018723D01*
X1029172Y-1018441D01*
X1028749Y-1017736D01*
X1028185Y-1016608D01*
X1027621Y-1015199D01*
X1027057Y-1013366D01*
X1026493Y-1011251D01*
X1026070Y-1008996D01*
X1025929Y-1006599D01*
Y-1006458D01*
Y-1006318D01*
Y-1005895D01*
Y-1005331D01*
X1026211Y-1003921D01*
X1026493Y-1002088D01*
X1026916Y-999974D01*
X1027621Y-997577D01*
X1028608Y-995181D01*
X1030017Y-992784D01*
Y-992643D01*
X1030158Y-992502D01*
X1030863Y-991657D01*
X1031850Y-990529D01*
X1033119Y-989119D01*
X1034810Y-987569D01*
X1036925Y-985877D01*
X1039462Y-984326D01*
X1042282Y-982916D01*
X1042423D01*
X1042705Y-982776D01*
X1043128Y-982635D01*
X1043692Y-982353D01*
X1044396Y-982071D01*
X1045383Y-981789D01*
X1047498Y-981225D01*
X1050176Y-980661D01*
X1053278Y-980097D01*
X1056520Y-979674D01*
X1060185Y-979533D01*
X1062018D01*
X1063004Y-979674D01*
D02*
G37*
G36*
X1157736Y-1078776D02*
X1145754D01*
Y-1002511D01*
X1145613Y-1002652D01*
X1144908Y-1003216D01*
X1144062Y-1004062D01*
X1142653Y-1005049D01*
X1141102Y-1006318D01*
X1139128Y-1007727D01*
X1136873Y-1009278D01*
X1134335Y-1010829D01*
X1134194D01*
X1134053Y-1010970D01*
X1133208Y-1011533D01*
X1131798Y-1012238D01*
X1130106Y-1013084D01*
X1128133Y-1014071D01*
X1126018Y-1015058D01*
X1123904Y-1016044D01*
X1121789Y-1016890D01*
Y-1005331D01*
X1121930D01*
X1122212Y-1005049D01*
X1122776Y-1004908D01*
X1123481Y-1004485D01*
X1124326Y-1004062D01*
X1125313Y-1003498D01*
X1127710Y-1002088D01*
X1130529Y-1000538D01*
X1133349Y-998564D01*
X1136309Y-996309D01*
X1139269Y-993912D01*
X1139410Y-993771D01*
X1139551Y-993630D01*
X1139974Y-993207D01*
X1140538Y-992784D01*
X1141807Y-991375D01*
X1143498Y-989683D01*
X1145190Y-987709D01*
X1147023Y-985454D01*
X1148573Y-983198D01*
X1149983Y-980802D01*
X1157736D01*
Y-1078776D01*
D02*
G37*
G36*
X3109216Y-9128987D02*
X3097234D01*
Y-9052722D01*
X3097093Y-9052863D01*
X3096388Y-9053427D01*
X3095542Y-9054273D01*
X3094132Y-9055260D01*
X3092582Y-9056528D01*
X3090608Y-9057938D01*
X3088353Y-9059489D01*
X3085815Y-9061039D01*
X3085674D01*
X3085533Y-9061180D01*
X3084688Y-9061744D01*
X3083278Y-9062449D01*
X3081586Y-9063295D01*
X3079613Y-9064282D01*
X3077498Y-9065268D01*
X3075383Y-9066255D01*
X3073269Y-9067101D01*
Y-9055541D01*
X3073410D01*
X3073692Y-9055260D01*
X3074256Y-9055119D01*
X3074961Y-9054696D01*
X3075806Y-9054273D01*
X3076793Y-9053709D01*
X3079190Y-9052299D01*
X3082009Y-9050748D01*
X3084828Y-9048775D01*
X3087789Y-9046519D01*
X3090749Y-9044123D01*
X3090890Y-9043982D01*
X3091031Y-9043841D01*
X3091454Y-9043418D01*
X3092018Y-9042995D01*
X3093287Y-9041585D01*
X3094978Y-9039894D01*
X3096670Y-9037920D01*
X3098503Y-9035665D01*
X3100053Y-9033409D01*
X3101463Y-9031013D01*
X3109216D01*
Y-9128987D01*
D02*
G37*
G36*
X3017163Y-9031577D02*
X3018432D01*
X3021392Y-9031718D01*
X3024493Y-9032140D01*
X3027877Y-9032563D01*
X3030978Y-9033268D01*
X3032529Y-9033691D01*
X3033797Y-9034114D01*
X3033938D01*
X3034079Y-9034255D01*
X3034925Y-9034678D01*
X3036194Y-9035242D01*
X3037744Y-9036229D01*
X3039436Y-9037497D01*
X3041269Y-9039189D01*
X3042960Y-9041163D01*
X3044652Y-9043418D01*
Y-9043559D01*
X3044793Y-9043700D01*
X3045357Y-9044546D01*
X3045921Y-9045955D01*
X3046767Y-9047788D01*
X3047471Y-9049903D01*
X3048176Y-9052440D01*
X3048599Y-9055119D01*
X3048740Y-9058079D01*
Y-9058220D01*
Y-9058502D01*
Y-9059066D01*
X3048599Y-9059771D01*
Y-9060757D01*
X3048458Y-9061744D01*
X3047894Y-9064141D01*
X3047049Y-9066960D01*
X3045921Y-9069920D01*
X3044229Y-9072881D01*
X3043101Y-9074290D01*
X3041974Y-9075700D01*
X3041833Y-9075841D01*
X3041692Y-9075982D01*
X3041269Y-9076405D01*
X3040705Y-9076828D01*
X3040000Y-9077392D01*
X3039154Y-9077956D01*
X3038026Y-9078661D01*
X3036899Y-9079506D01*
X3035489Y-9080211D01*
X3033938Y-9080916D01*
X3032247Y-9081762D01*
X3030414Y-9082467D01*
X3028300Y-9083031D01*
X3026185Y-9083735D01*
X3023788Y-9084158D01*
X3021251Y-9084581D01*
X3021533Y-9084722D01*
X3022097Y-9085004D01*
X3022943Y-9085568D01*
X3024070Y-9086132D01*
X3026608Y-9087683D01*
X3027877Y-9088669D01*
X3029004Y-9089515D01*
X3029286Y-9089797D01*
X3029991Y-9090502D01*
X3031119Y-9091630D01*
X3032529Y-9093039D01*
X3034079Y-9095013D01*
X3035912Y-9097128D01*
X3037744Y-9099665D01*
X3039718Y-9102484D01*
X3056494Y-9128987D01*
X3040423D01*
X3027595Y-9108687D01*
Y-9108546D01*
X3027313Y-9108264D01*
X3027031Y-9107841D01*
X3026608Y-9107277D01*
X3025621Y-9105727D01*
X3024352Y-9103753D01*
X3022802Y-9101639D01*
X3021251Y-9099383D01*
X3019700Y-9097269D01*
X3018291Y-9095295D01*
X3018150Y-9095154D01*
X3017727Y-9094590D01*
X3017022Y-9093744D01*
X3016035Y-9092758D01*
X3013921Y-9090643D01*
X3012793Y-9089656D01*
X3011665Y-9088810D01*
X3011524Y-9088669D01*
X3011242Y-9088528D01*
X3010678Y-9088246D01*
X3009832Y-9087824D01*
X3008987Y-9087401D01*
X3008000Y-9086978D01*
X3005744Y-9086273D01*
X3005603D01*
X3005321Y-9086132D01*
X3004758D01*
X3004053Y-9085991D01*
X3003066Y-9085850D01*
X3001938D01*
X3000387Y-9085709D01*
X2983753D01*
Y-9128987D01*
X2970784D01*
Y-9031436D01*
X3016035D01*
X3017163Y-9031577D01*
D02*
G37*
G36*
X536749Y-9986917D02*
Y-9987057D01*
Y-9987480D01*
Y-9988044D01*
Y-9988890D01*
X536608Y-9990018D01*
Y-9991146D01*
X536326Y-9993824D01*
X536044Y-9996925D01*
X535480Y-10000168D01*
X534634Y-10003128D01*
X533647Y-10005947D01*
Y-10006088D01*
X533506Y-10006229D01*
X533084Y-10007075D01*
X532379Y-10008203D01*
X531392Y-10009754D01*
X529982Y-10011304D01*
X528432Y-10012996D01*
X526458Y-10014688D01*
X524202Y-10016097D01*
X523920Y-10016238D01*
X523075Y-10016661D01*
X521806Y-10017225D01*
X519973Y-10017789D01*
X517718Y-10018494D01*
X515180Y-10019058D01*
X512361Y-10019481D01*
X509260Y-10019622D01*
X507991D01*
X507145Y-10019481D01*
X506017Y-10019340D01*
X504890Y-10019199D01*
X501929Y-10018635D01*
X498828Y-10017789D01*
X495585Y-10016520D01*
X493894Y-10015674D01*
X492343Y-10014688D01*
X490933Y-10013560D01*
X489524Y-10012291D01*
X489383Y-10012150D01*
X489242Y-10012009D01*
X488960Y-10011445D01*
X488537Y-10010881D01*
X487973Y-10010177D01*
X487409Y-10009190D01*
X486845Y-10008062D01*
X486141Y-10006793D01*
X485577Y-10005384D01*
X485013Y-10003692D01*
X484449Y-10002000D01*
X483885Y-10000027D01*
X483603Y-9997912D01*
X483180Y-9995516D01*
X483039Y-9993119D01*
Y-9990441D01*
X494740Y-9988749D01*
Y-9988890D01*
Y-9989172D01*
Y-9989736D01*
X494881Y-9990582D01*
X495022Y-9991428D01*
Y-9992414D01*
X495445Y-9994811D01*
X495867Y-9997348D01*
X496713Y-9999886D01*
X497559Y-10002141D01*
X498123Y-10003128D01*
X498828Y-10003974D01*
X498969Y-10004115D01*
X499533Y-10004538D01*
X500378Y-10005243D01*
X501506Y-10005947D01*
X503057Y-10006793D01*
X504749Y-10007357D01*
X506863Y-10007921D01*
X509119Y-10008062D01*
X509964D01*
X510810Y-10007921D01*
X512079Y-10007780D01*
X513348Y-10007498D01*
X514757Y-10007216D01*
X516167Y-10006652D01*
X517577Y-10005947D01*
X517718Y-10005807D01*
X518141Y-10005525D01*
X518705Y-10004961D01*
X519550Y-10004397D01*
X520255Y-10003410D01*
X521101Y-10002423D01*
X521806Y-10001295D01*
X522370Y-9999886D01*
Y-9999745D01*
X522652Y-9999181D01*
X522793Y-9998194D01*
X523075Y-9996925D01*
X523357Y-9995234D01*
X523498Y-9993119D01*
X523779Y-9990582D01*
Y-9987621D01*
Y-9920379D01*
X536749D01*
Y-9986917D01*
D02*
G37*
G36*
X616961Y-9931092D02*
X616820Y-9931233D01*
X616538Y-9931515D01*
X615974Y-9932079D01*
X615410Y-9932925D01*
X614564Y-9933912D01*
X613436Y-9935040D01*
X612309Y-9936449D01*
X611040Y-9938141D01*
X609771Y-9939833D01*
X608221Y-9941806D01*
X606670Y-9944062D01*
X605119Y-9946317D01*
X603428Y-9948855D01*
X601736Y-9951533D01*
X600044Y-9954493D01*
X598353Y-9957454D01*
X598212Y-9957595D01*
X597930Y-9958159D01*
X597507Y-9959004D01*
X596802Y-9960273D01*
X596097Y-9961824D01*
X595251Y-9963516D01*
X594264Y-9965489D01*
X593278Y-9967745D01*
X592150Y-9970282D01*
X590881Y-9972820D01*
X589753Y-9975639D01*
X588626Y-9978599D01*
X586370Y-9984661D01*
X584256Y-9991146D01*
Y-9991287D01*
X584115Y-9991710D01*
X583974Y-9992414D01*
X583692Y-9993260D01*
X583410Y-9994388D01*
X583128Y-9995798D01*
X582705Y-9997348D01*
X582423Y-9999040D01*
X582000Y-10001014D01*
X581577Y-10003128D01*
X580872Y-10007639D01*
X580167Y-10012573D01*
X579745Y-10017930D01*
X567480D01*
Y-10017789D01*
Y-10017366D01*
Y-10016802D01*
X567621Y-10015956D01*
Y-10014829D01*
X567762Y-10013419D01*
X567903Y-10011868D01*
X568044Y-10010177D01*
X568326Y-10008203D01*
X568608Y-10006229D01*
X569031Y-10003833D01*
X569454Y-10001436D01*
X569877Y-9998899D01*
X570441Y-9996080D01*
X571850Y-9990300D01*
Y-9990159D01*
X571991Y-9989595D01*
X572273Y-9988749D01*
X572696Y-9987480D01*
X573119Y-9986071D01*
X573683Y-9984379D01*
X574247Y-9982405D01*
X575093Y-9980291D01*
X575938Y-9977894D01*
X576784Y-9975498D01*
X578899Y-9970141D01*
X581436Y-9964502D01*
X584256Y-9958863D01*
X584397Y-9958723D01*
X584679Y-9958159D01*
X585101Y-9957454D01*
X585665Y-9956326D01*
X586370Y-9955057D01*
X587357Y-9953507D01*
X588344Y-9951815D01*
X589472Y-9949982D01*
X592150Y-9945894D01*
X594969Y-9941665D01*
X598212Y-9937295D01*
X601595Y-9933207D01*
X553806D01*
Y-9921647D01*
X616961D01*
Y-9931092D01*
D02*
G37*
G36*
X887242Y-6267128D02*
Y-6267269D01*
Y-6267692D01*
Y-6268255D01*
Y-6269101D01*
X887101Y-6270229D01*
Y-6271357D01*
X886819Y-6274035D01*
X886537Y-6277137D01*
X885974Y-6280379D01*
X885128Y-6283339D01*
X884141Y-6286159D01*
Y-6286300D01*
X884000Y-6286441D01*
X883577Y-6287286D01*
X882872Y-6288414D01*
X881885Y-6289965D01*
X880476Y-6291515D01*
X878925Y-6293207D01*
X876952Y-6294899D01*
X874696Y-6296308D01*
X874414Y-6296449D01*
X873568Y-6296872D01*
X872299Y-6297436D01*
X870467Y-6298000D01*
X868211Y-6298705D01*
X865674Y-6299269D01*
X862855Y-6299692D01*
X859753Y-6299833D01*
X858484D01*
X857639Y-6299692D01*
X856511Y-6299551D01*
X855383Y-6299410D01*
X852423Y-6298846D01*
X849321Y-6298000D01*
X846079Y-6296731D01*
X844387Y-6295886D01*
X842837Y-6294899D01*
X841427Y-6293771D01*
X840017Y-6292502D01*
X839876Y-6292361D01*
X839735Y-6292220D01*
X839453Y-6291656D01*
X839031Y-6291093D01*
X838467Y-6290388D01*
X837903Y-6289401D01*
X837339Y-6288273D01*
X836634Y-6287004D01*
X836070Y-6285595D01*
X835506Y-6283903D01*
X834942Y-6282211D01*
X834379Y-6280238D01*
X834097Y-6278123D01*
X833674Y-6275727D01*
X833533Y-6273330D01*
Y-6270652D01*
X845233Y-6268960D01*
Y-6269101D01*
Y-6269383D01*
Y-6269947D01*
X845374Y-6270793D01*
X845515Y-6271639D01*
Y-6272626D01*
X845938Y-6275022D01*
X846361Y-6277559D01*
X847207Y-6280097D01*
X848053Y-6282352D01*
X848617Y-6283339D01*
X849321Y-6284185D01*
X849462Y-6284326D01*
X850026Y-6284749D01*
X850872Y-6285454D01*
X852000Y-6286159D01*
X853550Y-6287004D01*
X855242Y-6287568D01*
X857357Y-6288132D01*
X859612Y-6288273D01*
X860458D01*
X861304Y-6288132D01*
X862573Y-6287991D01*
X863841Y-6287709D01*
X865251Y-6287427D01*
X866661Y-6286863D01*
X868070Y-6286159D01*
X868211Y-6286018D01*
X868634Y-6285736D01*
X869198Y-6285172D01*
X870044Y-6284608D01*
X870749Y-6283621D01*
X871595Y-6282634D01*
X872299Y-6281507D01*
X872863Y-6280097D01*
Y-6279956D01*
X873145Y-6279392D01*
X873286Y-6278405D01*
X873568Y-6277137D01*
X873850Y-6275445D01*
X873991Y-6273330D01*
X874273Y-6270793D01*
Y-6267833D01*
Y-6200590D01*
X887242D01*
Y-6267128D01*
D02*
G37*
G36*
X938132Y-6200308D02*
X939260Y-6200449D01*
X940670Y-6200590D01*
X942221Y-6200872D01*
X943771Y-6201154D01*
X947437Y-6202141D01*
X951102Y-6203550D01*
X952934Y-6204396D01*
X954767Y-6205383D01*
X956459Y-6206652D01*
X958009Y-6208061D01*
X958150Y-6208202D01*
X958432Y-6208343D01*
X958714Y-6208907D01*
X959278Y-6209471D01*
X959983Y-6210176D01*
X960688Y-6211163D01*
X961393Y-6212149D01*
X962238Y-6213418D01*
X963648Y-6216097D01*
X965058Y-6219480D01*
X965622Y-6221171D01*
X965904Y-6223145D01*
X966186Y-6225119D01*
X966326Y-6227233D01*
Y-6227515D01*
Y-6228220D01*
X966186Y-6229348D01*
X966045Y-6230898D01*
X965763Y-6232590D01*
X965199Y-6234564D01*
X964635Y-6236678D01*
X963789Y-6238793D01*
X963648Y-6239075D01*
X963366Y-6239779D01*
X962802Y-6240907D01*
X961956Y-6242458D01*
X960829Y-6244150D01*
X959419Y-6246264D01*
X957727Y-6248379D01*
X955754Y-6250775D01*
X955472Y-6251057D01*
X954767Y-6251903D01*
X954062Y-6252608D01*
X953357Y-6253313D01*
X952511Y-6254158D01*
X951384Y-6255286D01*
X950256Y-6256414D01*
X948846Y-6257683D01*
X947437Y-6259092D01*
X945745Y-6260643D01*
X943912Y-6262194D01*
X941939Y-6264026D01*
X939683Y-6265859D01*
X937428Y-6267833D01*
X937287Y-6267973D01*
X937005Y-6268255D01*
X936441Y-6268678D01*
X935736Y-6269242D01*
X934890Y-6270088D01*
X933903Y-6270934D01*
X931648Y-6272766D01*
X929251Y-6274881D01*
X926996Y-6276996D01*
X925022Y-6278828D01*
X924176Y-6279533D01*
X923472Y-6280238D01*
X923331Y-6280379D01*
X922908Y-6280802D01*
X922344Y-6281366D01*
X921639Y-6282211D01*
X920934Y-6283198D01*
X920088Y-6284185D01*
X918397Y-6286582D01*
X966467D01*
Y-6298141D01*
X901762D01*
Y-6298000D01*
Y-6297436D01*
Y-6296590D01*
X901903Y-6295463D01*
X902044Y-6294194D01*
X902326Y-6292784D01*
X902608Y-6291375D01*
X903172Y-6289824D01*
Y-6289683D01*
X903313Y-6289542D01*
X903595Y-6288696D01*
X904159Y-6287427D01*
X905005Y-6285736D01*
X906132Y-6283762D01*
X907542Y-6281507D01*
X909093Y-6279251D01*
X911066Y-6276855D01*
Y-6276714D01*
X911348Y-6276573D01*
X912053Y-6275727D01*
X913322Y-6274458D01*
X915154Y-6272626D01*
X917269Y-6270511D01*
X919947Y-6267973D01*
X923190Y-6265154D01*
X926714Y-6262194D01*
X926855Y-6262053D01*
X927419Y-6261630D01*
X928265Y-6260925D01*
X929251Y-6260079D01*
X930520Y-6258951D01*
X932071Y-6257683D01*
X933621Y-6256273D01*
X935454Y-6254722D01*
X938978Y-6251339D01*
X942503Y-6247956D01*
X944194Y-6246264D01*
X945745Y-6244572D01*
X947155Y-6243022D01*
X948282Y-6241471D01*
Y-6241330D01*
X948564Y-6241189D01*
X948846Y-6240766D01*
X949128Y-6240202D01*
X950115Y-6238652D01*
X951243Y-6236819D01*
X952229Y-6234564D01*
X953216Y-6232167D01*
X953780Y-6229489D01*
X954062Y-6226951D01*
Y-6226810D01*
Y-6226669D01*
X953921Y-6225823D01*
X953780Y-6224414D01*
X953357Y-6222863D01*
X952793Y-6220890D01*
X951807Y-6218916D01*
X950538Y-6216942D01*
X948846Y-6214969D01*
X948564Y-6214687D01*
X947859Y-6214123D01*
X946873Y-6213418D01*
X945322Y-6212431D01*
X943348Y-6211585D01*
X941093Y-6210740D01*
X938414Y-6210176D01*
X935454Y-6210035D01*
X934608D01*
X934044Y-6210176D01*
X932353Y-6210317D01*
X930379Y-6210740D01*
X928265Y-6211304D01*
X925868Y-6212290D01*
X923613Y-6213559D01*
X921498Y-6215251D01*
X921216Y-6215533D01*
X920652Y-6216238D01*
X919806Y-6217365D01*
X918961Y-6219057D01*
X917974Y-6221030D01*
X917128Y-6223568D01*
X916564Y-6226387D01*
X916282Y-6229630D01*
X904018Y-6228361D01*
Y-6228220D01*
X904159Y-6227797D01*
Y-6227092D01*
X904300Y-6226105D01*
X904582Y-6224978D01*
X904864Y-6223709D01*
X905286Y-6222158D01*
X905709Y-6220608D01*
X906837Y-6217224D01*
X908529Y-6213841D01*
X909516Y-6212149D01*
X910784Y-6210458D01*
X912053Y-6208907D01*
X913463Y-6207497D01*
X913604Y-6207356D01*
X913886Y-6207215D01*
X914309Y-6206793D01*
X915013Y-6206370D01*
X915859Y-6205806D01*
X916846Y-6205242D01*
X917974Y-6204537D01*
X919383Y-6203832D01*
X920934Y-6203127D01*
X922626Y-6202422D01*
X924458Y-6201859D01*
X926432Y-6201295D01*
X928547Y-6200872D01*
X930802Y-6200449D01*
X933199Y-6200308D01*
X935736Y-6200167D01*
X937146D01*
X938132Y-6200308D01*
D02*
G37*
G36*
X1008648Y-6799962D02*
X959949D01*
Y-6784223D01*
X1008648D01*
Y-6799962D01*
D02*
G37*
G36*
X950691Y-6725525D02*
X908473D01*
Y-6838477D01*
X891438D01*
Y-6725525D01*
X849220D01*
Y-6710342D01*
X950691D01*
Y-6725525D01*
D02*
G37*
G36*
X790337Y-6710527D02*
X791819D01*
X795152Y-6710897D01*
X798855Y-6711268D01*
X802743Y-6712008D01*
X806632Y-6712934D01*
X810150Y-6714230D01*
X810335D01*
X810520Y-6714415D01*
X811631Y-6714971D01*
X813298Y-6715897D01*
X815149Y-6717193D01*
X817371Y-6718859D01*
X819779Y-6720896D01*
X822001Y-6723488D01*
X824037Y-6726266D01*
X824223Y-6726636D01*
X824778Y-6727747D01*
X825704Y-6729229D01*
X826630Y-6731451D01*
X827556Y-6734043D01*
X828481Y-6736820D01*
X829037Y-6739968D01*
X829222Y-6743116D01*
Y-6743486D01*
Y-6744412D01*
X829037Y-6746079D01*
X828667Y-6748116D01*
X828111Y-6750523D01*
X827185Y-6753115D01*
X826074Y-6755707D01*
X824593Y-6758485D01*
X824408Y-6758855D01*
X823852Y-6759596D01*
X822741Y-6761077D01*
X821260Y-6762558D01*
X819408Y-6764410D01*
X817186Y-6766447D01*
X814409Y-6768299D01*
X811261Y-6770150D01*
X811446D01*
X811817Y-6770335D01*
X812372Y-6770521D01*
X813113Y-6770891D01*
X815335Y-6771632D01*
X817927Y-6772928D01*
X820704Y-6774594D01*
X823852Y-6776631D01*
X826630Y-6779038D01*
X829222Y-6782001D01*
X829407Y-6782371D01*
X830148Y-6783482D01*
X831259Y-6785149D01*
X832370Y-6787371D01*
X833481Y-6790333D01*
X834592Y-6793481D01*
X835333Y-6797185D01*
X835518Y-6801258D01*
Y-6801443D01*
Y-6801629D01*
Y-6802740D01*
X835333Y-6804591D01*
X834962Y-6806813D01*
X834592Y-6809405D01*
X833851Y-6812183D01*
X832925Y-6815146D01*
X831629Y-6818108D01*
X831444Y-6818479D01*
X830889Y-6819404D01*
X830148Y-6820701D01*
X829037Y-6822552D01*
X827556Y-6824404D01*
X826074Y-6826441D01*
X824223Y-6828478D01*
X822186Y-6830144D01*
X822001Y-6830329D01*
X821260Y-6830885D01*
X819964Y-6831625D01*
X818297Y-6832366D01*
X816260Y-6833477D01*
X813853Y-6834588D01*
X811261Y-6835514D01*
X808113Y-6836440D01*
X807743D01*
X806632Y-6836810D01*
X804780Y-6836995D01*
X802373Y-6837366D01*
X799410Y-6837736D01*
X795892Y-6838106D01*
X792004Y-6838291D01*
X787560Y-6838477D01*
X738676D01*
Y-6710342D01*
X789041D01*
X790337Y-6710527D01*
D02*
G37*
G36*
X3093907Y-6256283D02*
Y-6256424D01*
Y-6256847D01*
Y-6257411D01*
Y-6258257D01*
X3093766Y-6259384D01*
Y-6260512D01*
X3093485Y-6263191D01*
X3093203Y-6266292D01*
X3092639Y-6269534D01*
X3091793Y-6272495D01*
X3090806Y-6275314D01*
Y-6275455D01*
X3090665Y-6275596D01*
X3090242Y-6276442D01*
X3089537Y-6277570D01*
X3088551Y-6279120D01*
X3087141Y-6280671D01*
X3085590Y-6282363D01*
X3083617Y-6284054D01*
X3081361Y-6285464D01*
X3081079Y-6285605D01*
X3080233Y-6286028D01*
X3078965Y-6286592D01*
X3077132Y-6287156D01*
X3074877Y-6287860D01*
X3072339Y-6288424D01*
X3069520Y-6288847D01*
X3066418Y-6288988D01*
X3065150D01*
X3064304Y-6288847D01*
X3063176Y-6288706D01*
X3062048Y-6288565D01*
X3059088Y-6288001D01*
X3055987Y-6287156D01*
X3052744Y-6285887D01*
X3051053Y-6285041D01*
X3049502Y-6284054D01*
X3048092Y-6282926D01*
X3046683Y-6281658D01*
X3046542Y-6281517D01*
X3046401Y-6281376D01*
X3046119Y-6280812D01*
X3045696Y-6280248D01*
X3045132Y-6279543D01*
X3044568Y-6278556D01*
X3044004Y-6277429D01*
X3043299Y-6276160D01*
X3042735Y-6274750D01*
X3042171Y-6273059D01*
X3041608Y-6271367D01*
X3041044Y-6269393D01*
X3040762Y-6267279D01*
X3040339Y-6264882D01*
X3040198Y-6262486D01*
Y-6259807D01*
X3051898Y-6258116D01*
Y-6258257D01*
Y-6258539D01*
Y-6259103D01*
X3052039Y-6259948D01*
X3052180Y-6260794D01*
Y-6261781D01*
X3052603Y-6264177D01*
X3053026Y-6266715D01*
X3053872Y-6269252D01*
X3054718Y-6271508D01*
X3055282Y-6272495D01*
X3055987Y-6273341D01*
X3056127Y-6273481D01*
X3056691Y-6273904D01*
X3057537Y-6274609D01*
X3058665Y-6275314D01*
X3060216Y-6276160D01*
X3061907Y-6276724D01*
X3064022Y-6277288D01*
X3066277Y-6277429D01*
X3067123D01*
X3067969Y-6277288D01*
X3069238Y-6277147D01*
X3070506Y-6276865D01*
X3071916Y-6276583D01*
X3073326Y-6276019D01*
X3074736Y-6275314D01*
X3074877Y-6275173D01*
X3075299Y-6274891D01*
X3075863Y-6274327D01*
X3076709Y-6273763D01*
X3077414Y-6272777D01*
X3078260Y-6271790D01*
X3078965Y-6270662D01*
X3079529Y-6269252D01*
Y-6269111D01*
X3079810Y-6268548D01*
X3079951Y-6267561D01*
X3080233Y-6266292D01*
X3080515Y-6264600D01*
X3080656Y-6262486D01*
X3080938Y-6259948D01*
Y-6256988D01*
Y-6189745D01*
X3093907D01*
Y-6256283D01*
D02*
G37*
G36*
X3155229Y-6287297D02*
X3143247D01*
Y-6211032D01*
X3143106Y-6211173D01*
X3142401Y-6211737D01*
X3141555Y-6212582D01*
X3140146Y-6213569D01*
X3138595Y-6214838D01*
X3136621Y-6216248D01*
X3134366Y-6217798D01*
X3131828Y-6219349D01*
X3131687D01*
X3131546Y-6219490D01*
X3130701Y-6220054D01*
X3129291Y-6220759D01*
X3127599Y-6221605D01*
X3125626Y-6222591D01*
X3123511Y-6223578D01*
X3121397Y-6224565D01*
X3119282Y-6225411D01*
Y-6213851D01*
X3119423D01*
X3119705Y-6213569D01*
X3120269Y-6213428D01*
X3120974Y-6213005D01*
X3121820Y-6212582D01*
X3122806Y-6212019D01*
X3125203Y-6210609D01*
X3128022Y-6209058D01*
X3130842Y-6207085D01*
X3133802Y-6204829D01*
X3136762Y-6202433D01*
X3136903Y-6202292D01*
X3137044Y-6202151D01*
X3137467Y-6201728D01*
X3138031Y-6201305D01*
X3139300Y-6199895D01*
X3140991Y-6198204D01*
X3142683Y-6196230D01*
X3144516Y-6193974D01*
X3146066Y-6191719D01*
X3147476Y-6189322D01*
X3155229D01*
Y-6287297D01*
D02*
G37*
G36*
X3315073Y-6767928D02*
X3349884D01*
Y-6782556D01*
X3315073D01*
Y-6817738D01*
X3300259D01*
Y-6782556D01*
X3265448D01*
Y-6767928D01*
X3300259D01*
Y-6733117D01*
X3315073D01*
Y-6767928D01*
D02*
G37*
G36*
X3251931Y-6725525D02*
X3209713D01*
Y-6838477D01*
X3192678D01*
Y-6725525D01*
X3150460D01*
Y-6710342D01*
X3251931D01*
Y-6725525D01*
D02*
G37*
G36*
X3091577Y-6710527D02*
X3093059D01*
X3096392Y-6710897D01*
X3100095Y-6711268D01*
X3103983Y-6712008D01*
X3107872Y-6712934D01*
X3111390Y-6714230D01*
X3111575D01*
X3111760Y-6714415D01*
X3112871Y-6714971D01*
X3114538Y-6715897D01*
X3116390Y-6717193D01*
X3118611Y-6718859D01*
X3121019Y-6720896D01*
X3123241Y-6723488D01*
X3125277Y-6726266D01*
X3125463Y-6726636D01*
X3126018Y-6727747D01*
X3126944Y-6729229D01*
X3127870Y-6731451D01*
X3128796Y-6734043D01*
X3129721Y-6736820D01*
X3130277Y-6739968D01*
X3130462Y-6743116D01*
Y-6743486D01*
Y-6744412D01*
X3130277Y-6746079D01*
X3129907Y-6748116D01*
X3129351Y-6750523D01*
X3128425Y-6753115D01*
X3127314Y-6755707D01*
X3125833Y-6758485D01*
X3125648Y-6758855D01*
X3125092Y-6759596D01*
X3123981Y-6761077D01*
X3122500Y-6762558D01*
X3120648Y-6764410D01*
X3118426Y-6766447D01*
X3115649Y-6768299D01*
X3112501Y-6770150D01*
X3112686D01*
X3113057Y-6770335D01*
X3113612Y-6770521D01*
X3114353Y-6770891D01*
X3116575Y-6771632D01*
X3119167Y-6772928D01*
X3121944Y-6774594D01*
X3125092Y-6776631D01*
X3127870Y-6779038D01*
X3130462Y-6782001D01*
X3130647Y-6782371D01*
X3131388Y-6783482D01*
X3132499Y-6785149D01*
X3133610Y-6787371D01*
X3134721Y-6790333D01*
X3135832Y-6793481D01*
X3136573Y-6797185D01*
X3136758Y-6801258D01*
Y-6801443D01*
Y-6801629D01*
Y-6802740D01*
X3136573Y-6804591D01*
X3136202Y-6806813D01*
X3135832Y-6809405D01*
X3135091Y-6812183D01*
X3134165Y-6815146D01*
X3132869Y-6818108D01*
X3132684Y-6818479D01*
X3132129Y-6819404D01*
X3131388Y-6820701D01*
X3130277Y-6822552D01*
X3128796Y-6824404D01*
X3127314Y-6826441D01*
X3125463Y-6828478D01*
X3123426Y-6830144D01*
X3123241Y-6830329D01*
X3122500Y-6830885D01*
X3121204Y-6831625D01*
X3119537Y-6832366D01*
X3117500Y-6833477D01*
X3115093Y-6834588D01*
X3112501Y-6835514D01*
X3109353Y-6836440D01*
X3108983D01*
X3107872Y-6836810D01*
X3106020Y-6836995D01*
X3103613Y-6837366D01*
X3100650Y-6837736D01*
X3097132Y-6838106D01*
X3093244Y-6838291D01*
X3088800Y-6838477D01*
X3039916D01*
Y-6710342D01*
X3090281D01*
X3091577Y-6710527D01*
D02*
G37*
G36*
X3237930Y-9029674D02*
X3239198Y-9029815D01*
X3240749Y-9029956D01*
X3242300Y-9030096D01*
X3244132Y-9030519D01*
X3247938Y-9031365D01*
X3252167Y-9032634D01*
X3254282Y-9033480D01*
X3256256Y-9034467D01*
X3258229Y-9035735D01*
X3260203Y-9037004D01*
X3260344Y-9037145D01*
X3260626Y-9037286D01*
X3261190Y-9037709D01*
X3261894Y-9038414D01*
X3262599Y-9039119D01*
X3263586Y-9040105D01*
X3264573Y-9041233D01*
X3265701Y-9042361D01*
X3266828Y-9043771D01*
X3267956Y-9045462D01*
X3269225Y-9047154D01*
X3270353Y-9048986D01*
X3271339Y-9051101D01*
X3272467Y-9053216D01*
X3273313Y-9055471D01*
X3274159Y-9058009D01*
X3261472Y-9060969D01*
Y-9060828D01*
X3261331Y-9060546D01*
X3261049Y-9059982D01*
X3260767Y-9059277D01*
X3260485Y-9058431D01*
X3260062Y-9057304D01*
X3258934Y-9055048D01*
X3257524Y-9052511D01*
X3255833Y-9049973D01*
X3253718Y-9047577D01*
X3251463Y-9045462D01*
X3251181Y-9045180D01*
X3250335Y-9044616D01*
X3248925Y-9043912D01*
X3247093Y-9042925D01*
X3244696Y-9042079D01*
X3242018Y-9041233D01*
X3238775Y-9040669D01*
X3235251Y-9040528D01*
X3234123D01*
X3233418Y-9040669D01*
X3232432D01*
X3231304Y-9040810D01*
X3228625Y-9041233D01*
X3225665Y-9041797D01*
X3222564Y-9042784D01*
X3219321Y-9044193D01*
X3216361Y-9046026D01*
X3216220D01*
X3216079Y-9046308D01*
X3215092Y-9047013D01*
X3213824Y-9048141D01*
X3212273Y-9049832D01*
X3210440Y-9051947D01*
X3208749Y-9054343D01*
X3207198Y-9057304D01*
X3205788Y-9060546D01*
Y-9060687D01*
X3205647Y-9060969D01*
X3205506Y-9061392D01*
X3205365Y-9062097D01*
X3205084Y-9062943D01*
X3204802Y-9063929D01*
X3204379Y-9066326D01*
X3203815Y-9069145D01*
X3203251Y-9072247D01*
X3202969Y-9075630D01*
X3202828Y-9079295D01*
Y-9079436D01*
Y-9079859D01*
Y-9080564D01*
Y-9081410D01*
X3202969Y-9082396D01*
Y-9083665D01*
X3203110Y-9085075D01*
X3203251Y-9086625D01*
X3203674Y-9090009D01*
X3204379Y-9093674D01*
X3205224Y-9097339D01*
X3206352Y-9101004D01*
Y-9101145D01*
X3206493Y-9101427D01*
X3206775Y-9101850D01*
X3207057Y-9102555D01*
X3207903Y-9104247D01*
X3209172Y-9106220D01*
X3210722Y-9108476D01*
X3212696Y-9110872D01*
X3214951Y-9112987D01*
X3217630Y-9114960D01*
X3217771D01*
X3218053Y-9115101D01*
X3218476Y-9115383D01*
X3219040Y-9115665D01*
X3219744Y-9115947D01*
X3220590Y-9116370D01*
X3222564Y-9117216D01*
X3225101Y-9118062D01*
X3227921Y-9118767D01*
X3231022Y-9119331D01*
X3234264Y-9119471D01*
X3235251D01*
X3236097Y-9119331D01*
X3237084D01*
X3238070Y-9119190D01*
X3240608Y-9118626D01*
X3243568Y-9117921D01*
X3246529Y-9116793D01*
X3249630Y-9115242D01*
X3251181Y-9114397D01*
X3252590Y-9113269D01*
X3252731Y-9113128D01*
X3252872Y-9112987D01*
X3253295Y-9112564D01*
X3253859Y-9112141D01*
X3254423Y-9111436D01*
X3255128Y-9110590D01*
X3255974Y-9109745D01*
X3256679Y-9108617D01*
X3257524Y-9107348D01*
X3258511Y-9105938D01*
X3259357Y-9104529D01*
X3260203Y-9102837D01*
X3260908Y-9101004D01*
X3261612Y-9099031D01*
X3262317Y-9096916D01*
X3262881Y-9094661D01*
X3275850Y-9097903D01*
Y-9098044D01*
X3275709Y-9098608D01*
X3275428Y-9099454D01*
X3275005Y-9100581D01*
X3274582Y-9101850D01*
X3274018Y-9103401D01*
X3273313Y-9105093D01*
X3272467Y-9106925D01*
X3270494Y-9110872D01*
X3267956Y-9114819D01*
X3266405Y-9116793D01*
X3264855Y-9118767D01*
X3263163Y-9120458D01*
X3261190Y-9122150D01*
X3261049Y-9122291D01*
X3260767Y-9122573D01*
X3260062Y-9122855D01*
X3259357Y-9123419D01*
X3258229Y-9124123D01*
X3257101Y-9124828D01*
X3255551Y-9125533D01*
X3254000Y-9126238D01*
X3252167Y-9127084D01*
X3250194Y-9127789D01*
X3248079Y-9128494D01*
X3245824Y-9129198D01*
X3243427Y-9129762D01*
X3240890Y-9130044D01*
X3238211Y-9130326D01*
X3235392Y-9130467D01*
X3233841D01*
X3232714Y-9130326D01*
X3231445D01*
X3229894Y-9130185D01*
X3228203Y-9129903D01*
X3226229Y-9129621D01*
X3222141Y-9128916D01*
X3217912Y-9127789D01*
X3213683Y-9126238D01*
X3211709Y-9125251D01*
X3209736Y-9124123D01*
X3209595Y-9123983D01*
X3209313Y-9123842D01*
X3208749Y-9123419D01*
X3208185Y-9122855D01*
X3207339Y-9122291D01*
X3206352Y-9121445D01*
X3205224Y-9120458D01*
X3204097Y-9119331D01*
X3202969Y-9118062D01*
X3201700Y-9116793D01*
X3199163Y-9113551D01*
X3196766Y-9109745D01*
X3194652Y-9105515D01*
Y-9105374D01*
X3194370Y-9104952D01*
X3194229Y-9104247D01*
X3193806Y-9103401D01*
X3193524Y-9102273D01*
X3193101Y-9100863D01*
X3192537Y-9099313D01*
X3192114Y-9097621D01*
X3191691Y-9095789D01*
X3191127Y-9093674D01*
X3190423Y-9089304D01*
X3189859Y-9084370D01*
X3189577Y-9079295D01*
Y-9079154D01*
Y-9078590D01*
Y-9077744D01*
X3189718Y-9076758D01*
Y-9075348D01*
X3189859Y-9073938D01*
X3190000Y-9072106D01*
X3190282Y-9070273D01*
X3190987Y-9066185D01*
X3191973Y-9061674D01*
X3193383Y-9057163D01*
X3195357Y-9052793D01*
X3195498Y-9052652D01*
X3195639Y-9052229D01*
X3195920Y-9051665D01*
X3196484Y-9050960D01*
X3197048Y-9049973D01*
X3197753Y-9048846D01*
X3199586Y-9046308D01*
X3201982Y-9043489D01*
X3204802Y-9040669D01*
X3208044Y-9037850D01*
X3211850Y-9035453D01*
X3211991Y-9035312D01*
X3212414Y-9035171D01*
X3212978Y-9034889D01*
X3213683Y-9034467D01*
X3214810Y-9034044D01*
X3215938Y-9033621D01*
X3217348Y-9033057D01*
X3218899Y-9032493D01*
X3220590Y-9031929D01*
X3222423Y-9031365D01*
X3226370Y-9030519D01*
X3230881Y-9029815D01*
X3235533Y-9029533D01*
X3236943D01*
X3237930Y-9029674D01*
D02*
G37*
G36*
X3337172Y-9094379D02*
X3350424D01*
Y-9105374D01*
X3337172D01*
Y-9128775D01*
X3325190D01*
Y-9105374D01*
X3282758D01*
Y-9094379D01*
X3327445Y-9031224D01*
X3337172D01*
Y-9094379D01*
D02*
G37*
G36*
X3007163Y-9869674D02*
X3008432Y-9869815D01*
X3009982Y-9869956D01*
X3011533Y-9870097D01*
X3013366Y-9870520D01*
X3017172Y-9871365D01*
X3021401Y-9872634D01*
X3023515Y-9873480D01*
X3025489Y-9874467D01*
X3027463Y-9875735D01*
X3029436Y-9877004D01*
X3029577Y-9877145D01*
X3029859Y-9877286D01*
X3030423Y-9877709D01*
X3031128Y-9878414D01*
X3031833Y-9879119D01*
X3032819Y-9880105D01*
X3033806Y-9881233D01*
X3034934Y-9882361D01*
X3036062Y-9883771D01*
X3037190Y-9885462D01*
X3038458Y-9887154D01*
X3039586Y-9888987D01*
X3040573Y-9891101D01*
X3041701Y-9893216D01*
X3042546Y-9895471D01*
X3043392Y-9898009D01*
X3030705Y-9900969D01*
Y-9900828D01*
X3030564Y-9900546D01*
X3030282Y-9899982D01*
X3030000Y-9899277D01*
X3029718Y-9898432D01*
X3029295Y-9897304D01*
X3028167Y-9895048D01*
X3026758Y-9892511D01*
X3025066Y-9889973D01*
X3022952Y-9887577D01*
X3020696Y-9885462D01*
X3020414Y-9885180D01*
X3019568Y-9884617D01*
X3018159Y-9883912D01*
X3016326Y-9882925D01*
X3013929Y-9882079D01*
X3011251Y-9881233D01*
X3008009Y-9880669D01*
X3004484Y-9880528D01*
X3003357D01*
X3002652Y-9880669D01*
X3001665D01*
X3000537Y-9880810D01*
X2997859Y-9881233D01*
X2994899Y-9881797D01*
X2991797Y-9882784D01*
X2988555Y-9884194D01*
X2985594Y-9886026D01*
X2985454D01*
X2985313Y-9886308D01*
X2984326Y-9887013D01*
X2983057Y-9888141D01*
X2981506Y-9889832D01*
X2979674Y-9891947D01*
X2977982Y-9894343D01*
X2976431Y-9897304D01*
X2975022Y-9900546D01*
Y-9900687D01*
X2974881Y-9900969D01*
X2974740Y-9901392D01*
X2974599Y-9902097D01*
X2974317Y-9902943D01*
X2974035Y-9903929D01*
X2973612Y-9906326D01*
X2973048Y-9909145D01*
X2972484Y-9912247D01*
X2972202Y-9915630D01*
X2972061Y-9919295D01*
Y-9919436D01*
Y-9919859D01*
Y-9920564D01*
Y-9921410D01*
X2972202Y-9922396D01*
Y-9923665D01*
X2972343Y-9925075D01*
X2972484Y-9926626D01*
X2972907Y-9930009D01*
X2973612Y-9933674D01*
X2974458Y-9937339D01*
X2975586Y-9941005D01*
Y-9941145D01*
X2975727Y-9941427D01*
X2976009Y-9941850D01*
X2976290Y-9942555D01*
X2977136Y-9944247D01*
X2978405Y-9946220D01*
X2979956Y-9948476D01*
X2981929Y-9950872D01*
X2984185Y-9952987D01*
X2986863Y-9954961D01*
X2987004D01*
X2987286Y-9955102D01*
X2987709Y-9955383D01*
X2988273Y-9955665D01*
X2988978Y-9955947D01*
X2989824Y-9956370D01*
X2991797Y-9957216D01*
X2994335Y-9958062D01*
X2997154Y-9958767D01*
X3000255Y-9959331D01*
X3003498Y-9959472D01*
X3004484D01*
X3005330Y-9959331D01*
X3006317D01*
X3007304Y-9959190D01*
X3009841Y-9958626D01*
X3012802Y-9957921D01*
X3015762Y-9956793D01*
X3018863Y-9955242D01*
X3020414Y-9954397D01*
X3021824Y-9953269D01*
X3021965Y-9953128D01*
X3022106Y-9952987D01*
X3022529Y-9952564D01*
X3023093Y-9952141D01*
X3023656Y-9951436D01*
X3024361Y-9950590D01*
X3025207Y-9949745D01*
X3025912Y-9948617D01*
X3026758Y-9947348D01*
X3027745Y-9945938D01*
X3028590Y-9944529D01*
X3029436Y-9942837D01*
X3030141Y-9941005D01*
X3030846Y-9939031D01*
X3031551Y-9936916D01*
X3032115Y-9934661D01*
X3045084Y-9937903D01*
Y-9938044D01*
X3044943Y-9938608D01*
X3044661Y-9939454D01*
X3044238Y-9940582D01*
X3043815Y-9941850D01*
X3043251Y-9943401D01*
X3042546Y-9945093D01*
X3041701Y-9946925D01*
X3039727Y-9950872D01*
X3037190Y-9954820D01*
X3035639Y-9956793D01*
X3034088Y-9958767D01*
X3032397Y-9960458D01*
X3030423Y-9962150D01*
X3030282Y-9962291D01*
X3030000Y-9962573D01*
X3029295Y-9962855D01*
X3028590Y-9963419D01*
X3027463Y-9964124D01*
X3026335Y-9964828D01*
X3024784Y-9965533D01*
X3023233Y-9966238D01*
X3021401Y-9967084D01*
X3019427Y-9967789D01*
X3017313Y-9968494D01*
X3015057Y-9969199D01*
X3012661Y-9969762D01*
X3010123Y-9970044D01*
X3007445Y-9970326D01*
X3004625Y-9970467D01*
X3003075D01*
X3001947Y-9970326D01*
X3000678D01*
X2999128Y-9970185D01*
X2997436Y-9969903D01*
X2995462Y-9969621D01*
X2991374Y-9968917D01*
X2987145Y-9967789D01*
X2982916Y-9966238D01*
X2980942Y-9965251D01*
X2978969Y-9964124D01*
X2978828Y-9963983D01*
X2978546Y-9963842D01*
X2977982Y-9963419D01*
X2977418Y-9962855D01*
X2976572Y-9962291D01*
X2975586Y-9961445D01*
X2974458Y-9960458D01*
X2973330Y-9959331D01*
X2972202Y-9958062D01*
X2970934Y-9956793D01*
X2968396Y-9953551D01*
X2966000Y-9949745D01*
X2963885Y-9945516D01*
Y-9945375D01*
X2963603Y-9944952D01*
X2963462Y-9944247D01*
X2963039Y-9943401D01*
X2962757Y-9942273D01*
X2962334Y-9940864D01*
X2961771Y-9939313D01*
X2961348Y-9937621D01*
X2960925Y-9935789D01*
X2960361Y-9933674D01*
X2959656Y-9929304D01*
X2959092Y-9924370D01*
X2958810Y-9919295D01*
Y-9919154D01*
Y-9918590D01*
Y-9917744D01*
X2958951Y-9916758D01*
Y-9915348D01*
X2959092Y-9913938D01*
X2959233Y-9912106D01*
X2959515Y-9910273D01*
X2960220Y-9906185D01*
X2961207Y-9901674D01*
X2962616Y-9897163D01*
X2964590Y-9892793D01*
X2964731Y-9892652D01*
X2964872Y-9892229D01*
X2965154Y-9891665D01*
X2965718Y-9890960D01*
X2966282Y-9889973D01*
X2966986Y-9888846D01*
X2968819Y-9886308D01*
X2971216Y-9883489D01*
X2974035Y-9880669D01*
X2977277Y-9877850D01*
X2981083Y-9875453D01*
X2981224Y-9875312D01*
X2981647Y-9875172D01*
X2982211Y-9874890D01*
X2982916Y-9874467D01*
X2984044Y-9874044D01*
X2985172Y-9873621D01*
X2986581Y-9873057D01*
X2988132Y-9872493D01*
X2989824Y-9871929D01*
X2991656Y-9871365D01*
X2995603Y-9870520D01*
X3000114Y-9869815D01*
X3004766Y-9869533D01*
X3006176D01*
X3007163Y-9869674D01*
D02*
G37*
G36*
X3101190Y-9968776D02*
X3089207D01*
Y-9892511D01*
X3089066Y-9892652D01*
X3088362Y-9893216D01*
X3087516Y-9894061D01*
X3086106Y-9895048D01*
X3084555Y-9896317D01*
X3082582Y-9897727D01*
X3080326Y-9899277D01*
X3077789Y-9900828D01*
X3077648D01*
X3077507Y-9900969D01*
X3076661Y-9901533D01*
X3075251Y-9902238D01*
X3073560Y-9903084D01*
X3071586Y-9904070D01*
X3069472Y-9905057D01*
X3067357Y-9906044D01*
X3065243Y-9906890D01*
Y-9895330D01*
X3065384D01*
X3065665Y-9895048D01*
X3066229Y-9894907D01*
X3066934Y-9894484D01*
X3067780Y-9894061D01*
X3068767Y-9893498D01*
X3071163Y-9892088D01*
X3073983Y-9890537D01*
X3076802Y-9888564D01*
X3079762Y-9886308D01*
X3082723Y-9883912D01*
X3082864Y-9883771D01*
X3083005Y-9883630D01*
X3083428Y-9883207D01*
X3083992Y-9882784D01*
X3085260Y-9881374D01*
X3086952Y-9879683D01*
X3088644Y-9877709D01*
X3090476Y-9875453D01*
X3092027Y-9873198D01*
X3093437Y-9870801D01*
X3101190D01*
Y-9968776D01*
D02*
G37*
%LPC*%
G36*
X2374687Y-8481233D02*
X2343956D01*
Y-8513515D01*
X2372996D01*
X2374687Y-8513374D01*
X2376661Y-8513233D01*
X2378916Y-8513092D01*
X2381172Y-8512811D01*
X2383427Y-8512388D01*
X2385401Y-8511824D01*
X2385683Y-8511683D01*
X2386247Y-8511401D01*
X2387093Y-8510978D01*
X2388220Y-8510414D01*
X2389489Y-8509568D01*
X2390758Y-8508581D01*
X2392026Y-8507313D01*
X2393013Y-8505903D01*
X2393154Y-8505762D01*
X2393436Y-8505198D01*
X2393859Y-8504352D01*
X2394423Y-8503225D01*
X2394846Y-8501956D01*
X2395269Y-8500546D01*
X2395551Y-8498854D01*
X2395692Y-8497163D01*
Y-8497022D01*
Y-8496881D01*
X2395551Y-8496035D01*
X2395410Y-8494766D01*
X2395128Y-8493075D01*
X2394423Y-8491383D01*
X2393577Y-8489409D01*
X2392308Y-8487577D01*
X2390617Y-8485744D01*
X2390335Y-8485603D01*
X2389630Y-8485039D01*
X2388502Y-8484335D01*
X2386670Y-8483489D01*
X2384555Y-8482643D01*
X2381736Y-8481938D01*
X2378493Y-8481374D01*
X2374687Y-8481233D01*
D02*
G37*
G36*
X2473216Y-10870678D02*
X2442485Y-10914379D01*
X2473216D01*
Y-10870678D01*
D02*
G37*
G36*
X2385251Y-10862079D02*
X2354520D01*
Y-10894361D01*
X2383559D01*
X2385251Y-10894220D01*
X2387225Y-10894079D01*
X2389480Y-10893938D01*
X2391736Y-10893656D01*
X2393991Y-10893233D01*
X2395965Y-10892670D01*
X2396247Y-10892529D01*
X2396811Y-10892247D01*
X2397656Y-10891824D01*
X2398784Y-10891260D01*
X2400053Y-10890414D01*
X2401322Y-10889427D01*
X2402590Y-10888159D01*
X2403577Y-10886749D01*
X2403718Y-10886608D01*
X2404000Y-10886044D01*
X2404423Y-10885198D01*
X2404987Y-10884070D01*
X2405410Y-10882802D01*
X2405833Y-10881392D01*
X2406115Y-10879700D01*
X2406256Y-10878009D01*
Y-10877868D01*
Y-10877727D01*
X2406115Y-10876881D01*
X2405974Y-10875612D01*
X2405692Y-10873921D01*
X2404987Y-10872229D01*
X2404141Y-10870255D01*
X2402872Y-10868423D01*
X2401181Y-10866590D01*
X2400899Y-10866449D01*
X2400194Y-10865885D01*
X2399066Y-10865180D01*
X2397233Y-10864335D01*
X2395119Y-10863489D01*
X2392300Y-10862784D01*
X2389057Y-10862220D01*
X2385251Y-10862079D01*
D02*
G37*
G36*
X1725039Y-10861445D02*
X1694308D01*
Y-10893727D01*
X1723348D01*
X1725039Y-10893586D01*
X1727013Y-10893445D01*
X1729269Y-10893304D01*
X1731524Y-10893022D01*
X1733780Y-10892599D01*
X1735753Y-10892035D01*
X1736035Y-10891894D01*
X1736599Y-10891612D01*
X1737445Y-10891189D01*
X1738573Y-10890625D01*
X1739841Y-10889780D01*
X1741110Y-10888793D01*
X1742379Y-10887524D01*
X1743366Y-10886114D01*
X1743507Y-10885973D01*
X1743788Y-10885410D01*
X1744211Y-10884564D01*
X1744775Y-10883436D01*
X1745198Y-10882167D01*
X1745621Y-10880758D01*
X1745903Y-10879066D01*
X1746044Y-10877374D01*
Y-10877233D01*
Y-10877092D01*
X1745903Y-10876246D01*
X1745762Y-10874978D01*
X1745480Y-10873286D01*
X1744775Y-10871594D01*
X1743929Y-10869621D01*
X1742661Y-10867788D01*
X1740969Y-10865956D01*
X1740687Y-10865815D01*
X1739982Y-10865251D01*
X1738855Y-10864546D01*
X1737022Y-10863700D01*
X1734907Y-10862854D01*
X1732088Y-10862149D01*
X1728846Y-10861586D01*
X1725039Y-10861445D01*
D02*
G37*
G36*
X1055533Y-10872290D02*
X1024802D01*
Y-10904573D01*
X1053841D01*
X1055533Y-10904432D01*
X1057507Y-10904291D01*
X1059762Y-10904150D01*
X1062018Y-10903868D01*
X1064273Y-10903445D01*
X1066247Y-10902881D01*
X1066529Y-10902740D01*
X1067093Y-10902458D01*
X1067938Y-10902035D01*
X1069066Y-10901471D01*
X1070335Y-10900625D01*
X1071604Y-10899639D01*
X1072872Y-10898370D01*
X1073859Y-10896960D01*
X1074000Y-10896819D01*
X1074282Y-10896255D01*
X1074705Y-10895410D01*
X1075269Y-10894282D01*
X1075692Y-10893013D01*
X1076115Y-10891603D01*
X1076397Y-10889912D01*
X1076538Y-10888220D01*
Y-10888079D01*
Y-10887938D01*
X1076397Y-10887092D01*
X1076256Y-10885824D01*
X1075974Y-10884132D01*
X1075269Y-10882440D01*
X1074423Y-10880467D01*
X1073154Y-10878634D01*
X1071463Y-10876801D01*
X1071181Y-10876660D01*
X1070476Y-10876097D01*
X1069348Y-10875392D01*
X1067516Y-10874546D01*
X1065401Y-10873700D01*
X1062582Y-10872995D01*
X1059339Y-10872431D01*
X1055533Y-10872290D01*
D02*
G37*
G36*
X2750458Y-11492149D02*
X2727903D01*
Y-11566582D01*
X2751022D01*
X2752009Y-11566441D01*
X2754124Y-11566300D01*
X2756520Y-11566159D01*
X2759057Y-11565877D01*
X2761595Y-11565454D01*
X2763709Y-11564890D01*
X2763991Y-11564749D01*
X2764696Y-11564608D01*
X2765683Y-11564185D01*
X2766952Y-11563621D01*
X2768361Y-11562775D01*
X2769771Y-11561930D01*
X2771181Y-11560943D01*
X2772591Y-11559815D01*
X2772732Y-11559533D01*
X2773295Y-11558969D01*
X2774141Y-11557982D01*
X2775128Y-11556573D01*
X2776256Y-11554740D01*
X2777525Y-11552626D01*
X2778652Y-11550229D01*
X2779639Y-11547551D01*
Y-11547410D01*
X2779780Y-11547128D01*
X2779921Y-11546705D01*
X2780062Y-11546141D01*
X2780203Y-11545436D01*
X2780485Y-11544449D01*
X2780767Y-11543463D01*
X2781049Y-11542335D01*
X2781472Y-11539515D01*
X2781895Y-11536273D01*
X2782177Y-11532608D01*
X2782318Y-11528661D01*
Y-11528520D01*
Y-11527956D01*
Y-11527251D01*
X2782177Y-11526123D01*
Y-11524855D01*
X2782036Y-11523445D01*
X2781895Y-11521753D01*
X2781754Y-11520062D01*
X2781049Y-11516255D01*
X2780203Y-11512308D01*
X2778934Y-11508643D01*
X2778088Y-11506810D01*
X2777243Y-11505260D01*
Y-11505119D01*
X2776961Y-11504837D01*
X2776679Y-11504414D01*
X2776397Y-11503850D01*
X2775269Y-11502440D01*
X2773859Y-11500749D01*
X2772027Y-11498916D01*
X2769912Y-11497083D01*
X2767516Y-11495533D01*
X2764978Y-11494264D01*
X2764696Y-11494123D01*
X2763991Y-11493982D01*
X2762723Y-11493559D01*
X2760890Y-11493136D01*
X2758635Y-11492854D01*
X2755815Y-11492431D01*
X2754124Y-11492290D01*
X2752291D01*
X2750458Y-11492149D01*
D02*
G37*
G36*
X2060952Y-11482995D02*
X2038397D01*
Y-11557427D01*
X2061516D01*
X2062503Y-11557287D01*
X2064617Y-11557146D01*
X2067014Y-11557005D01*
X2069551Y-11556723D01*
X2072089Y-11556300D01*
X2074203Y-11555736D01*
X2074485Y-11555595D01*
X2075190Y-11555454D01*
X2076177Y-11555031D01*
X2077445Y-11554467D01*
X2078855Y-11553621D01*
X2080265Y-11552775D01*
X2081675Y-11551789D01*
X2083084Y-11550661D01*
X2083225Y-11550379D01*
X2083789Y-11549815D01*
X2084635Y-11548828D01*
X2085622Y-11547419D01*
X2086749Y-11545586D01*
X2088018Y-11543471D01*
X2089146Y-11541075D01*
X2090133Y-11538397D01*
Y-11538256D01*
X2090274Y-11537974D01*
X2090415Y-11537551D01*
X2090556Y-11536987D01*
X2090697Y-11536282D01*
X2090979Y-11535295D01*
X2091260Y-11534308D01*
X2091542Y-11533181D01*
X2091965Y-11530361D01*
X2092388Y-11527119D01*
X2092670Y-11523454D01*
X2092811Y-11519507D01*
Y-11519366D01*
Y-11518802D01*
Y-11518097D01*
X2092670Y-11516969D01*
Y-11515700D01*
X2092529Y-11514291D01*
X2092388Y-11512599D01*
X2092247Y-11510907D01*
X2091542Y-11507101D01*
X2090697Y-11503154D01*
X2089428Y-11499489D01*
X2088582Y-11497656D01*
X2087736Y-11496106D01*
Y-11495965D01*
X2087454Y-11495683D01*
X2087172Y-11495260D01*
X2086890Y-11494696D01*
X2085763Y-11493286D01*
X2084353Y-11491594D01*
X2082520Y-11489762D01*
X2080406Y-11487929D01*
X2078009Y-11486379D01*
X2075472Y-11485110D01*
X2075190Y-11484969D01*
X2074485Y-11484828D01*
X2073216Y-11484405D01*
X2071384Y-11483982D01*
X2069128Y-11483700D01*
X2066309Y-11483277D01*
X2064617Y-11483136D01*
X2062785D01*
X2060952Y-11482995D01*
D02*
G37*
G36*
X1389903D02*
X1367348D01*
Y-11557427D01*
X1390467D01*
X1391454Y-11557287D01*
X1393569Y-11557146D01*
X1395965Y-11557005D01*
X1398503Y-11556723D01*
X1401040Y-11556300D01*
X1403155Y-11555736D01*
X1403437Y-11555595D01*
X1404141Y-11555454D01*
X1405128Y-11555031D01*
X1406397Y-11554467D01*
X1407807Y-11553621D01*
X1409216Y-11552775D01*
X1410626Y-11551789D01*
X1412036Y-11550661D01*
X1412177Y-11550379D01*
X1412741Y-11549815D01*
X1413586Y-11548828D01*
X1414573Y-11547419D01*
X1415701Y-11545586D01*
X1416970Y-11543471D01*
X1418097Y-11541075D01*
X1419084Y-11538397D01*
Y-11538256D01*
X1419225Y-11537974D01*
X1419366Y-11537551D01*
X1419507Y-11536987D01*
X1419648Y-11536282D01*
X1419930Y-11535295D01*
X1420212Y-11534308D01*
X1420494Y-11533181D01*
X1420917Y-11530361D01*
X1421340Y-11527119D01*
X1421622Y-11523454D01*
X1421763Y-11519507D01*
Y-11519366D01*
Y-11518802D01*
Y-11518097D01*
X1421622Y-11516969D01*
Y-11515700D01*
X1421481Y-11514291D01*
X1421340Y-11512599D01*
X1421199Y-11510907D01*
X1420494Y-11507101D01*
X1419648Y-11503154D01*
X1418379Y-11499489D01*
X1417534Y-11497656D01*
X1416688Y-11496106D01*
Y-11495965D01*
X1416406Y-11495683D01*
X1416124Y-11495260D01*
X1415842Y-11494696D01*
X1414714Y-11493286D01*
X1413305Y-11491594D01*
X1411472Y-11489762D01*
X1409357Y-11487929D01*
X1406961Y-11486379D01*
X1404423Y-11485110D01*
X1404141Y-11484969D01*
X1403437Y-11484828D01*
X1402168Y-11484405D01*
X1400335Y-11483982D01*
X1398080Y-11483700D01*
X1395260Y-11483277D01*
X1393569Y-11483136D01*
X1391736D01*
X1389903Y-11482995D01*
D02*
G37*
G36*
X2357771Y-11645931D02*
X2297249D01*
Y-11709506D01*
X2354439D01*
X2357771Y-11709229D01*
X2361657Y-11708951D01*
X2366099Y-11708674D01*
X2370541Y-11708118D01*
X2374983Y-11707285D01*
X2378870Y-11706175D01*
X2379425Y-11705897D01*
X2380536Y-11705342D01*
X2382201Y-11704509D01*
X2384422Y-11703399D01*
X2386921Y-11701733D01*
X2389420Y-11699790D01*
X2391918Y-11697291D01*
X2393862Y-11694515D01*
X2394139Y-11694237D01*
X2394694Y-11693127D01*
X2395527Y-11691461D01*
X2396638Y-11689240D01*
X2397471Y-11686741D01*
X2398304Y-11683965D01*
X2398859Y-11680634D01*
X2399136Y-11677302D01*
Y-11677025D01*
Y-11676747D01*
X2398859Y-11675081D01*
X2398581Y-11672583D01*
X2398026Y-11669251D01*
X2396638Y-11665920D01*
X2394972Y-11662033D01*
X2392473Y-11658424D01*
X2389142Y-11654815D01*
X2388587Y-11654537D01*
X2387199Y-11653427D01*
X2384978Y-11652039D01*
X2381369Y-11650373D01*
X2377204Y-11648707D01*
X2371652Y-11647319D01*
X2365267Y-11646209D01*
X2357771Y-11645931D01*
D02*
G37*
G36*
X3116512Y-11693682D02*
X3114846D01*
X3113735Y-11693960D01*
X3110682Y-11694237D01*
X3107073Y-11695070D01*
X3102631Y-11696458D01*
X3097911Y-11698402D01*
X3093469Y-11701178D01*
X3089027Y-11704787D01*
X3088472Y-11705342D01*
X3087361Y-11706730D01*
X3085418Y-11709229D01*
X3083475Y-11712560D01*
X3081254Y-11716447D01*
X3079310Y-11721444D01*
X3077645Y-11727274D01*
X3076812Y-11733660D01*
X3154824D01*
Y-11733382D01*
Y-11732827D01*
X3154546Y-11731994D01*
Y-11730883D01*
X3153991Y-11727552D01*
X3153158Y-11723943D01*
X3151770Y-11719501D01*
X3150382Y-11715336D01*
X3148161Y-11711172D01*
X3145662Y-11707563D01*
Y-11707285D01*
X3145107Y-11707008D01*
X3143719Y-11705342D01*
X3141220Y-11703121D01*
X3137889Y-11700623D01*
X3133724Y-11698124D01*
X3128727Y-11695903D01*
X3122897Y-11694237D01*
X3119843Y-11693960D01*
X3116512Y-11693682D01*
D02*
G37*
G36*
X2891638D02*
X2889972D01*
X2888584Y-11693960D01*
X2885530Y-11694237D01*
X2881366Y-11695348D01*
X2876646Y-11697013D01*
X2871649Y-11699234D01*
X2866929Y-11702566D01*
X2864431Y-11704787D01*
X2862210Y-11707008D01*
Y-11707285D01*
X2861655Y-11707563D01*
X2861099Y-11708396D01*
X2860267Y-11709506D01*
X2859434Y-11710895D01*
X2858601Y-11712560D01*
X2857490Y-11714781D01*
X2856380Y-11717002D01*
X2855269Y-11719778D01*
X2854159Y-11722555D01*
X2853326Y-11725886D01*
X2852493Y-11729495D01*
X2851660Y-11733382D01*
X2851105Y-11737546D01*
X2850827Y-11742266D01*
X2850550Y-11746985D01*
Y-11747263D01*
Y-11748096D01*
Y-11749484D01*
X2850827Y-11751427D01*
Y-11753648D01*
X2851105Y-11756147D01*
X2851938Y-11761977D01*
X2853326Y-11768640D01*
X2855547Y-11775303D01*
X2858323Y-11781688D01*
X2860267Y-11784464D01*
X2862210Y-11787241D01*
X2862488D01*
X2862765Y-11787796D01*
X2864431Y-11789184D01*
X2866929Y-11791405D01*
X2870261Y-11793626D01*
X2874425Y-11796124D01*
X2879422Y-11798345D01*
X2885253Y-11799734D01*
X2888306Y-11800011D01*
X2891638Y-11800289D01*
X2893304D01*
X2894692Y-11800011D01*
X2897746Y-11799456D01*
X2901910Y-11798623D01*
X2906352Y-11796957D01*
X2911349Y-11794736D01*
X2916069Y-11791405D01*
X2918567Y-11789184D01*
X2920788Y-11786963D01*
X2921066Y-11786685D01*
X2921343Y-11786408D01*
X2921899Y-11785575D01*
X2922732Y-11784464D01*
X2923564Y-11783076D01*
X2924675Y-11781411D01*
X2925785Y-11779190D01*
X2926896Y-11776969D01*
X2928006Y-11774192D01*
X2928839Y-11771139D01*
X2929950Y-11767807D01*
X2930783Y-11764198D01*
X2931615Y-11760034D01*
X2932171Y-11755869D01*
X2932726Y-11751150D01*
Y-11746153D01*
Y-11745875D01*
Y-11745042D01*
Y-11743654D01*
X2932448Y-11741988D01*
Y-11739767D01*
X2932171Y-11737269D01*
X2931338Y-11731439D01*
X2929950Y-11725331D01*
X2927729Y-11718668D01*
X2924675Y-11712560D01*
X2923009Y-11709506D01*
X2920788Y-11707008D01*
Y-11706730D01*
X2920233Y-11706453D01*
X2918567Y-11704787D01*
X2916069Y-11702843D01*
X2912737Y-11700345D01*
X2908573Y-11697846D01*
X2903576Y-11695625D01*
X2898023Y-11694237D01*
X2894969Y-11693960D01*
X2891638Y-11693682D01*
D02*
G37*
G36*
X2519347D02*
X2517681D01*
X2516571Y-11693960D01*
X2513517Y-11694237D01*
X2509908Y-11695070D01*
X2505466Y-11696458D01*
X2500746Y-11698402D01*
X2496304Y-11701178D01*
X2491862Y-11704787D01*
X2491307Y-11705342D01*
X2490196Y-11706730D01*
X2488253Y-11709229D01*
X2486310Y-11712560D01*
X2484089Y-11716447D01*
X2482145Y-11721444D01*
X2480480Y-11727274D01*
X2479647Y-11733660D01*
X2557659D01*
Y-11733382D01*
Y-11732827D01*
X2557381Y-11731994D01*
Y-11730883D01*
X2556826Y-11727552D01*
X2555993Y-11723943D01*
X2554605Y-11719501D01*
X2553217Y-11715336D01*
X2550996Y-11711172D01*
X2548497Y-11707563D01*
Y-11707285D01*
X2547942Y-11707008D01*
X2546554Y-11705342D01*
X2544055Y-11703121D01*
X2540724Y-11700623D01*
X2536559Y-11698124D01*
X2531562Y-11695903D01*
X2525732Y-11694237D01*
X2522678Y-11693960D01*
X2519347Y-11693682D01*
D02*
G37*
G36*
X1817241D02*
X1815575D01*
X1814187Y-11693960D01*
X1811133Y-11694237D01*
X1806969Y-11695348D01*
X1802249Y-11697013D01*
X1797252Y-11699234D01*
X1792532Y-11702566D01*
X1790034Y-11704787D01*
X1787813Y-11707008D01*
Y-11707285D01*
X1787258Y-11707563D01*
X1786702Y-11708396D01*
X1785869Y-11709506D01*
X1785037Y-11710895D01*
X1784204Y-11712560D01*
X1783093Y-11714781D01*
X1781983Y-11717002D01*
X1780872Y-11719778D01*
X1779762Y-11722555D01*
X1778929Y-11725886D01*
X1778096Y-11729495D01*
X1777263Y-11733382D01*
X1776708Y-11737546D01*
X1776430Y-11742266D01*
X1776153Y-11746985D01*
Y-11747263D01*
Y-11748096D01*
Y-11749484D01*
X1776430Y-11751427D01*
Y-11753648D01*
X1776708Y-11756147D01*
X1777541Y-11761977D01*
X1778929Y-11768640D01*
X1781150Y-11775303D01*
X1783926Y-11781688D01*
X1785869Y-11784464D01*
X1787813Y-11787241D01*
X1788090D01*
X1788368Y-11787796D01*
X1790034Y-11789184D01*
X1792532Y-11791405D01*
X1795864Y-11793626D01*
X1800028Y-11796124D01*
X1805025Y-11798345D01*
X1810855Y-11799734D01*
X1813909Y-11800011D01*
X1817241Y-11800289D01*
X1818906D01*
X1820295Y-11800011D01*
X1823348Y-11799456D01*
X1827513Y-11798623D01*
X1831955Y-11796957D01*
X1836952Y-11794736D01*
X1841671Y-11791405D01*
X1844170Y-11789184D01*
X1846391Y-11786963D01*
X1846669Y-11786685D01*
X1846946Y-11786408D01*
X1847502Y-11785575D01*
X1848334Y-11784464D01*
X1849167Y-11783076D01*
X1850278Y-11781411D01*
X1851388Y-11779190D01*
X1852499Y-11776969D01*
X1853609Y-11774192D01*
X1854442Y-11771139D01*
X1855553Y-11767807D01*
X1856385Y-11764198D01*
X1857218Y-11760034D01*
X1857774Y-11755869D01*
X1858329Y-11751150D01*
Y-11746153D01*
Y-11745875D01*
Y-11745042D01*
Y-11743654D01*
X1858051Y-11741988D01*
Y-11739767D01*
X1857774Y-11737269D01*
X1856941Y-11731439D01*
X1855553Y-11725331D01*
X1853332Y-11718668D01*
X1850278Y-11712560D01*
X1848612Y-11709506D01*
X1846391Y-11707008D01*
Y-11706730D01*
X1845836Y-11706453D01*
X1844170Y-11704787D01*
X1841671Y-11702843D01*
X1838340Y-11700345D01*
X1834176Y-11697846D01*
X1829178Y-11695625D01*
X1823626Y-11694237D01*
X1820572Y-11693960D01*
X1817241Y-11693682D01*
D02*
G37*
G36*
X1250337D02*
X1248671D01*
X1247283Y-11693960D01*
X1244229Y-11694237D01*
X1240065Y-11695348D01*
X1235345Y-11697013D01*
X1230348Y-11699234D01*
X1225628Y-11702566D01*
X1223130Y-11704787D01*
X1220909Y-11707008D01*
Y-11707285D01*
X1220353Y-11707563D01*
X1219798Y-11708396D01*
X1218965Y-11709506D01*
X1218132Y-11710895D01*
X1217300Y-11712560D01*
X1216189Y-11714781D01*
X1215079Y-11717002D01*
X1213968Y-11719778D01*
X1212858Y-11722555D01*
X1212025Y-11725886D01*
X1211192Y-11729495D01*
X1210359Y-11733382D01*
X1209804Y-11737546D01*
X1209526Y-11742266D01*
X1209249Y-11746985D01*
Y-11747263D01*
Y-11748096D01*
Y-11749484D01*
X1209526Y-11751427D01*
Y-11753648D01*
X1209804Y-11756147D01*
X1210637Y-11761977D01*
X1212025Y-11768640D01*
X1214246Y-11775303D01*
X1217022Y-11781688D01*
X1218965Y-11784464D01*
X1220909Y-11787241D01*
X1221186D01*
X1221464Y-11787796D01*
X1223130Y-11789184D01*
X1225628Y-11791405D01*
X1228960Y-11793626D01*
X1233124Y-11796124D01*
X1238121Y-11798345D01*
X1243951Y-11799734D01*
X1247005Y-11800011D01*
X1250337Y-11800289D01*
X1252002D01*
X1253390Y-11800011D01*
X1256444Y-11799456D01*
X1260609Y-11798623D01*
X1265051Y-11796957D01*
X1270048Y-11794736D01*
X1274767Y-11791405D01*
X1277266Y-11789184D01*
X1279487Y-11786963D01*
X1279765Y-11786685D01*
X1280042Y-11786408D01*
X1280597Y-11785575D01*
X1281430Y-11784464D01*
X1282263Y-11783076D01*
X1283374Y-11781411D01*
X1284484Y-11779190D01*
X1285595Y-11776969D01*
X1286705Y-11774192D01*
X1287538Y-11771139D01*
X1288648Y-11767807D01*
X1289481Y-11764198D01*
X1290314Y-11760034D01*
X1290869Y-11755869D01*
X1291425Y-11751150D01*
Y-11746153D01*
Y-11745875D01*
Y-11745042D01*
Y-11743654D01*
X1291147Y-11741988D01*
Y-11739767D01*
X1290869Y-11737269D01*
X1290037Y-11731439D01*
X1288648Y-11725331D01*
X1286427Y-11718668D01*
X1283374Y-11712560D01*
X1281708Y-11709506D01*
X1279487Y-11707008D01*
Y-11706730D01*
X1278932Y-11706453D01*
X1277266Y-11704787D01*
X1274767Y-11702843D01*
X1271436Y-11700345D01*
X1267272Y-11697846D01*
X1262274Y-11695625D01*
X1256722Y-11694237D01*
X1253668Y-11693960D01*
X1250337Y-11693682D01*
D02*
G37*
G36*
X3014484Y-9042290D02*
X2983753D01*
Y-9074572D01*
X3012793D01*
X3014484Y-9074431D01*
X3016458Y-9074290D01*
X3018714Y-9074149D01*
X3020969Y-9073868D01*
X3023225Y-9073445D01*
X3025198Y-9072881D01*
X3025480Y-9072740D01*
X3026044Y-9072458D01*
X3026890Y-9072035D01*
X3028018Y-9071471D01*
X3029286Y-9070625D01*
X3030555Y-9069638D01*
X3031824Y-9068370D01*
X3032811Y-9066960D01*
X3032952Y-9066819D01*
X3033233Y-9066255D01*
X3033656Y-9065409D01*
X3034220Y-9064282D01*
X3034643Y-9063013D01*
X3035066Y-9061603D01*
X3035348Y-9059912D01*
X3035489Y-9058220D01*
Y-9058079D01*
Y-9057938D01*
X3035348Y-9057092D01*
X3035207Y-9055823D01*
X3034925Y-9054132D01*
X3034220Y-9052440D01*
X3033374Y-9050467D01*
X3032106Y-9048634D01*
X3030414Y-9046801D01*
X3030132Y-9046660D01*
X3029427Y-9046096D01*
X3028300Y-9045392D01*
X3026467Y-9044546D01*
X3024352Y-9043700D01*
X3021533Y-9042995D01*
X3018291Y-9042431D01*
X3014484Y-9042290D01*
D02*
G37*
G36*
X786078Y-6725525D02*
X755711D01*
Y-6764040D01*
X787189D01*
X789597Y-6763855D01*
X792189Y-6763669D01*
X794781Y-6763484D01*
X797374Y-6763114D01*
X799410Y-6762744D01*
X799781Y-6762558D01*
X800521Y-6762373D01*
X801632Y-6761818D01*
X803114Y-6761077D01*
X804595Y-6760336D01*
X806262Y-6759225D01*
X807928Y-6757744D01*
X809224Y-6756263D01*
X809409Y-6756078D01*
X809780Y-6755522D01*
X810335Y-6754411D01*
X810891Y-6753115D01*
X811446Y-6751634D01*
X812002Y-6749782D01*
X812372Y-6747560D01*
X812557Y-6745153D01*
Y-6744783D01*
Y-6744042D01*
X812372Y-6742931D01*
X812187Y-6741450D01*
X811817Y-6739598D01*
X811261Y-6737746D01*
X810520Y-6735895D01*
X809409Y-6734043D01*
X809224Y-6733858D01*
X808854Y-6733302D01*
X808113Y-6732376D01*
X807187Y-6731451D01*
X805891Y-6730340D01*
X804410Y-6729229D01*
X802558Y-6728118D01*
X800521Y-6727377D01*
X800336D01*
X799410Y-6727007D01*
X798114Y-6726821D01*
X796077Y-6726451D01*
X793300Y-6726081D01*
X790152Y-6725896D01*
X786078Y-6725525D01*
D02*
G37*
G36*
X789411Y-6779223D02*
X755711D01*
Y-6823293D01*
X792189D01*
X796077Y-6823108D01*
X797744Y-6822923D01*
X799225Y-6822737D01*
X799410D01*
X800151Y-6822552D01*
X801262Y-6822367D01*
X802558Y-6821997D01*
X805706Y-6820886D01*
X808854Y-6819404D01*
X809039Y-6819219D01*
X809595Y-6818849D01*
X810335Y-6818293D01*
X811261Y-6817553D01*
X812187Y-6816442D01*
X813483Y-6815331D01*
X814409Y-6813849D01*
X815520Y-6812183D01*
X815705Y-6811998D01*
X815890Y-6811442D01*
X816260Y-6810331D01*
X816816Y-6809035D01*
X817371Y-6807554D01*
X817742Y-6805702D01*
X817927Y-6803480D01*
X818112Y-6801258D01*
Y-6800888D01*
Y-6800147D01*
X817927Y-6798666D01*
X817557Y-6796999D01*
X817186Y-6795148D01*
X816446Y-6793111D01*
X815520Y-6791074D01*
X814224Y-6789037D01*
X814039Y-6788852D01*
X813483Y-6788111D01*
X812742Y-6787186D01*
X811631Y-6786075D01*
X810150Y-6784778D01*
X808298Y-6783482D01*
X806262Y-6782371D01*
X803854Y-6781445D01*
X803484Y-6781260D01*
X802743Y-6781075D01*
X801077Y-6780705D01*
X799040Y-6780334D01*
X796448Y-6779964D01*
X793300Y-6779594D01*
X789411Y-6779223D01*
D02*
G37*
G36*
X3087318Y-6725525D02*
X3056951D01*
Y-6764040D01*
X3088429D01*
X3090837Y-6763855D01*
X3093429Y-6763669D01*
X3096021Y-6763484D01*
X3098614Y-6763114D01*
X3100650Y-6762744D01*
X3101021Y-6762558D01*
X3101761Y-6762373D01*
X3102872Y-6761818D01*
X3104354Y-6761077D01*
X3105835Y-6760336D01*
X3107502Y-6759225D01*
X3109168Y-6757744D01*
X3110464Y-6756263D01*
X3110649Y-6756078D01*
X3111020Y-6755522D01*
X3111575Y-6754411D01*
X3112131Y-6753115D01*
X3112686Y-6751634D01*
X3113242Y-6749782D01*
X3113612Y-6747560D01*
X3113797Y-6745153D01*
Y-6744783D01*
Y-6744042D01*
X3113612Y-6742931D01*
X3113427Y-6741450D01*
X3113057Y-6739598D01*
X3112501Y-6737746D01*
X3111760Y-6735895D01*
X3110649Y-6734043D01*
X3110464Y-6733858D01*
X3110094Y-6733302D01*
X3109353Y-6732376D01*
X3108427Y-6731451D01*
X3107131Y-6730340D01*
X3105650Y-6729229D01*
X3103798Y-6728118D01*
X3101761Y-6727377D01*
X3101576D01*
X3100650Y-6727007D01*
X3099354Y-6726821D01*
X3097317Y-6726451D01*
X3094540Y-6726081D01*
X3091392Y-6725896D01*
X3087318Y-6725525D01*
D02*
G37*
G36*
X3090651Y-6779223D02*
X3056951D01*
Y-6823293D01*
X3093429D01*
X3097317Y-6823108D01*
X3098984Y-6822923D01*
X3100465Y-6822737D01*
X3100650D01*
X3101391Y-6822552D01*
X3102502Y-6822367D01*
X3103798Y-6821997D01*
X3106946Y-6820886D01*
X3110094Y-6819404D01*
X3110279Y-6819219D01*
X3110835Y-6818849D01*
X3111575Y-6818293D01*
X3112501Y-6817553D01*
X3113427Y-6816442D01*
X3114723Y-6815331D01*
X3115649Y-6813849D01*
X3116760Y-6812183D01*
X3116945Y-6811998D01*
X3117130Y-6811442D01*
X3117500Y-6810331D01*
X3118056Y-6809035D01*
X3118611Y-6807554D01*
X3118982Y-6805702D01*
X3119167Y-6803480D01*
X3119352Y-6801258D01*
Y-6800888D01*
Y-6800147D01*
X3119167Y-6798666D01*
X3118797Y-6796999D01*
X3118426Y-6795148D01*
X3117686Y-6793111D01*
X3116760Y-6791074D01*
X3115464Y-6789037D01*
X3115279Y-6788852D01*
X3114723Y-6788111D01*
X3113982Y-6787186D01*
X3112871Y-6786075D01*
X3111390Y-6784778D01*
X3109538Y-6783482D01*
X3107502Y-6782371D01*
X3105094Y-6781445D01*
X3104724Y-6781260D01*
X3103983Y-6781075D01*
X3102317Y-6780705D01*
X3100280Y-6780334D01*
X3097688Y-6779964D01*
X3094540Y-6779594D01*
X3090651Y-6779223D01*
D02*
G37*
G36*
X3325190Y-9050678D02*
X3294458Y-9094379D01*
X3325190D01*
Y-9050678D01*
D02*
G37*
%LPD*%
D45*
X2598400Y-11074018D02*
G03*
X2496800Y-11249994I101600J-175976D01*
G01*
Y-11250004D02*
G03*
X2569386Y-11405665I203200J0D01*
G01*
X2903200Y-11250006D02*
G03*
X2795396Y-11070591I-203200J0D01*
G01*
X2830614Y-11405662D02*
G03*
X2903200Y-11250002I-130614J155660D01*
G01*
X1923400Y-11074018D02*
G03*
X1821800Y-11249994I101600J-175976D01*
G01*
Y-11250004D02*
G03*
X1894386Y-11405665I203200J0D01*
G01*
X2228200Y-11250006D02*
G03*
X2120397Y-11070591I-203200J0D01*
G01*
X2155614Y-11405662D02*
G03*
X2228200Y-11250002I-130614J155660D01*
G01*
X1248400Y-11074018D02*
G03*
X1146800Y-11249994I101600J-175976D01*
G01*
Y-11250004D02*
G03*
X1219386Y-11405665I203200J0D01*
G01*
X1553200Y-11250006D02*
G03*
X1445397Y-11070591I-203200J0D01*
G01*
X1480615Y-11405662D02*
G03*
X1553200Y-11250002I-130614J155660D01*
G01*
X2702700Y-5700000D02*
G03*
X2702700Y-5700000I-680000J0D01*
G01*
Y-7600000D02*
G03*
X2702700Y-7600000I-680000J0D01*
G01*
D46*
X2606173Y-11129908D02*
G03*
X2547600Y-11250001I93827J-120093D01*
G01*
Y-11249999D02*
G03*
X2606173Y-11370092I152400J0D01*
G01*
X2852400Y-11250000D02*
G03*
X2791717Y-11128288I-152400J0D01*
G01*
X2789578Y-11373291D02*
G03*
X2852400Y-11249997I-89578J123294D01*
G01*
X1931173Y-11129908D02*
G03*
X1872600Y-11250001I93827J-120093D01*
G01*
Y-11249999D02*
G03*
X1931173Y-11370092I152400J0D01*
G01*
X2177400Y-11250000D02*
G03*
X2116717Y-11128288I-152400J0D01*
G01*
X2114578Y-11373291D02*
G03*
X2177400Y-11249997I-89578J123294D01*
G01*
X1256173Y-11129908D02*
G03*
X1197600Y-11250001I93827J-120093D01*
G01*
Y-11249999D02*
G03*
X1256173Y-11370092I152400J0D01*
G01*
X1502400Y-11250000D02*
G03*
X1441717Y-11128288I-152400J0D01*
G01*
X1439579Y-11373291D02*
G03*
X1502400Y-11249997I-89578J123294D01*
G01*
D47*
X2757700Y-9930000D02*
G03*
X2757700Y-9930000I-10000J0D01*
G01*
X2492698Y-882000D02*
G03*
X2492698Y-882000I-10000J0D01*
G01*
X403000Y-9832000D02*
Y-8308000D01*
X657000Y-9832000D02*
Y-8308000D01*
X403000D02*
X657000D01*
X403000Y-9832000D02*
X657000D01*
X2718198Y-1025000D02*
Y148000D01*
X1327198Y-1025000D02*
X2718198D01*
X1327198D02*
Y148000D01*
X2718198Y478000D02*
Y825000D01*
X1327198D02*
X2718198D01*
X1327198Y478000D02*
Y825000D01*
D48*
X2166200Y-8750003D02*
X2446200D01*
X2166200Y-8610003D02*
X2166200Y-8750003D01*
X2166200Y-8610003D02*
X2446200D01*
Y-8750003D02*
Y-8610003D01*
X2553800Y-10829998D02*
X2833800D01*
Y-10969997D02*
Y-10829998D01*
X2553800Y-10969997D02*
X2833800D01*
X2553800D02*
Y-10829998D01*
X1876200Y-10829997D02*
X2156200Y-10829998D01*
Y-10969997D02*
Y-10829998D01*
X1876200Y-10969997D02*
X2156200D01*
X1876200D02*
X1876200Y-10829997D01*
X1213800Y-10839997D02*
X1493800D01*
X1493800Y-10979997D01*
X1213800D02*
X1493800D01*
X1213800D02*
Y-10839997D01*
X3349997Y-9436200D02*
Y-9156200D01*
X3209998Y-9436200D02*
X3349997D01*
X3209998D02*
Y-9156200D01*
X3349997D01*
X2969998Y-9436200D02*
Y-9156200D01*
X3109997D01*
Y-9436200D02*
Y-9156200D01*
X2969998Y-9436200D02*
X3109997D01*
Y-9833800D02*
Y-9553800D01*
X2969998Y-9833800D02*
X3109997D01*
X2969998D02*
Y-9553800D01*
X3109997D01*
D49*
X1362700Y-10630000D02*
Y-10092000D01*
X2682700Y-10630000D02*
Y-10092000D01*
X1362700Y-10630000D02*
X2682700D01*
%TF.MD5,f5a062aa6341cbf1487eb15308b43b6b*%
M02*
